/* XPM */
static char *result[] = {
/* columns rows colors chars-per-pixel */
"60 60 227 2 ",
"   c #161C26",
".  c #181D27",
"X  c #171D28",
"o  c #191E2B",
"O  c #171E33",
"+  c #1A1D34",
"@  c #1F1D38",
"#  c #201F2F",
"$  c #221E3A",
"%  c #1C222B",
"&  c #192036",
"*  c #1C233A",
"=  c #1E283C",
"-  c #20202F",
";  c #242435",
":  c #232B34",
">  c #23233D",
",  c #212A3D",
"<  c #273038",
"1  c #2B343C",
"2  c #1F2842",
"3  c #2C2343",
"4  c #222C45",
"5  c #2A2942",
"6  c #2B2946",
"7  c #342748",
"8  c #36274A",
"9  c #35294B",
"0  c #3B294E",
"q  c #2C3543",
"w  c #25324C",
"e  c #29364C",
"r  c #2C394D",
"t  c #323D45",
"y  c #35384B",
"u  c #333E4B",
"i  c #3E2951",
"p  c #273554",
"a  c #2A3854",
"s  c #2A3A5B",
"d  c #333E55",
"f  c #2D3E60",
"g  c #432B54",
"h  c #482E58",
"j  c #4C2E5B",
"k  c #502F5E",
"l  c #4A375C",
"z  c #55335C",
"x  c #553263",
"c  c #5B3464",
"v  c #5E3569",
"b  c #63376D",
"n  c #69386C",
"m  c #673870",
"M  c #6C3974",
"N  c #733B76",
"B  c #723B78",
"V  c #7E3F7C",
"C  c #34404B",
"Z  c #3A464D",
"A  c #3C494E",
"S  c #3D594E",
"D  c #2E415C",
"F  c #3B4353",
"G  c #3B4954",
"H  c #32425E",
"J  c #3B5555",
"K  c #2F4062",
"L  c #314563",
"P  c #364967",
"I  c #354A6C",
"U  c #394E6E",
"Y  c #3D5069",
"T  c #374D71",
"R  c #3A4E73",
"E  c #3C5474",
"W  c #3D547B",
"Q  c #40474E",
"!  c #41484E",
"~  c #405D4C",
"^  c #424E59",
"/  c #465359",
"(  c #4A5A5F",
")  c #547B46",
"_  c #4D6655",
"`  c #554D66",
"'  c #485765",
"]  c #4B5B61",
"[  c #505B60",
"{  c #545B68",
"}  c #425B7B",
"|  c #6E4E7A",
" . c #4F616A",
".. c #52646A",
"X. c #58626C",
"o. c #59686D",
"O. c #567369",
"+. c #496677",
"@. c #536773",
"#. c #576A70",
"$. c #5A6D73",
"%. c #5D7176",
"&. c #5E757A",
"*. c #676277",
"=. c #616D71",
"-. c #6A6C79",
";. c #72657E",
":. c #627579",
">. c #677579",
",. c #813E7D",
"<. c #86447D",
"1. c #914C7E",
"2. c #5B853F",
"3. c #729550",
"4. c #658469",
"5. c #738D79",
"6. c #7A9477",
"7. c #7E967A",
"8. c #81A551",
"9. c #86A953",
"0. c #8AAB58",
"q. c #96B55B",
"w. c #829A78",
"e. c #9DB76B",
"r. c #9DB66C",
"t. c #95AD70",
"y. c #A2BC69",
"u. c #A7BD72",
"i. c #ABC565",
"p. c #ABC369",
"a. c #AFC868",
"s. c #B1CA67",
"d. c #B0C968",
"f. c #ACC177",
"g. c #435D86",
"h. c #495F85",
"j. c #455F88",
"k. c #794C80",
"l. c #4D6684",
"z. c #496688",
"x. c #4B658D",
"c. c #516A85",
"v. c #51698D",
"b. c #59758C",
"n. c #4B6B92",
"m. c #546B91",
"M. c #586E92",
"N. c #4F7099",
"B. c #577497",
"V. c #6C7D81",
"C. c #647C8B",
"Z. c #767A85",
"A. c #717391",
"S. c #567CA4",
"D. c #587FA8",
"F. c #844181",
"G. c #8A4382",
"H. c #934788",
"J. c #AB548E",
"K. c #AF5690",
"L. c #967396",
"P. c #758485",
"I. c #7A8586",
"U. c #76868A",
"Y. c #7B858A",
"T. c #70888B",
"R. c #76888A",
"E. c #7C8B8D",
"W. c #788A99",
"Q. c #7F9091",
"!. c #7F919F",
"~. c #5B84AA",
"^. c #5E8CB4",
"/. c #718EA7",
"(. c #7D8EA4",
"). c #6993A8",
"_. c #6A93A8",
"`. c #608EB6",
"'. c #618FB8",
"]. c #6391B8",
"[. c #6999BD",
"{. c #6E9FC0",
"}. c #7CAEC3",
"|. c #78ABC7",
" X c #7FB3CA",
".X c #838B91",
"XX c #859595",
"oX c #869797",
"OX c #8D9798",
"+X c #8A9999",
"@X c #929F9F",
"#X c #92A09F",
"$X c #8292A7",
"%X c #8897AA",
"&X c #8B9AAC",
"*X c #909EAF",
"=X c #8D9CB0",
"-X c #A495A8",
";X c #9AA6A7",
":X c #8BADB2",
">X c #99A6B6",
",X c #A6ACAD",
"<X c #ABB5B2",
"1X c #A8B0B7",
"2X c #ACB6BD",
"3X c #BAC984",
"4X c #C3CF8B",
"5X c #CCD594",
"6X c #D1D897",
"7X c #D3DA9B",
"8X c #D7DCA6",
"9X c #82B7CD",
"0X c #86BCD1",
"qX c #88BED2",
"wX c #A7B2C0",
"eX c #B4BEC2",
"rX c #94C6D2",
"tX c #BBC3C5",
"yX c #BBC4C6",
"uX c #AAD4D5",
"iX c #C3CAC8",
"pX c #CCD2CE",
"aX c #C9D0D3",
"sX c #D5DAD9",
"dX c #DEE1DE",
"fX c #E4E8D4",
"gX c #E6E9E5",
/* pixels */
"& & + & & & & & + + & * 0 h z z z z h g $ + & + + & & & & & & & & & & & & & O O & & O 2 * O * & O * & & & & & & & & & & ",
"& & & & & & & & * * * > N H.J.K.K.J.1.<.> $ * * & & & & + & & & O & & & & & O 2 & & O O O & O & & O & & & & & & & + & & ",
"+ & & & & & & + h c <.1.c z z z z z z z 1.1.b x * + & & & & O O & & & & & & & & 2 & O & O & O O & & & O & & & & & & & & ",
"& & & & & & & & b ,.<.<.c z j j k k j k <.G.| M > + & 2 H L L s & & & O & & & & O & & & * O * * & & O * & & & & & & & & ",
"+ & & & & + 2 O M H.x g b B B B N N B M g j G.V * & O a ~.^.^.x.& & & * = = * * O O & * 2 & * O & O O 2 & 2 O O & & & O ",
"2 & & & & & O + c k.,.,.B B M B N B B B ,.,.V m * & & w x.n.n.E & & & D N.N.N.I O O & T N.D O O 2 O O & & & & O & & & & ",
"O O O O & & & 2 i x V G.F.k.<.G.G.G.| ,.G.,.x g * @ + p n.n.z.I & & & L ~.~.D.T & O O W ~.} L 4 O O & & O 2 & & & & & & ",
"& O O 2 O + O O @ $ x M F.H.J.K.J.J.H.H.N b 3 @ O & O a ^.~.x.T * & & a j.g.z.K O 2 O L j.S.`.L O O & O O O & & & + & + ",
"& & O 2 & & & & j v 0 6 6 9 9 0 9 8 8 8 6 8 v k * & & D }.|.|.b.& & @ a g.g.g.K & & * L g.S.^.L O & & & & & & & & & & & ",
"& & O O + & & & x B i > 9 9 0 9 0 8 4 > > 6 M b * & & H  XrXrX).2 * O P ~.B.N.T = * & E ~.^.`.L O & O 2 & & & & & & & & ",
"* * 2 + * * + * x B j 0 b B B B B M g i i g M b * @ + H  X9X X^.s w O } 0X|.^.z.a 2 & b.0X[.^.P O O O O & * * & = & * = ",
" .{ J r t C , + x B j i b B B B B M g 0 i g M b > * p I [.].[.~.s w O T [.].`.z.s w & l.[.].^.L O O O O & J .. . . ...V.",
"#...$.>.>.>.y + x B j i b B B B B M g 0 0 g B b & * s T ^.~.~.z.s p 2 I S.S.S.} s p 2 W S.~.^.L 2 P $.+.@.] '  .]  . .=.",
"( A E.<X<X<X( + k M j i b B B B B M g 0 0 g m v & 2 s T ~.~.j.E s s s I g.j.j.T a s s R g.S.^.L = !.uXuXuXY 2 q t t t : ",
"A A I.<X<X<X[ + > 6 8 i b B B B B M g i i 0 3 4 & 2 s K z.n.j.W s s s I j.g.g.T s s s R j.x.x.a * _.rXrXrX:X:XC & : : : ",
"/ A I.<X<X<X/ + e u 6 7 h k k k k j 8 3 3 6 u e & 2 s K g.g.j.E s s s I g.j.z.T s s s R j.j.j.w * ~.|. XrXrXrXT. .1 : % ",
"( A I.<X<X<X{ = ' #.r & * = * * = = * & = 4 @. ., = s K g.g.j.W s s s I g.j.j.T s s s R j.g.j.p & z.^.}.0XqXqXuXrXD O X ",
"] A I.<X;X+XE.V.G 4 t Z ]  .A Z ]  .G G  .] q 4 p p s L g.j.g.W s a s I j.j.j.T s s s R j.z.j.p O 2 C [.qXqXqXuXuXC O X ",
"( A >.,X+XoXoXoXX.^ u t G ^ u q G ^ t r G ^ d F Y Y Y Y R R R R Y Y Y U R E R E U ^ ^ R R R R H D = & ).qX0XrXrXrX1 O X ",
"( A :.XXXXXXXXXXXXXXG = = , = = , = , , = q #.&.%.:.=.#.L K s ' %.:.:. .K s K ' :.:.b.' D K H @.O.r = ].0X0X X0X}.r O X ",
"( A ..:.:.:.:.:.:.:.V.P.P.P.P.P.P.Z.P.P.P.P.Q.Q.Q.Q.Q.E.R.U.U.E.Q.Q.Q.E.U.U.U.E..XQ.Q.E.U.R.R.>.%.r & ).rX{.[. X}.C & X ",
"( A >.+XoXoXP.$.>.P.U.R.R.R.R.R.R.R.R.R.R.R.R.R.R.R.R.R.U.U.R.R.R.R.R.U.U.R.R.R.R.R.U.R.R.U.R.:.%.e * ). X[.`. X:Xa O X ",
"( A OXpXpXpXXX%.E.oXV.$.#.#.#.#.#.#.#.#.#.#.#.#.@.#.#.#.#.#.#.#.#.#.#.$.@.#.#.#.#.#.#.#.#.$.%.%.%.q * ).0X[.]. X}.e &   ",
"( A E.<XtXpXXX&.+X,XT.$.t : : = : : : : : : : : : : : : : : : : : : : : : , : : : : : : : ' &.%.%.r * ).0X[.]. X}.e &   ",
"( A I.<X,X-XZ.$.;X<Xo.G , , 2 * = = = > = , = 4 e p e e a e e e e w = , = = 2 * = = = = = C J @.%.e * ).rX[.`. X}.C O X ",
"( A E.<XL.M *.$.OX<XA   w s s a s s s s f f s L z.v.v.v.v.v.v.v.v.} s s K s s s s s s s s *   / %.q * ). X[.'. X}.e O X ",
"! A I.<XL.H.;.$.@X<XA   e s s s s s a f W W W v.2XeXeXeXeXeXeXeX2X&Xg.W } T s s s a s s s =   J %.r & ).0X[.]. X Xe O & ",
"/ A I.<X-XL.Z.$.@X<XQ   w s J S S J L } /.(.(.$X*X*X*X*X*X*X*X*X>X&X(.$X(.M.I J S S S H a =   C J Y R c.~.z.g.b.b.E L 2 ",
"( A .X<X,X,XZ.:.@X<X!   p d ) 2.) ) c.B.eXiXiX2Xb.l.l.l.z.l.l.l.l.W.yXyXtX*Xn.O.2.2.2.S s = X O & n.`.D X * = * 2 S.~.w ",
"( A I.<XL.k.*.%.+X<X!   w s 3.3.@.+.2X2XB.M.M.C.t.r.e.e.e.e.u.r.e.w.M.M.b.$XeX!.W 4.3._ s = X O = n.`.z.E E W W W z.j.2 ",
"( A I.<XL.k.*.:.@X<X!   w s O.4.W.$X&X&X5.5.5.7.a.d.a.a.a.a.a.a.s.r.5.5.5.XX&X%X(.T.4.( s & X % O I g.n.N.n.g.j.g.L D = ",
"_ / .X2XL.H.k.%.@X<X!   p K h.b.tXiXM.c.y.s.d.a.i.a.a.i.i.i.i.i.i.i.s.s.s.6.g.%XsX&Xc.E D = X = 2 & & n.~.j.} } W 2 O O ",
"I.;X,X<X1X,XZ.%.#X<X! X I h.>XtXgXsXB.+.p.d.a.p.0.9.9.9.9.9.9.9.9.q.s.d.s.7.g.:XgXsXeXW.W w   X.U.d + 2 4 2 = 2 = & & % ",
".XtX,XXXP.-.-.:.@X<X!   U x.2XpXwX>X.X6.p.i.q.q.9.9.u.u.u.u.u.e.8.9.q.i.s.t.5.+X>XyXpX(.g.p   $.oXF & Y +.E E z.} 2 O % ",
"OXpXXX..y + ^ #.OX<XA   U x.2XiXM.c.y.d.a.i.9.9.9.r.5X7X8X7X7X3X0.9.3.q.a.a.s.6.g.%XpX(.g.e . =.oXF * ).rX[.]. X}.a %   ",
"OXpX>.: 9 8 7 > .X<X!   U x.2XiXM.l.r.d.a.p.9.0.3X5X6X8XfXfX7X6X5Xf.8.q.a.a.s.6.g.&XpX(.g.q   =.oXF & ). X{.]. X}.e O X ",
"OXpX-.+ g x 7 @ Y.<X! X U x.2XiXM.c.y.d.i.i.9.0.6X7X7X8XgXgX6X7X7Xf.9.q.s.s.s.6.g.&XpX(.g.e   $.oXF & ).0X[.]. X}.C %   ",
"OXpX-.+ k M 8 @ Y.<X! . R v.2XiXb.c.r.d.a.p.9.0.4X5X7X8XfXfX7X6X6Xf.3.q.s.s.s.6.g.%XpX(.g.e   =.oXF * ).0X[.].|.|.a O % ",
"OXpX;.@ k B i @ .X,XQ . U x.2XiXB.l.e.s.a.i.9.9.0.r.5X7X8X8X7X3Xq.9.3.q.s.a.s.6.g.%XpX(.g.e   =.oXF & ).0X[.`.[.~.w & = ",
"OXpX-.# k B i $ Y.<XQ   U x.2XpX>X;XE.w.i.i.q.q.9.0.u.u.f.f.f.e.9.9.q.i.s.r.6.Q.$X2XpX(.g.e   =.oXF & ).0X[.^.`.~.w % % ",
"OXpX*.+ k B 0 @ .X,X! X I h.1XyXdXdX~.C.t.y.d.i.9.9.9.9.9.9.9.9.9.q.s.d.u.w.m.*XpXiXyXW.} w % $.XXF & _.0X[.^.'.~.w +   ",
"OXpX-.+ k B i @ .X<X! X a L x.B.yXsXsXaXC.:.p.s.i.i.i.i.i.i.i.i.i.d.s.w.l.=XsXsXpX&Xm.E f 2   $.XXF * _.0X[.^.`.~.4 +   ",
"OXpX-.@ k B g 6 ` *.1 . w D O.>.oX*XsXsXwX=XI.7.6.6.6.6.6.6.6.6.6.6.6.XX>XyXdXeX%XR.4.( a = . =.XXF & _.0X[.`.`.~.w +   ",
"OXpX*.+ k B k 0 $ + . . w F 3.3.+.c.1XyXsXaXB.v.m.m.m.m.m.v.m.v.v.v.n.=XsXaXyX(.} 4.3._ s = . o.XXA , ~.}.~.D.~.B.w $ . ",
"OXpX-.$ k B k 0 3 + X   w D ) 2.2.) v.m.N.T.eXyXyXyXyXyXyXyXyXyXyXyXtX>XN.m.m.O.2.2.2.S s =   ( :.l 9 6 6 6 4 4 4 8 8 o ",
"OXpX-.+ k B k 0 > @ X % w s S S S S R R g.x.(.%X%X%X%X%X%X%X%X%X%X%X=XC.j.W T J S ~ ~ H s =   / $.^ i g h k c h h i 8 o ",
"OXpX-.+ k B x i 3 + & % w p p p p p p s R W W W W W W W W W W E W W W W W L p p p p p p a , % ] %.l 0 v M F.G.N n g 8 # ",
"OXpX*.+ k B M M 8 + w a & & X % X % . % & & % & % % & % % & % % % % & & & % % & X % % X % G #.$.%.l 0 g g g g g g g 8 # ",
"OXpX#XZ.` g n B x h 6 4 @ + / [ [ [ [ [ [ [ [ [ ( [ [ [ [ [ [ [ [ ] [ [ [ [ [ [ [ [ [ [ [ >.P.:.%.l i c n c c c x g 8 . ",
".XiXiXiX*.o j M B B g 3 3 7 >.E.XXOX+XOXoXoX+XoX+X+X+XXX.XE..XXX+XoXE.XXoXXXE.XXOX.X.X.X.XOXXXV.$.^ i N G.B m M n g 8 # ",
"=.@XOX@X/ + 8 g b B ,.G.,.,.g 9 P.+XoXoXXXoXoXoXoXXX+XR./ / ~ o.oX>./ =.+X>.! >.oXA.B B | Z.OXV.$.l i g g g g g g g 0 . ",
"{ OXoXoX>.{ i 3 h c B F.H.H.n z ` ( ' { .XoXoXoXoXoXoXE.>.=.=.V.oXR.>.P.+XR.=.P.+XZ.L.Z.L.Z.OXV.%.y > j c m m c z 1 ; . ",
"[ P.I.P..X+X' 6 8 0 v M ,.G.H.G.g 3 3 9 >.Y.U.U.I.U.P.I.I.I.I.5.Z.5.I.I.5.P.I.P.5.I.P.P.R.P.I.=...1 % z m ,.,.n b : % . ",
": : : : =.+X.XE.d @ 8 g g h M B ,.,.G.V 9 1 5 > 5 > 5 > o % o % % % % . % % % % % % : : : : : & : 1 1 : # # - - % 1 1 % ",
"C : : < Q / / / 1 o $ 3 3 3 j x n n ,.V k g 7 3 @ , G u   . : : : : : : : : : : : : < : : : : 1 < 1 t 1 : < < < < t 1 % ",
"( A Z Z < . % % o o ; ; + $ 7 0 8 0 v m m v 0 7 > 6 >.[ . : t t t t C t t t t t C t t t C C t t t C Z 1 C C t t t C C % ",
"$.%.$.$.J 1 t t 1 t t t % % + $ $ $ $ $ $ $ $ $ + y .X>.% % C t t t t t t t t t t t t t t t t t t C 1 Z C C t t t t t : ",
">.R.>.%...( ( ( ( ] Z t % % ( { { X.{ X.X.X.X.{ X.{ / A . : 1 / =.o.( ( ( ( ( ( ( ] ( ] ] ] ] ( ( ( ( ( ( ( ( O.=.[ / 1 ",
"P.I.>.&.%.%.%.%.%.%./ C : : =.P.P.P.I.I.P.P.P.P.I.=.: .   % Z [ R.P.:.:.%.:.%.%.%.&.%.:.%.%.%.%.%.%.=.:.%.&.=.P.R.:.$.1 ",
" ./ ..&.%.%.%.$.%.%.$.o.A 1 : : : : : : - : : : : < 1 1   1 o.../ ( :.$.%.%.%.%.%.%.%.$.%.%.%.%.%.%.%.%.%.%.%.( / #.%.1 "
};
