/* XPM */
static char *result[] = {
/* columns rows colors chars-per-pixel */
"60 60 232 2 ",
"   c #171C26",
".  c #181D26",
"X  c #171D29",
"o  c #191E2B",
"O  c #171D33",
"+  c #191E35",
"@  c #201F2F",
"#  c #221E3A",
"$  c #1B212C",
"%  c #172035",
"&  c #192036",
"*  c #1C243B",
"=  c #1E283C",
"-  c #21242F",
";  c #242535",
":  c #232B34",
">  c #22223B",
",  c #22293D",
"<  c #273139",
"1  c #2C343D",
"2  c #1F2841",
"3  c #2C2343",
"4  c #232C44",
"5  c #2A2A42",
"6  c #252E4A",
"7  c #342648",
"8  c #35274A",
"9  c #35294B",
"0  c #3A294D",
"q  c #2A3445",
"w  c #2E3941",
"e  c #25324C",
"r  c #2A364D",
"t  c #323D44",
"y  c #323D4B",
"u  c #3E2750",
"i  c #3E2A51",
"p  c #263553",
"a  c #283653",
"s  c #2B3A55",
"d  c #2A3A5B",
"f  c #3A3B51",
"g  c #2D3E60",
"h  c #442B55",
"j  c #482D57",
"k  c #4A2C56",
"l  c #4C2E5B",
"z  c #4C325C",
"x  c #52325D",
"c  c #58345F",
"v  c #553263",
"b  c #5A3364",
"n  c #5D3769",
"m  c #62366B",
"M  c #67386A",
"N  c #673870",
"B  c #6C3973",
"V  c #753C75",
"C  c #723B79",
"Z  c #7D3F7D",
"A  c #37434B",
"S  c #3B484E",
"D  c #2F415C",
"F  c #384657",
"G  c #3D4A52",
"H  c #32435C",
"J  c #3B4C5B",
"K  c #2F4162",
"L  c #314563",
"P  c #364968",
"I  c #354A6C",
"U  c #3E5066",
"Y  c #3C516D",
"T  c #374B70",
"R  c #3A4F74",
"E  c #3B5174",
"W  c #3E547B",
"Q  c #3E5979",
"!  c #40474D",
"~  c #40484E",
"^  c #434D58",
"/  c #435156",
"(  c #44535B",
")  c #4A565B",
"_  c #4A5B5E",
"`  c #516957",
"'  c #516A58",
"]  c #504F62",
"[  c #475661",
"{  c #4A5A60",
"}  c #495968",
"|  c #515C60",
" . c #535A69",
".. c #415A7C",
"X. c #704F79",
"o. c #4F616A",
"O. c #536165",
"+. c #586467",
"@. c #53646B",
"#. c #58626C",
"$. c #57696E",
"%. c #5D696C",
"&. c #5C7A68",
"*. c #486479",
"=. c #49657A",
"-. c #526673",
";. c #576A70",
":. c #5A6D72",
">. c #5D7176",
",. c #5F7478",
"<. c #626D75",
"1. c #6B607B",
"2. c #647274",
"3. c #627579",
"4. c #687A7C",
"5. c #813E7E",
"6. c #83417D",
"7. c #8D497D",
"8. c #944D7F",
"9. c #7A9D52",
"0. c #76985B",
"q. c #7DA154",
"w. c #6E8E69",
"e. c #6B857A",
"r. c #748D79",
"t. c #7A9377",
"y. c #7A9378",
"u. c #87A955",
"i. c #96B55C",
"p. c #849C78",
"a. c #9EB76C",
"s. c #8DA673",
"d. c #A3BC69",
"f. c #A6BD71",
"g. c #ACC666",
"h. c #ACC569",
"j. c #AFC868",
"k. c #B1CA67",
"l. c #B0C968",
"z. c #ABC076",
"x. c #445D86",
"c. c #455E88",
"v. c #795382",
"b. c #4A6587",
"n. c #4A638B",
"m. c #51668A",
"M. c #52698D",
"N. c #54758B",
"B. c #4C6B93",
"V. c #556C91",
"C. c #586E92",
"Z. c #4F7397",
"A. c #5A7193",
"S. c #52769B",
"D. c #6B7C82",
"F. c #767B84",
"G. c #737391",
"H. c #567EA6",
"J. c #844181",
"K. c #8B4383",
"L. c #944688",
"P. c #98508D",
"I. c #AA548E",
"U. c #AF5690",
"Y. c #907794",
"T. c #6F848D",
"R. c #748385",
"E. c #798687",
"W. c #76868A",
"Q. c #76888A",
"!. c #7C8C8D",
"~. c #778A96",
"^. c #7F9091",
"/. c #5B83A8",
"(. c #5E8BB3",
"). c #7B8DA3",
"_. c #608EB6",
"`. c #618FB8",
"'. c #6696BA",
"]. c #77A5BB",
"[. c #71A3C2",
"{. c #79ADC8",
"}. c #7DB1C9",
"|. c #838D93",
" X c #8F8A99",
".X c #859595",
"XX c #879897",
"oX c #8B9A9A",
"OX c #8796A9",
"+X c #8897AA",
"@X c #979BA1",
"#X c #989CA1",
"$X c #909EAF",
"%X c #8C9BB1",
"&X c #A491A6",
"*X c #94A2A3",
"=X c #99A7B7",
"-X c #92B5B8",
";X c #A5AAAC",
":X c #A2AEBB",
">X c #AAB4B1",
",X c #AAB5BC",
"<X c #B3BBBB",
"1X c #BFCE83",
"2X c #C3D088",
"3X c #CBD493",
"4X c #D0D897",
"5X c #D4DA9C",
"6X c #D5DBA1",
"7X c #82B7CA",
"8X c #84B9CE",
"9X c #91BCC4",
"0X c #86BDD1",
"qX c #88BFD3",
"wX c #AEB9C5",
"eX c #B5BEC2",
"rX c #8CC1D2",
"tX c #98C8D3",
"yX c #B9C2C7",
"uX c #BCC4C5",
"iX c #A9D4D7",
"pX c #B0DBDB",
"aX c #C0C7C7",
"sX c #C3CAC7",
"dX c #C3CBCB",
"fX c #C6CDCB",
"gX c #CCD2CE",
"hX c #D3D9D9",
"jX c #DDE1DC",
"kX c #E5E8D6",
"lX c #DBDFE0",
"zX c #E9EBE5",
/* pixels */
"& & & + & & & & & & & + + h z x x c x k 7 % % & & & & & & & & + & & & % & & & & & & & & & & & & & & & & % & & & & & & & ",
"& & & & & & & & + + * * > Z L.I.U.U.I.8.m > ; & & & & & & & & & & & & + & & & & & & & & & & & & & & & & & + 2 & & & & & ",
"& & & & & & & + + j b 7.8.b x c c c x z M 8.V n 9 % & & & & & & & & & O O & O & & & & & & & & & & + & & % % O + & & & & ",
"+ & & & & & & & + b 5.5.7.v l l l l x k M 8.6.Z i % & & + & & & & & & e L L L 4 + & & & & & & & & & & & & % + + & & & & ",
"+ O & & & + & & & m L.b h N C B V V C C b h B L.h % % % 2 * * * & & + I _.(._.L + & % * * % % % + + & & & + + + & & & & ",
"+ 2 + & & & & & + b Z v.X.C C C C C C Z V 5.Z Z i % % 2 n.S.S.x.* & O K B.B.n.s + & 2 n.n.= % % + O 2 & 2 O % % & & & & ",
"% % % % 2 + & & + i v Z L.5.J.K.J.K.J.X.5.K.B v 5 & % 2 B././.B.* + + s x.x.x.p O & 2 B.S.I D % % % % % O 2 & & & & % % ",
"& % + + O & & & + + + v C K.L.I.I.U.I.K.5.C h + & & % * Q c.x.E * & + d c.x.c.a & & 2 W B.(.Z.* & % + + + % & & & & & $ ",
"& 2 O + & & & & & h n 0 3 3 8 9 0 0 9 8 3 3 j n 9 & & 2 Z.H.n.R & & & d x.x.x.p O % * W B.(.S.& & + + + % & & & & & & & ",
"& + % + & & & & & v C 0 4 9 9 0 0 9 3 3 3 2 v C 0 % & 2 /.[./.B.6 * O P /.S.Z.H 2 * = B./.(.Z.2 2 O % % % % & & & & & & ",
"* * 2 & & & > & & x C l u N C C C C n u 0 9 b C 0 % % 2 ].8X8X].L e O ..0X[._.Q s * 4 ].}.'.Z.* + + & & % % * & * * , , ",
"o.o.o.[ y A t < & z C l u N C C C C n i i u v C 0 % e g /.'.'./.g e % T '.'._.W d 2 2 /.'.`.Z.* % % % + = A 1 1 ) $.4.D.",
">.:.@.$.2.2.2.^ + x C l u N C C B C m u i 0 v C 9 O p K /._./.B.g p 2 T H.H.H.T d 2 e B.H.(.S.2 p =.-.-.J < w A _ | %.2.",
">.-.G %.>X>X>X<.O z B l i N C C X.C m u i i v B 9 % p g S./.n.W g d d T x.c.x.I d d g W n.(.Z.& } iXpXpXD.= 1 A t t : : ",
"/ / S %.>X>X>X<.O 4 3 0 i N C C C C m u i i 7 3 2 + p g x.B.n.W d d d T x.c.x.I d d g ..c.B.W * } rXrXrX9X-XU % : < : : ",
"_ ( S %.>X>X<X%.O e y 5 8 j v z v z l 3 3 3 q D 2 + p g ..x.c.W d d p T c.x.x.I d g g W c.c.R & P {.}.rXrXiX~.*.q & - - ",
",.$.G %.>X>X>X<.= ( $.r & = * & + * * * * & J :.y & p d ..x.c.W d d d I x.x.c.I d d g W c.c.E & H /.].0X0X8XiXiXJ O X . ",
",.$.G %.>X;XoX!.R.^ 4 t S } o.S F o.{ A J @.G 4 e a d d x.c.n.W d d d I c.c.x.P p d d x.c.c.E & = e m.0X0X8XiXiXJ O . . ",
",.$.S +.*X*X.XXXXX:.^ y w ^ J t y ( F t F ( F A P U U U R R R R U U U E E E E Y U U P R R R I A q O *.0X0X0XtXtXJ O X . ",
",.$.S O..XXX.X.X.X.X.XF = = , * * = , = * * [ ,.2.2.,.>.P K K P ,.,.3.} K d L @.3.3.<.P H H P >.[ % *.0X8X8X8X7XH O . . ",
">.$.S _ 2.3.3.3.3.4.4.D.R.R.R.R.R.R.R.R.F.R.Q.^.^.^.^.^.E.W.W.Q.^.^.^.!.W.W.W.!.^.^.^.W.W.W.T.>.[ % *.0X[.'.}.7XH O . . ",
">.$.G ' XXoXoXQ.:.4.D.W.Q.Q.Q.Q.Q.Q.Q.Q.Q.Q.Q.Q.Q.Q.Q.Q.Q.Q.Q.Q.Q.Q.Q.Q.Q.Q.Q.Q.Q.W.Q.Q.Q.Q.R.,.[ O *.0X[.(.}.7XH % . . ",
">.$.S <.sXfXfX*X>.Q.oX4.>.;.;.$.;.;.;.;.;.;.;.;.$.-.$.;.;.;.;.;.$.$.;.;.:.:.;.;.;.;.;.;.:.>.>.>.[ O *.rX[.(.}.7XH O . . ",
">.:.~ %.>XuXgX*X>.oX;XW.;.w : = : : : : : : : : : : : : : : : : = : : : : : : : : : : : q ;.>.>.[ O *.0X[._.{.7XH O X . ",
">.:.G %.>X;X&XY.>.oX>X%.G 4 * = = = = * = * * 2 e r r r r a r r p q , * = = * * = = = = 2 S ( >.[ O *.qX[.(.{.}.H % . . ",
">.@.S %.>X XV 1.2.oX>X! X r d d d d d d g g g g ..M.M.B.M.n.M.M.M.x.g d g d d d d d d d a $ < >.[ & *.rX[.(.{.0XH O . . ",
"/ / S %.eXY.K.X.>.oX>X! X p d p d d d d L W W W OXyXeXeXeXeXyXeXeX$XW W x.P d d d d p d a $ 1 >.[ O *.rX[.`.}.0XH o & & ",
"_ ( S %.<X;XY.F.>.oX>X!   p D ` ` ` _ T M.).).OX+X*X$X$X%X$X$X$X$X%X).OX).M.I _ ` ` ` D p $ $ J U I *.N.b.x.b.N.Q I = & ",
"2.$.G %.>X;X;X|.>.oX>X! $ p F 0.q.q.w.M.OXuXuXuX~.x.b.b.b.b.b.=.b.~.yXuXaXOXn.w.9.q.9.J p % X O L `.x.* = * * 2 Z./.4 & ",
",.$.S %.>X&X6.1.>.oX>X!   p F 9.0.-.T.yX%XC.C.C.p.f.d.a.a.a.f.d.d.p.C.C.C.+XeX~.=.0.9.J p $ X O L `.S.W Q Q Q Q n.b.2 & ",
",.$.S %.>X&X5.X.>.oX>XS   p L &.e.).).$X.Xr.r.r.a.j.l.l.l.j.h.j.k.d.r.r.r..X$X+X).r.w.D p $ $ % e Q n.S.B.c.c.c.I g * % ",
":.$.( &.>X&XP.v.>.oX>XA $ p L n.T.fX:Xn.r.j.j.j.j.j.g.g.g.g.g.g.j.j.j.j.j.r.x.=XgX/.b.K p $ $ , = % I /.B...W W 4 % % $ ",
"G O.*X*X>X>X;X|.<.oX>X!   R m.,XuXzXyXn.e.j.j.j.j.k.i.u.u.u.u.i.g.k.g.k.k.r.c.wXzXdX,XM.E $ w R.#.+ 2 e 4 * = = & % X X ",
"S +.<X<XoXW.1.4.>.@X>X!   R V.uXdX=X=Xr.s.g.j.j.d.i.a.d.f.f.f.d.i.a.j.j.j.s.r.*XwXuXdXA.W $ w .X3.+ s =.Q E *.*.e % . . ",
"S +.sX>X:.^ # F $.oX>X! o E V.uX,Xn.4.h.j.k.j.j.a.u.1X5X5X6X6X1Xi.i.j.j.j.j.h.e.c.,XuXA...& 1 .X<.+ =.rX[._.}.7XH O X . ",
"S +.sX#X5 3 8 3 5 R.>XS o R C.uX,Xb.T.h.j.j.j.j.z.3X4X5XkXkX6X4X3Xz.j.j.j.j.j.e.c.:XuXA.E $ 1 .X3.O =.0X[._.{.7XH O X . ",
"S +.sX#X; 3 v 0 + F.>X! o E C.uX<Xn.4.h.j.j.j.j.3X5X4X6XkXzX6X4X5X3Xj.j.j.j.j.e.c.,XaXA.E o t .X3.O =.0X[._.{.7XH $     ",
"S +.sX#X+ h C j # F.>X! o E C.uX,Xn.e.h.j.j.j.j.1X3X4X5XkXkX6X5X3X2Xj.j.j.j.j.e.c.,XaXA...o 1 .X<.+ =.0X[._.{.}.H O $ $ ",
"S +.sX#X# u V j + F.>X~ X E C.uX,Xn.e.j.j.j.j.j.i.u.2X5X6X6X5X1Xi.i.j.j.j.k.k.e.c.,XaXA.W $ t .X<.O *.rX[._.'._.s % - : ",
"S +.sX#X> h C h + F.>XS X E C.uXsX=XOXt.s.j.j.j.g.i.h.z.z.z.z.z.i.i.j.j.k.s.t..X+XeXaXA.W $ 1 |.3.+ *.8X[.(._./.s % $ - ",
"S +.sX#X# i C j @ F.>X! o R m.,XdXzXyXS.Q.d.h.h.j.g.i.u.u.q.u.i.j.j.h.h.d.y.Z.:XgXaXwXM.R $ t .X3.+ =.qX[.(.(.(.s + . . ",
"S +.sX#X* u C l + F.>X! o a P m.~.fXhXlX:Xb.p.l.k.g.g.g.g.g.g.g.j.k.j.s.b.=XlXgXdX).M.L d o 1 |.<.& =.0X[.(._.(.s + . . ",
"S +.sX#X# i C l 3 ] 1.1 o e H &.e.OX=XjXuX=XXXy.t.t.t.t.t.t.t.t.t.t.r.XX=XuXlX:XOXe.&.H p o t .X<.+ =.rX[._._.(.s + . . ",
"S +.sX@X# i C v u # + o o p H 9.0.=.T.yXgXlX=Xn.M.M.V.M.M.m.V.M.V.M.V.%XlXgXyXT.=.0.9.J p $ 1 !.:.; ..].'.H./.H.a + . . ",
"S +.sX@X# i C v u 3 + o X e F 0.u.q.w.N.C.A.$XuXuXuXuXuXuXuXuXuXuXuXuX*XV.V.V.w.q.u.9.J p o < 2. .0 9 e 4 3 4 5 8 7 o . ",
"S +.sX@X# u C v 0 > # o $ p D ` ' ' O.T W b.A.+XOXOX+X+X+X+XOXOXOXOX$XH.c.Q T O.` ' ' H p o < :. .0 i j l b l k h 8 $ . ",
"S +.sX#X# h V b h 3 + & % e a p p p a p L W ..W W Q W Q W W W W W ......Q L p p s p e p a $ w >. .u v N Z K.V N k 7 $ . ",
"S +.sX@X+ u C B B 0 + e r & $ $ $ o X $ $ % $ & $ % $ % % $ $ $ o & o o % X $ $ $ $ $ $ = o.$.>. .0 u h h k h h h 0 @ . ",
"S +.sX<XF.#.k b C b l n N 4 o + ; | | | | | | | | | | | | | | | | | | | | | | | ' | | { +.F.R.>. .0 l B M b b v h 0 . . ",
"A | eXsXfX|.+ k B C C J.K.u 3 3 h F.|.XXXXXXXXXXXXoX.XXX|.!.|..XXX.X!..XXX.X!..XoX X|. X|..X^.,. .0 b K.V B B B k 7 $ . ",
"$ t .XoX@X<.@ 3 h b C V V 5.K.K.X.> ^ XXXXXXXX.XXX.X.X.X| / / | .XF./ %.XX2./ 4.|.X.V X.v.|.|.,. .i h h h h h i h 7 $   ",
"  < |..X.XR. .j 3 h n N C L.L.L.5.M m ) <..XXXXX.XXXXX.X4.2.2.4..X!.2.R.XXR.2.|.|.G.Y.F.G..X!.2.[ ; 0 b m B n v 7 ; .   ",
"- 1 4.E.R.^.XX#.3 7 8 b B 5.K.K.L.L.V 3 ] E.E.E.E.E.W.E.R.E.E.r.R.R.F.r.R.r.E.R.R.R.E.R.E.E.4.$./ - 0 N V 5.V m < $     ",
"t 1 : : $ ) XX.X|.^ # 0 h h l V 5.L.L.K.m > , 3 5 , > 5 - $ $ $ @ $ - - $ $ o o $ - : : : : : $ : 1 < - @ @ $ - 1 1 $ $ ",
"_ / < : : t ) ) ) w o > 3 0 h l b M B J.B l 0 3 > # f G o   : : : - : : : : : : - : : : : : : < 1 1 1 < : < : < w t $ $ ",
"3.$.S S S 1 $ o o $ $ & # 7 8 8 8 8 h m N N l 0 > >  .3.: . 1 t 1 A t t t A t t A t A A t A t A A A t t A t t t A 1 $ $ ",
":.>.:.:.:._ w t t w t t t - o # # # # # # # # # # # 4.|.1 $ 1 A A 1 A t t t t t A t t t t y t t 1 t t t t t t t t t < : ",
">.3.W.D.>.$._ _ ) { { A t $ - |  . . .%.#.#.#.#. .#.) / $ $ 1 / 2.%._ _ _ _ { { _ _ { { { { { { ' { { { { _ #.3.O.( 1 < ",
">.4.E.R.>.>.>.>.>.,.:.( A - : 4.E.E.E.E.R.E.R.R.E.R.t . . $ A ) Q.R.2.2.>.>.,.>.,.3.3.>.,.:.,.,.,.3.3.>.>.3.R.!.4.:.1 < ",
">.$.( _ >.>.>.>.>.>.>.:.$.A t : - : : - : - : : - : 1 1 $ - O.$./ _ >.>.>.>.>.>.:.:.>.>.,.,.:.,.:.:.3.:.>.>.{ ( $.;.1 < "
};
