/* XPM */
static char *result[] = {
/* columns rows colors chars-per-pixel */
"60 60 228 2 ",
"   c #12151F",
".  c #141721",
"X  c #161C26",
"o  c #181E27",
"O  c #191E2B",
"+  c #191E34",
"@  c #191E35",
"#  c #221E39",
"$  c #1B222C",
"%  c #192036",
"&  c #1C243A",
"*  c #1E283B",
"=  c #20272E",
"-  c #232534",
";  c #232B33",
":  c #23243C",
">  c #2B233D",
",  c #242C3A",
"<  c #273039",
"1  c #2C353D",
"2  c #2E383F",
"3  c #1F2841",
"4  c #2C2443",
"5  c #232E44",
"6  c #262D48",
"7  c #322648",
"8  c #35264A",
"9  c #3B274E",
"0  c #3C294F",
"q  c #253146",
"w  c #2C3645",
"e  c #25324C",
"r  c #2B364A",
"t  c #333E45",
"y  c #36364D",
"u  c #333D4B",
"i  c #3E2950",
"p  c #283753",
"a  c #2A3A5B",
"s  c #353E52",
"d  c #2E3F62",
"f  c #412C4F",
"g  c #422B54",
"h  c #482D57",
"j  c #4C2F5B",
"k  c #512F5E",
"l  c #473459",
"z  c #54325F",
"x  c #443A64",
"c  c #543262",
"v  c #5B3464",
"b  c #5D3469",
"n  c #63366D",
"m  c #673868",
"M  c #673871",
"N  c #6C3973",
"B  c #723B73",
"V  c #793D77",
"C  c #723B79",
"Z  c #7A3E7B",
"A  c #344047",
"S  c #364249",
"D  c #3A454D",
"F  c #3B484D",
"G  c #3E4B51",
"H  c #36465A",
"J  c #36485D",
"K  c #2F4063",
"L  c #314363",
"P  c #394B64",
"I  c #33466B",
"U  c #364A6C",
"Y  c #384D6E",
"T  c #3B516B",
"R  c #384D73",
"E  c #3C5375",
"W  c #3D547A",
"Q  c #3E5A7A",
"!  c #41494D",
"~  c #424C57",
"^  c #47565A",
"/  c #44535C",
"(  c #4B545A",
")  c #52655F",
"_  c #4C4F60",
"`  c #4B5A62",
"'  c #485865",
"]  c #525C65",
"[  c #425B7B",
"{  c #794178",
"}  c #70587B",
"|  c #4D616C",
" . c #566366",
".. c #566866",
"X. c #5A6669",
"o. c #56696E",
"O. c #5E6A6D",
"+. c #556872",
"@. c #5A6D73",
"#. c #5D7176",
"$. c #5F767B",
"%. c #616C6F",
"&. c #647860",
"*. c #616D72",
"=. c #666F78",
"-. c #667477",
";. c #64777B",
":. c #6A747B",
">. c #6A7B7E",
",. c #813E7F",
"<. c #87447E",
"1. c #758D6E",
"2. c #6E8570",
"3. c #6B847B",
"4. c #738C79",
"5. c #7D9678",
"6. c #96AE67",
"7. c #9DB66D",
"8. c #8BA473",
"9. c #96AF71",
"0. c #A3BC6C",
"q. c #AEC867",
"w. c #A7C06A",
"e. c #ABC469",
"r. c #AFC868",
"t. c #B2CB67",
"y. c #B1C96A",
"u. c #BBCE79",
"i. c #BFD07F",
"p. c #3F5780",
"a. c #435C85",
"s. c #485E84",
"d. c #455F88",
"f. c #4C6485",
"g. c #486688",
"h. c #4C658C",
"j. c #536B89",
"k. c #577386",
"l. c #4C6C93",
"z. c #4F6F98",
"x. c #566D91",
"c. c #4E7298",
"v. c #547699",
"b. c #6D7E85",
"n. c #657C8B",
"m. c #777786",
"M. c #617697",
"N. c #667A98",
"B. c #567CA4",
"V. c #844181",
"C. c #8C4384",
"Z. c #944986",
"A. c #944689",
"S. c #9D5189",
"D. c #A5528B",
"F. c #817A8E",
"G. c #A0749B",
"H. c #5D8298",
"J. c #748385",
"K. c #758789",
"L. c #7B8C8D",
"P. c #788E8C",
"I. c #6C809C",
"U. c #62889D",
"Y. c #7C8D94",
"T. c #72859E",
"R. c #5A84AB",
"E. c #5E8BB3",
"W. c #7588A2",
"Q. c #7C8DA4",
"!. c #6993AC",
"~. c #7E96A4",
"^. c #608EB6",
"/. c #618FB8",
"(. c #6794B6",
"). c #6392B9",
"_. c #6A9ABD",
"`. c #79A7B9",
"'. c #78A8BC",
"]. c #6E9FC0",
"[. c #75A7C2",
"{. c #77AAC6",
"}. c #848A92",
"|. c #878F92",
" X c #849494",
".X c #889697",
"XX c #879897",
"oX c #889898",
"OX c #94A09F",
"+X c #8797A9",
"@X c #9697A8",
"#X c #A696A8",
"$X c #9CA2A5",
"%X c #97A5AA",
"&X c #97A4B3",
"*X c #8FB2B7",
"=X c #A5ADAC",
"-X c #A8B2AF",
";X c #A4ADB6",
":X c #ACB6B3",
">X c #AAB5BB",
",X c #B2BBBE",
"<X c #C4D285",
"1X c #CED794",
"2X c #D1D897",
"3X c #D3D99A",
"4X c #D7DDA7",
"5X c #80B5CD",
"6X c #83B9CF",
"7X c #86BCD1",
"8X c #ACB6C1",
"9X c #B2BCC1",
"0X c #B2BBC8",
"qX c #8BC1D3",
"wX c #93C5D2",
"eX c #BCC3C4",
"rX c #BAC3C9",
"tX c #A9D4D7",
"yX c #B3DEDD",
"uX c #C2C9C6",
"iX c #C2C9C9",
"pX c #C5CBCA",
"aX c #CCD1CD",
"sX c #CAD1D3",
"dX c #D4D9D7",
"fX c #DEE2D2",
"gX c #E3E7D0",
"hX c #E6E9E4",
/* pixels */
"% % % % % % % % % % % % % h z m m { v z f % % % % % % % % % % % % % % % % % % % % % % % % % % % % % % % % % % % % % % % ",
"% % % % % @ % % % & : : > B Z.D.D.D.D.<.B < > : % % % % % % % % % % % % % % % % % % % % % % % % % % % % % % % % % % % % ",
"% % % % % % % % % g M <.S.z l k z z z f v D.<.n g % % % % % % % % % % % % % % % % % % % % % % % % % % % % % % % % % % % ",
"% % % % % % % % % z V.{ { m z z z z z z v { <.V.v % % % % % % % % % % % % % % % % % % % % % % % % % % % % % % % % % % % ",
"% % % % % % % % % v Z.b g M C C B B C C M g n A.z % % % % % % % % % % % % % % % % % % * 5 & % % % % % % % % % % % % % % ",
"% % % % % % % % % k C V.C.C C C B B C N V C.V.C l % % % + % % + % % % % % @ % % % % % E R.K % O % % % % % % % % % % % % ",
"% @ % % % % % % % 7 g N V.V.V.Z.S.Z.Z.<.V.V.N i 7 % % % L Q Q E 3 % % 3 E Q Q K % % % U B.a.E q % % % % % % % % % % % % ",
"% % % % % % % % % & : k n Z V.Z.S.S.S.<.Z n k 4 & % % % g.E.R.R.e @ % q R.E.E.g.% % % K a.R.^.K % % % % % % % % % % % % ",
"% % % % % % % % % g M i 3 : : 4 4 4 : 5 4 3 0 N g % % % U g.g.a.5 % % 5 d.g.g.U % % % L a.B.E.K % % % % % % % % % % % % ",
"% % % % % @ % % % j C g 4 i j j h j g 7 4 4 g C j % % % Q B.h.p.3 % % 3 p.d.g.I % % % [ (.!.E.a + % % % % % % % % % % % ",
"% % % % % % % % % j C c 9 M C C C C M i 9 9 j C j % % % g._.B.h.e * % 5 l.l.l.E * & % k.qX_.E.H + % % % % % % % % % % % ",
"% % % % % % % @ % l C j 9 n C C C C M i 0 0 k C j % % % H.7X6X{.R p % p [.{.E.l.a 5 % k.qX_.E.a + % % % % & % % % % % % ",
"' J / G r w w , @ l C j i M C C C C M i 0 0 j C j @ 3 e v.].[._.R p % p ).]./.c.a e @ a.[.).E.K + + % + * G / / P ^ G S ",
"#.-.@.o. . . .D @ j C k 9 n C C N C M i i i j C j @ e a c.E.E.B.I p 3 p R.R.R.l.a e * Q R.E.E.a % p G H J | | | o.o.^ ! ",
"#.o.G X.=X-X-X-.@ h C j 9 M C C C C M i 9 i j C l @ e a c.E.l.a.K a p K a.d.d.W a a p R g.B.E.a * *XtXtX*Xw , A A S 2 ; ",
"^ ^ F X.-X:X:X:.@ 5 8 9 i M C C C C M g i 9 9 8 6 @ 3 a a.z.g.a.K a a K a.d.d.E a a a R d.l.z.p * `.wXwXwX~.J.* ; < < ; ",
"^ ^ F X.:X:X:X:.% , w 4 8 k b b b b c 0 8 8 7 e , % 3 a W d.a.a.L a a d a.d.d.W a a a R d.a.a.e * (.{.qXqXtX*XT S * $ $ ",
"@.o.G X.-X:X:X-.% J @.u % & & & & @ & % % % A @.J % 5 a W a.d.a.K a a d a.d.d.E a a a R d.d.a.e * H._.{.qXqXwXtX~.& % X ",
"#.o.F X.-X=XOXL.;./ r u u / ' S u ' ' u D ' J r r e p a W d.g.a.a a a K a.d.d.W p a a R a.d.a.e % K T '.qX{.qXyX~.* O X ",
"#.o.! ..%X%X XXXoXO.u S u / ' F S ' ^ u F ` / w H P P L R W W W U P P P E W W R P P P Y W W W s q O q '.qXqXqXtX~.% + X ",
"#.o.G  . X.X X X X X XJ % & & & & & & & & & u #.#.#.#.#.Y a d a +.@.#.+.L a a T @.@.#.' a d a +.@.q q '.qX6X6XqXU.% $ X ",
"$.o.F ^ ;.>.>.>.b.;.>.>.>.-.>.:.:.:.:.>.:.:.J.P.L.L.L.L.J.b.b.J.L.L.Y.L.J.b.b.J.L.Y.Y.J.b.b.b.#.@., q '.6X_.[.qXU.$ O X ",
"#.o.G ` L.Y.L.J.#.-.>.K.P.L.L.P.P.L.L.L.P.L.L.L.L.L.L.L.L.L.Y.L.P.L.L.L.L.L.L.L.L.L.L.L.L.Y.L.>.o.5 q '.7X)._.7XR.% O o ",
"#.@.! %.uXpXaX%X#.K..Xb.#.#.@.@.#.@.@.@.#.@.#.o.@.#.@.@.@.@.@.@.@.@.@.@.@.@.@.@.@.@.@.@.@.@.#.#.@.5 q '.{.^._.qXU.% O o ",
"#.@.G O.:XeXaX$X@. X=XK.#.S < < < < < < < < < , < , < < < , < < 1 , < < < < < < < < < < < ` $.$.@.q q '.{.)._.qXU.% + X ",
"#.o.G X.-X-X#X|.#..X:X-.~ q & & * & & % * & & & , q q e w e w q q q * & * & & & * & * & * F G o.@.< q '.6X)._.qXU.% O X ",
"#.o.F X.=X@XC } #..X:X( X e a a a a a a a d a a E h.h.h.h.h.h.h.h.d.L a a a a a a a a p a * X ` @.q q '.{.).).qXU.% $ $ ",
"/ G F X.=X#XA.} #..X:X( X e a a a a a a K W W W I.9X,X9X,X9X9X,X0X;Xf.W [ R a a a p a a a * X ' @.5 5 '.qX)._.qXU.% O % ",
"` ( D X.-X#XG.F.#..X:X( X e a ) &.&...U [  XQ.Q.+X&X&X&X&X&X&X&X&X&X~.Q.~.I.Y T ..&.&.P a & X H P P E k.v.a.g.H.j.U p % ",
"#.+.! X.-X-X-X|.@..X:X( X e J 6.e.w.9.j.I.uXiXiX+Xf.f.f.f.f.f.[ f.x.>XuXeX;Xl.3.w.e.q.2.a & X O * B.R.e * * % % L E.[ % ",
"#.@.! X.=X@XV.=.#..X:X( X e H 6.w.;.n.,X&Xv.x.x.P.7.7.7.7.7.7.7.7.9.n.x.x.T.eX%X$.5.t.2.a & o O * H.E.p.W W Q E a.l.I + ",
"#.o.! X.=X#X,.} #..X:X( X e L 2.5.~.+X+X+X4.4.4.6.t.r.t.r.t.t.t.t.e.5.4.1.P.+X+X~.P.1.) a * o % % R a.c.c.g.d.g.W L e % ",
"@.o.^ %.-X#XS.Z.#.XX:X( X e L f.M.iXrXh.k.y.r.t.r.r.r.r.t.q.q.q.y.r.y.t.t.6.g.I.sX&Xh.E d & O - , % 5 v.B.a.Q p.I % + % ",
"~  .OX%X:X:X;X}.#.XX-X( X I d.;XiXhXsXh.;.e.r.r.r.r.r.r.q.q.q.q.q.q.r.r.q.9.a.Q.hXdXeXT.a.5 O O.K.w @ 3 3 3 * * & % % X ",
"! ) ,X:X.XK.=.=.#..X:X( X Y h.9XiX&X&X5.8.e.r.r.r.r.u.i.i.i.i.<Xy.y.r.r.t.0.5. X&X0XaX+Xa.r $ -. Xw 3 | g.Q Q j.T % O X ",
"D X.uX:X+.~ @ s o. X:X( o Y h.,XeXj.j.e.r.r.r.r.y.y.<X3X4X4X3X3Xu.y.r.r.q.q.t.8.d.Q.aX+Xa.e $ -.Y.r e '.6X)._.qXU.% O X ",
"F  .uX$X> 4 9 4 # :.:X( o Y h.9XeXx.k.0.r.r.r.r.i.1X1X3XgXhX4X3X1X1Xy.y.y.y.t.8.a.Q.aX+Xa.e $ -.Y.w q '.{.)._.qXU.& O X ",
"F  .uX$X# 7 v i # :.:X( o U h.9XeXx.#.0.r.r.r.r.i.3X3X3XgXhX4X3X3X1Xy.y.y.e.t.8.a.Q.aXQ.a.e $ -. Xu 5 '.7X)._.qXU.& o X ",
"F  .uX$X- 9 C j # =.:X( X Y h.9XeXl.k.w.r.r.r.r.u.1X2X3XgXgX4X2X1X<Xy.y.y.r.t.8.a.Q.aX+Xa.e X -.Y.w q '.5X)._.{.H.% $ $ ",
"F  .uX=X# 9 C j # =.:X( o Y h.,XeXj.k.w.r.r.r.r.r.y.<X3X2X3X4X2Xu.e.y.y.r.r.t.8.d.Q.aX+Xa.w $ -. Xr 5 '.5X)./.).l.% % ; ",
"F X.uX$X# 9 C j @ =.:X( o Y j.9XpX8X&XK.5.q.r.r.r.r.u.u.i.u.i.u.r.r.q.q.y.7.4.Y.&X>XaX+Xa.r o -.Y.w 5 '.5X)./.).h.+ + O ",
"F ] uX$X: 9 C j # =.:X( o P s.&XeXhXdXI.K.7.w.r.r.q.q.q.q.q.q.q.r.q.q.e.7.8.N.+XaXeX,XT.W q O -. Xt q '.5X).E.).g.& O X ",
"F X.iX$X@ i C j # =.:X( X p d s.v.eXaXhXrXh.3.r.r.r.r.r.r.r.r.r.r.r.q.7.j.T.fXdXaX&Xh.E a * O -.Y.w q '.5X)././.l.% O X ",
"F ] iX$X: 9 C c 4 l ] > X e a 1.8.T.+XdXsX0X%X3.3.3.3.3.3.3.3.3.3.3.3.P.8XrXdXrXW.P.8...a * $ -. Xr 5 '.5X).).).g.% O X ",
"F  .uX$X# 9 C v 9 > @ O X e H 6.w.;.J.;X8XsX>XM.v.N.M.M.M.M.M.M.M.v.N.W.pXpX8X+X$.1.q.2.a & $ O.K.y 6 U.!.v.c.v.[ : % X ",
"F  .uX$X: 9 C v 9 4 # O O e H 6.q.e.9.g.h.g.W.iXuXuXiXuXiXuXiXuXiXiXpX>Xl.h.h.J.e.q.q.2.a & $ ` =.s 9 4 : : : : 4 0 > X ",
"D X.uX$X# 9 C v i 4 + O o e a ` .... .I R a.x.T.W.T.T.T.T.T.T.T.T.T.T.N.h.Q U T ) ) ..G a * X ^ @.l i k v N M v j 0 > X ",
"D  .uX$X# 9 C b j 9 8 : & 6 e e e e 5 e a U U U U Y U U U U U U U Y Y Y U P e e e e e e e q 2 ` @.l g b N Z V n v f > X ",
"F  .rX$X4 9 C N N C N x a : O o O o $ $ $ O $ $ $ $ $ $ $ $ $ $ $ $ $ $ $ $ $ $ $ $ O $ O / #.#.@.l 9 g g i g 9 g 9 > X ",
"F X.0X4X$Xm.8 k C C C C { B m > + O > *.;.-.-.-.=.=.-.-.-.-.-.-.-.-.-.-.-.-.-.-.-.=.-.-.;.J.K.;.@.s g B V n n n c f > X ",
"2 ( :X,X,X}.@ i n N C ,.C.A.A.k f 9 g =.b.oX.XXXoXoXoXoXL.J.J.J..X.XK.K.XX XJ.K.oX}.F.F.m.|.oXb.@.l g B B n n n z 9 > X ",
"X 1 |.XXoX=.# 4 9 v N C C C.A.A.C.Z n # s L. X XoX X.X XX.~ F ^ K.L.( ( |.J.~ ...Xm.{ { { m..Xb.@.l 9 i g g i i f f > X ",
"X 1  XoXoX}.>._ # 9 j n Z C.A.A.A.C.,.b z y ] oXoXoXoX X}.J.J.K. XXXK.K.XX XJ.L.oX X}.F.}. XXXJ.@.1 # m N ,.V M j = $ X ",
"$ 1 X.O.%.>.oX:.~ y 7 j n B V V.C.A.A.,.B h _ *.*.*.=.*.%.%.%.%.O.%.%.O.X.O.O.%.X.%.%.%.%.%.o.^ ~ < = j z m m z f $ $ o ",
"S t $ o X !  XL.|.( @ 4 9 9 i n C C.C.A.A.A.m # # # : : X   . .   . . . . . . . . X O $ O o $ $ $ 2 t O o O X o ; A ; X ",
"o.` t 1 1 1 2 2 w - X # : 8 g g h k v Z Z Z m 9 4 + u ` 1 . ; 2 1 1 1 1 1 1 1 1 1 1 1 1 1 1 1 1 2 t t 2 2 1 2 2 w t < X ",
"#.o.^ / / S $ ; $ ; ; , , 4 > 7 7 4 8 j c j h 4 4 @ _ J.S X 1 t t A 2 A A t t A t A t A t t t A t t t t t t t t t t 1 $ ",
"#.#.;.#.$.` D S S S S A A $ $ - # 4 4 : : : : 4 : : ] P.D X 1 t S D A D S S A A A A S S S A S S S S S S A A S D S S 1 ; ",
"#.;.L.K.#.#.o...o.o.o.G A $ $ -.J.J.b.J.J.J.J.J.J.K.` 1 = o 1 A >.J.O.X.o.o.o.o...o...o.o.o...o.o.o.X.o.o.o.-.K.3.o.~ < ",
"#.;.>.:.#.#.#.#.#.#.#.` G < ;  .*.*.%.*.*.O.*.%.%.%.! % o o A ^ -.>.;.#.#.#.#.#.#.;.#.#.#.#.$.#.#.#.#.#.#.#.-.>.>.$.^ ; "
};
