/* XPM */
static char *result[] = {
/* columns rows colors chars-per-pixel */
"60 60 227 2 ",
"   c #11151F",
".  c #171C25",
"X  c #181D26",
"o  c #171D29",
"O  c #191E2A",
"+  c #171D33",
"@  c #191E35",
"#  c #1F1F38",
"$  c #221E3A",
"%  c #1D242D",
"&  c #192136",
"*  c #1E2836",
"=  c #1C243A",
"-  c #1D273B",
";  c #222132",
":  c #232B33",
">  c #22223B",
",  c #2C2638",
"<  c #2D263E",
"1  c #212C3F",
"2  c #283037",
"3  c #273039",
"4  c #2B343D",
"5  c #31373F",
"6  c #31383F",
"7  c #1F2942",
"8  c #2C2342",
"9  c #212C44",
"0  c #232E48",
"q  c #312546",
"w  c #342549",
"e  c #352A4B",
"r  c #382849",
"t  c #3B294E",
"y  c #253145",
"u  c #2D3646",
"i  c #2E3841",
"p  c #25324E",
"a  c #333D44",
"s  c #33324B",
"d  c #333D4A",
"f  c #3E2B51",
"g  c #263452",
"h  c #283754",
"j  c #2A3956",
"k  c #2B3B5B",
"l  c #393E51",
"z  c #2D3E60",
"x  c #42284E",
"c  c #422B54",
"v  c #4B2E5B",
"b  c #4D325C",
"n  c #52315D",
"m  c #5B385E",
"M  c #473A64",
"N  c #543162",
"B  c #5C3466",
"V  c #64366D",
"C  c #653969",
"Z  c #673870",
"A  c #6E3A75",
"S  c #743B75",
"D  c #723B79",
"F  c #7C3E7D",
"G  c #384147",
"H  c #354249",
"J  c #3A434A",
"K  c #3B484D",
"L  c #2F425E",
"P  c #3C4253",
"I  c #3E4C52",
"U  c #35455A",
"Y  c #3C505D",
"T  c #2E4062",
"R  c #324563",
"E  c #3A4D64",
"W  c #354968",
"Q  c #3C5166",
"!  c #374B70",
"~  c #3A4E72",
"^  c #3B5174",
"/  c #3D547B",
"(  c #3F5978",
")  c #434C52",
"_  c #434A5A",
"`  c #43535A",
"'  c #465759",
"]  c #5D7959",
"[  c #544664",
"{  c #4D5C63",
"}  c #4A5966",
"|  c #535D65",
" . c #445D72",
".. c #41597E",
"X. c #495C7C",
"o. c #73527A",
"O. c #4F606A",
"+. c #546166",
"@. c #586367",
"#. c #576768",
"$. c #54646B",
"%. c #57696E",
"&. c #5C696C",
"*. c #4D6574",
"=. c #546974",
"-. c #5A6E73",
";. c #5D7176",
":. c #5A757A",
">. c #5E7479",
",. c #666D77",
"<. c #647275",
"1. c #66767B",
"2. c #667B7C",
"3. c #803F7D",
"4. c #85437D",
"5. c #678554",
"6. c #759758",
"7. c #7EA252",
"8. c #698866",
"9. c #6C857C",
"0. c #758F73",
"q. c #82A552",
"w. c #8CAD57",
"e. c #95B45B",
"r. c #829B75",
"t. c #96AF6F",
"y. c #9BB667",
"u. c #8EA772",
"i. c #8AA279",
"p. c #94AD70",
"a. c #A1BC65",
"s. c #A6C162",
"d. c #ADC667",
"f. c #ADC668",
"g. c #AFC868",
"h. c #B1CA67",
"j. c #B0C968",
"k. c #B1C578",
"l. c #3F5780",
"z. c #445D85",
"x. c #4A5F84",
"c. c #455F88",
"v. c #795781",
"b. c #4A6386",
"n. c #466388",
"m. c #4A638A",
"M. c #546B8E",
"N. c #4B6A92",
"B. c #546B90",
"V. c #4F7198",
"C. c #557899",
"Z. c #7D6D88",
"A. c #627B81",
"S. c #6C7C80",
"D. c #727780",
"F. c #707E83",
"G. c #647898",
"H. c #687D9A",
"J. c #577EA5",
"K. c #824080",
"L. c #8B4483",
"P. c #944787",
"I. c #AA548E",
"U. c #AF5690",
"Y. c #9E6B98",
"T. c #6C8185",
"R. c #778387",
"E. c #728389",
"W. c #7A8B8D",
"Q. c #6B839D",
"!. c #73869E",
"~. c #7C9390",
"^. c #5A83A9",
"/. c #5F8CB4",
"(. c #7788A3",
"). c #7291A7",
"_. c #608EB6",
"`. c #618FB8",
"'. c #6797BB",
"]. c #73A5C3",
"[. c #77AAC6",
"{. c #79ACC7",
"}. c #7CB1CA",
"|. c #838B92",
" X c #839394",
".X c #8F9395",
"XX c #899696",
"oX c #8B999A",
"OX c #9F89A1",
"+X c #8999A9",
"@X c #9A9EA3",
"#X c #9699A8",
"$X c #A898AA",
"%X c #97A4A4",
"&X c #98A6B4",
"*X c #9FABB6",
"=X c #91B3B7",
"-X c #A5AFAD",
";X c #A6ADB4",
":X c #A3AEB8",
">X c #AAB4B1",
",X c #ACB6B6",
"<X c #AAB4BC",
"1X c #BACA83",
"2X c #C6D389",
"3X c #C9D391",
"4X c #D0D897",
"5X c #D3D99A",
"6X c #D7DDA7",
"7X c #86B8CA",
"8X c #85BACE",
"9X c #90BCC7",
"0X c #86BCD0",
"qX c #A5B1C0",
"wX c #B3BCC1",
"eX c #89C0D3",
"rX c #95C7D4",
"tX c #BAC2C3",
"yX c #BCC4CB",
"uX c #ACD7D8",
"iX c #C3C9C6",
"pX c #C5CCCA",
"aX c #C9CFCC",
"sX c #CBD1CE",
"dX c #CCD2D4",
"fX c #E3E7D1",
"gX c #E6E9E4",
/* pixels */
"& & & @ & @ & & & & & @ & c n m m m m b x & & & & & & & + & & & & & @ & & @ + & & & + & & & & & & & + & & + 7 + @ & & & ",
"& @ & & & & @ & & = = = 8 S P.I.U.U.I.P.Z : > & & @ & @ & & & @ & & & & & & & & & & & & & & & & & & + + & & @ + & & & @ ",
"& & & & & & & & & f B 4.P.m n n n n b v C P.S V e & & & @ & & & & + & + @ + + & & + & @ & & & & + & & 7 + + & & & & & & ",
"& @ & @ @ & @ & & B K.K.4.B b b n n n v C 4.L.K.v + & & & & & @ & & & 0 W W W p & & & & & + & & & & & + + 7 + & & + & @ ",
"& & & & & @ 7 + @ B P.B x Z D D A S D D V f Z P.v + & & 7 7 = = & & + L /././.^ + & & = = & & & & & & & & & & @ & & @ & ",
"& & & & & & @ + @ N F K.3.D D A A S S S F 3.F F f + & = z.C.V.N.7 @ + j N.N.N.L @ & = c.V.0 + & & & & & & & & & & @ & & ",
"& & & & @ & & & @ t N S L.K.v.L.L.L.L.o.3.L.A v e & & = n.^.^.V.7 @ + g z.z.c.k @ @ 7 n.^.^ T & & & & & & + & + & & + & ",
"+ & & & & & & @ @ # # N D L.P.I.U.I.I.L.K.A v # & & & = ^ n.c./ - & @ g z.z.n.k & & + ! n.^.^.7 + & & & & + + 7 & & & * ",
"& & + & & @ & @ & c B f 8 e q r t e e 8 q 8 f V e & & & N.^.n./ = + & g z.z.n.k & & & ~ n.^.^.7 + & & + & & & & & & & & ",
"& & & & & & & & & b D f > e e e e e e 8 $ 7 v D f & + 7 ^.'.^.V.p 7 + L J.C.V.W 7 = = n.^./.^.7 & & & & & & & @ & @ & @ ",
"= = 7 & & & & & @ b D v f V D D D D V f f t N D f + & 7 ).eXeX].W g & ! 8X]./.z.h 7 = ).0X'.J.7 + + & & & & & & = = - 7 ",
"} |  .Q H G d 4 @ b D v f V D D D D V f t t N D f 7 7 k ^.'.'./.T g & R '.'.`.n.k 7 = C.'.`.^.0 & + + + = i i i ` | 1.S.",
">.;.$.%.<.<.<.) @ b D v c V D D D D V f t t N D f & p z C./.^.V.z g 7 T J.J.J.l.h p 7 n.J./.J.7 0 ..%.=.` y a a ` | &.<.",
";.%.K &.-X>X>X,.+ b A v c V D A S D V f f f b D f + p z C./.N.( z k k W z.z.c.! k k k l.m.^.J.7 Y rXuXuX~.= y a H u 2 : ",
"` ` K &.>X>X,X,.+ 9 8 e c Z D D D D V f f f e 8 7 @ p k z.N.n.l.z k k W z.c.z.! k k k l.c.N.z.7 l 7XrXeX9X=X*.* : 2 : : ",
"' ' K &.-X>X,X,.@ 0 j q q v N N N b v w 8 8 s d 7 @ g k / z.c.l.k k k W z.c.z.! k k k / c.c./ = j ].}.8XrXuX).*.d & % % ",
">.%.K &.>X,X,X,.@ ` -.u & & = = = = = & & & P -.H & p k / z.z.z.z k k W z.z.c.! k k k / c.c./ = p ^.'.8X0X0XrXuX=.+ O . ",
">.%.I &.>X-XoXW.S.` y d H { } P P } } H I O.Y y p g k k z.z.z.z.k k k W z.z.c.! k k k / c.n.l.7 = h  .8X0X0XuXuX=.+ O . ",
";.%.K #.%X%XXXXXoX=.P H H Y ` H d } ` i P } Y u U Q E Q ~ / ~ ~ Q W E Q / ~ / ! E E W ~ ^ / ~ H u & E 7X0X0XrXuX*.+ O . ",
">.%.K +. X X X X X X XI = = > = = - = - - = P 1.;.;.;.;.E z z R -.1.;.*.z z z } 1.;.,.E k z R =.O.& W 8X0X0X0X0X .+ O . ",
";.%.K ' 2.2.1.2.S.2.A.D.2.S.S.S.2.D.S.S.S.2.R.W.W.~.W.W.F.F.E.E.W.~.W.E.E.T.E.E.W.W.W.E.E.E.T.1.O.& E 8X{.'.[.0X .+ O o ",
">.%.K +. X~.~.T.-.1.S.E.W.W.W.W.W.W.W.W.W.W.W.W.W.W.W.W.W.W.W.W.W.W.W.W.W.W.W.W.W.W.W.W.W.W.E.1.O.& E 8X[./.].0X .@ O . ",
">.%.K <.iXaXaX%X-.W.XXS.;.;.-.;.;.-.-.-.-.-.-.-.;.-.-.-.-.-.;.=.-.-.-.-.-.-.-.-.-.-.-.-.-.;.;.;.O.* E 8X[._.].0X .+ o . ",
">.%.) &.,XtXsX%X-. X-XE.%.H 2 3 3 3 3 3 3 3 3 3 3 3 3 : 4 3 3 3 3 3 3 3 3 3 3 3 3 3 3 3 i $.;.>.O.& E 8X[._.].0X .+ O . ",
";.#.K &.>X-X$X|.;.oX>X<.` 3 & & = * & = = = = & 9 y 0 y y y 0 y y y = - * = & * - - * * * I ' -.O.& E 8X[./.].0X .+ o . ",
";.%.I &.>XOXD o.;.oX>X) O g k k k k k k k k k k ^ m.m.m.m.b.m.m.n.z.k k k k k k h k h k k % * %.O.& Y 8X[./.].0X .& O . ",
"' ) K &.>XOXL.o.;.oX>X) o g k k k h k k R / / / (.<X<X<X<X<X<X<XqX#X( / / W k k k k L h j & * %.O.& E 8X[./.[.eX .+ & + ",
"' ` K &.>X$XY.Z.-.oX>X) . g k ' ' ' Y W X.!.(.H.+X:X:X:X:X*X*X:X*X&X(.!.!.M.W E ' Y ' L h % % Y } L ( Q.^.*.^.^. .L - & ",
";.%.I &.>X>X-X X;.oX>X) . g d 6.7.7.6.n.!.iXiXpX(.b.b.b.b.b.b.b.m.H.tXiXaX#Xz.9.7.7.7.Y h & o + g ^.N.- % - - & b./.k + ",
">.%.K &.>X#XL.,.-.oX>X) . p U 6.7.:.T.<X&XC.G.G. Xt.t.p.p.p.t.t.t.i.H.G.G.).<X~.:.6.7.' h % o + h /.^.! ! ~ ~ ~ c.N.h & ",
";.%.I &.-XOXo.o.;.oX>X) . g U 8.0.Q.).*XoX9.2.9.t.h.j.j.j.j.j.j.h.y.9.T.2.~.*X+XQ.8.8.Y h & o + 9 n.N.V.N.n.n.c.^ W 9 @ ",
";.%.) &.-X$XP.v.-.oX>XI . g T X.C.yXqXn.9.d.d.d.d.h.g.d.d.g.d.g.f.f.f.g.j.r.n.+XsX).n.W h % o - - & L /.C.z.l.z.j & @ + ",
"' +.XX%X,X;X$X|.-.oX>X) X R x.&XwXgXwXm.S.g.g.g.g.g.e.w.w.w.w.w.d.h.j.j.h.r.z.&XgXyX:XB.^ * ; <.%.= - h p 0 0 0 = & O o ",
"K | ,X>X@X.XW.D.;.oX>X) O  .B.wXdXwXqXS.0.g.g.g.f.y.y.y.y.y.y.y.e.s.d.j.j.u.2.%XyXpXaXH.l.- : W.E.> 0 Q E L E Q p + O . ",
") @.iX>X;.` $ P -.oX,X) .  .B.wXwXB.A.f.j.j.j.g.e.w.k.5X4X4X5X2Xw.w.d.j.g.g.j.W.c.&XpXH...* : W.F.& E 8X]._.].8X .+ O . ",
"K @.iX%Xu s w w u F.>X) . ..B.wXwXm.A.g.j.j.j.g.k.1X4X5XfXfX6X4X2X1Xj.f.d.j.h.0.c.&XaXH...* 2 W.F.* E 8X{._.].8X .+ O . ",
"K @.iX@X$ < v r $ D.>X) O ! B.wXwXm.A.a.g.g.g.g.2X5X5X5XfXgX6X4X5X3Xj.g.g.g.j.0.z.&XpXH.z.* : W.F.& E 8X[._.].0X .+ O . ",
"K @.iX@X$ t D c @ D.>X) o ! B.wXwXN.A.f.g.g.g.g.2X4X4X5XfXgX6X5X4X3Xj.d.g.g.j.0.c.&XaXH./ * : W.F.* E 8X[._.].0X .+ O . ",
"K @.iX@X$ t S v # 1.>X) O ~ B.wXwXm.:.f.h.g.g.g.y.e.1X5X6X6X6X4Xy.y.d.h.g.j.j.0.z.&XpXH.z.* : W.R.& E 8X[._.`.'.Q + * % ",
"K @.iX@X> t D v $ 1.>X_ O ~ B.iXpX). Xu.t.g.f.f.s.w.k.1X1X1X1Xk.e.e.d.d.j.a.u.~.H.<XpXH./ : : W.T.= E 7X[._._._.W + % : ",
"K @.iX@X$ t D v $ ,.>X) O  .m.wXsXgXpXN.9.f.f.f.g.g.e.q.q.q.q.w.s.j.j.d.h.0.n.+XsXpXiXH./ * : W.F.= E 8X[._._._.W + O . ",
"K @.iX@X$ t D v % Y.,X) X j W G.(.dXdXdX&XA.i.h.g.h.s.s.s.s.s.s.h.j.h.y.:.+XdXaXdX+XG.^ L & : W.F.= E 8X[._._._.W + O . ",
"K @.iX@X$ t D v & | |.a O p z *.T.&X<XgXyX(. Xu.u.u.u.u.u.u.u.u.u.u.p.XX).<XgXyX:XE.-.E h % : W.F.= E 8X[._._._.W + O . ",
"K @.iX@X$ t D N e 8 $ O O p U 6.6.*.Q.yXdXgX*Xm.m.b.b.m.m.m.b.b.m.m.m.).gXdXpX+Xx.8.7.Y h % : W.F.& E 7X]._././.W + X . ",
"K @.iX@X$ t D B t 8 $ O X p U 6.q.6.0.H.H.Q.+X<X<X<X<X<X<X<X<X<X<X<X<X&X!.Q.H.9.6.7.q.Y h & * ;.-.t e R U j j j e e O X ",
"K $.iX@X$ t D N t 8 # O O p U ] 5.5.] / z.z.Q.;X:X:X:X*X:X;X:X:X:X:X:X+Xc.( / O.5.5.5.Y h & : %.$.c t w t x x w e x ; . ",
"K @.iX@X$ t D N t 8 @ O O p k j j k k k W z.z.b.z.z.z.z.z.z.z.z.z.z.z.z.n.! k k j k k k j & % %.$.c v A F P.3.A n t $ . ",
"K @.iX@X$ t D A V w @ 9 p = * & & % & & @ 9 1 1 1 1 1 1 1 1 1 1 1 1 1 - 1 * & % & & % & * ) { ;.$.t t v v N v v x t % . ",
"K @.iX-X| [ B V D v w M M > X O @ a G G G G G G H H G G G G G G a G G G G G G G G H G H K <.2.;.$.f c N N v v v c t ; . ",
"K | tXaXaX|.$ c D A D L.L.r $ $ s W. X X XXX X X X X XXX X~. X X XXX X X X X~. X X X X|. XXX~.1.=.f N P.3.A A A n t ; . ",
": d @X%X%X1.@ w v V D F F S S F C b ' XXXXoX XXX XXXXX X&.{ | #. XR.| <..XD.' 2.~.Z.v.o.v.|.~.>.$.c c n v v v v c t ; . ",
". 2 W.XXoX,.) r w v V A D L.P.P.4.x b 1.T. XXX XXXXXXX X&.+.+.#. XW.+.<.oX9.@.2.~.Y.v.o.v.|. X1.| e e v v N n v t < % . ",
"X 4 W. X XXXXX| $ w x V D L.P.P.P.P.S $ `  X X X|. X X X X X X X X X X XXX X X|. X X X X XXX~.>.{ % < A 3.4.3.S r . . . ",
"4 4 a G a | oXR.1._ $ x v n B D K.P.P.S B P l l l l l l 5 5 5 6 5 5 4 5 5 5 6 6 5 6 a a a a a 4 4 4 4 , < x < < 3 4 % . ",
") K ; % % J <.,.<.l + 8 w t x B Z S 3.L.A w 8 $ $ # y u .   X O X X % . . % . X % % % % % % % % : a 4 % % % ; ; 4 G * . ",
";.$.J a a 4 O % O X X @ # w t t t x v A A S N t $ $ } -.3 . i a a a i a a a a a a a a a a a a a a a G G G 6 G 6 a G % . ",
";.;.O.O.$.I 4 4 4 4 4 4 4 : $ $ $ 1 8 q w w 8 $ $ # $.W.a X 6 a a a a a a a a a a H i H a a a a a a a a a a a a a a : * ",
";.>.2.2.;.+.I ` I I I J a % % a l c P l l J l l l _ @.,.3 . i H ' ' ) ) I ) I I I ) I I I I I I I I I I I I ` ' ` ) 4 : ",
";.1. XW.;.;.;.;.;.;.;.I a % : T. X X|. X|. X X~. X|.J O . X 6 ) W.W.-.;.-.;.;.;.;.;.;.;.;.-.;.;.;.;.;.;.;.;.T. X9.-.H : ",
";.;.+.%.;.;.;.;.;.;.;.%.+.6 4 H J J J J J K G J J J a 2 % % ` +.| %.;.;.;.;.;.;.;.;.;.;.;.;.;.;.;.;.;.;.;.<.%.+.%.;.H : "
};
