/* XPM */
static char *_a996a89cf5641d6e6620a651b842c8billy4U4oxcYQvHF0[] = {
/* columns rows colors chars-per-pixel */
"60 60 42 1 ",
"  c #555557",
". c #575758",
"X c #57585A",
"o c #595A5B",
"O c #5E5F60",
"+ c #626264",
"@ c #666668",
"# c #67686A",
"$ c #6B6B6D",
"% c #6E6E70",
"& c #6F7072",
"* c #737374",
"= c #767779",
"- c #77787A",
"; c #7A7B7D",
": c #7E7F80",
"> c #7F8082",
", c #828384",
"< c #868789",
"1 c #87888A",
"2 c #8A8B8C",
"3 c #8E8E90",
"4 c #8F9092",
"5 c #939395",
"6 c #969799",
"7 c #97989A",
"8 c #9A9B9D",
"9 c #9E9FA1",
"0 c #9FA0A2",
"q c #A2A3A5",
"w c #A6A7A9",
"e c #A7A8AA",
"r c #AAAAAC",
"t c #AEAEB0",
"y c #AFB0B2",
"u c #B0B0B2",
"i c #D1D2D3",
"p c #D6D7D8",
"a c #DBDBDC",
"s c #DFDFE1",
"d c #DFE0E1",
"f c #E0E0E1",
/* pixels */
"i32euyyyuutttuttuttutuuuuttuuutuw23wuuuuuuuuuuuuuuuuuuuuu629",
"i,,0rerreeteetreteeteeeeetrerert9,,qrrwwrwrrrrwwrrwrrrtrr4:5",
"p55qrw88989799799999qteee089re996:,6997988889wwq888888722;%2",
"frrrr8:,>>:<::>>::::7tetr3:2er3::<:,:,:,,:,,1wr5>,>,,,;o.  *",
"srrwr8>,><:::::<:<::9eeee4>3we3,,:,:,,,,,,,,1qw5,,,,,,;ooo.*",
"srr521>,><*O+:<:::<:11112,>,22<,,,:,:,:,,>,,,12<>,,,,>,;;+.*",
"frr1:,,,<>% O::<<<:<::::,>,,,,:>,,,,<,,,,,,,,,:,,,,,,,,,,@ *",
"frr2,,,,><:--:<:<:,:<,<<,,>,,,,,,,,,,,,,,,,,,,,,,,,,,,,**+ *",
"frr2>,,,,,5re1:<<,>>>:><,,,,<>,,,,::,,:,,,,,,:,,,,,,,,;o...*",
"frr2<,,,,,5rq1<>,,,>,<,<,,,,<>,,,,,<<,,,,,<,,,,:>,,,,,=Oooo*",
"frreq7,,,<123><:<>><,,,,,,,,,,,,,,,,,,,,9q5,,,,*+@:,,,,;;@.*",
"frrrt8>,,,,:::,<>,<>,<,,,,,,,,,<<,,,,,,<qr6:,,,$ O>,,,,,,@ *",
"frr985>,,<>:,,<:<<:,,>,,1,,,,,-*;,,,,,,,684,,:,;=;>,,,,,,@ *",
"frw2,,,,,><:,,,,:,<>,<,,,,,,,,@.@,,,,,,,,,,,,,,6rw<>,,,,,@ *",
"frr2:,,,,,,<,,<>>>:>,,,,,,,,,>#o@,,,,,,,,,,,,,:6rq<,,,,,,@ *",
"frr2,,,,<:<:<9q:O+++-,,,,,,,,,685,,,,,:,,,,,,,,<22,,,,,,,@ *",
"drr2>,>><:<:<wt: X..&,<,,,,,,,qt0,,<,,:<,,,<,,,,,,,,,,,,,@ *",
"a881,<,<>:<::59<**O.&,,,,,,<,,595,,,,,,,:,,,,,,,,,,,,,,,,@ *",
"i,,,>,<><>><:<:9t0+.&<,,,,,,,,:,,,,,,,:,,,,,,,,,,,,<,,,,,@ *",
"i,,,,,>:<<<:<::5r9+.&<,:,,,,<,,,,,,,,,,,,,,,,,,,,,,,,,,,,@ *",
"i,>,:<:<:><><:<<21:=:,,<<<:<,,,,,<,,,,,,,,<,,,,,,,,,,,,,,@.*",
"i,:,:<<><:><:<><>,<:,,,:::<:,,,,,,,,,,:,:,,,,,,<<,,,,,,,,@ *",
"p55,:<:<343><><>,<:<,:<<<::<,,,:,,,,,,,,,,,,,,,,,<,,,,,,<@.*",
"frr2<:<:we9<><>>,,,:,,,,:<<:<,,<,,,,,,,,,,,,,,,,,,,,,,,,,@ *",
"frr2,,,,0r9><>><:<>><>:<<:<><><:,,,,,,,,,,,,,,,<,,,,,,,,:@ *",
"frr2,<,,12<:><<>>><<<:<>:<:<:<<>,,,,,,,,,,,<,,,,,,,,,,,,,@ *",
"frr2,,,,<:<:<>><<>:>:>:<<:<>:<>>,<,,,,,,,:,,<,,,,,,,<,,,,@ *",
"a88542,,>:<<><<>:<<>><<:><><<:<<:**:,,:,,,,,,,,,<,,,;*=,,%@:",
"i,,9r9,<<:<:><>>><:>><><<:<>>><>=oo=,,,,,,,,,,,,,,,,$ +,,,,5",
"i<,qr8,,<>:<<><<<>><<><::<:<><><=OO;,,:,,:,,,,,,,,,,$o@:,,:5",
"awqereq01:<>:<<>>>>><:><<><>><<:2872,,,,,,,,,,,,,,,,585,,%O=",
"frrrrrrr1<><>:>><<><><>:<>>><><:4tr2,,,,:,,,,,,,,,,,8tq,,@ *",
"arrrrr88<,,,,,,,1:11:1:2:2:2>3:>5q0>3:>:553:>:>>,,,,596,,@o*",
"frrtr8,,,,,,,,,,:::::::2:>::>:>>:>>:>>>3wt0>>2:3,<,,,,,,,@.*",
"frrrr8,,>,,,,,,>::::1:::>:>2>33>:3>2::>>0t7>>>>>,,,,,,,:,@.*",
"arr51<,,,,,,,,,*+++O::1:22>:>>:>>>>:3>>3>4:>3:3>,,,,,,;@+o.*",
"frr1,,,,,,<,,,,$    ::2>:>>2:>:>>2>3:>>>3>:3:>3:,,,,,,=o.. *",
"frr2,,,,,,,,,,,;::  :1:>:2:23>3>>:>>>>>>:>>>>>>>,,,,,,;$@O *",
"frr1>,,,,,,,,,>7r0OX$:>1>:>>:3:>>>>>3>>::>:>>33:,,,,,,,,,@.*",
"frr2,,,,,,,,,,>5e9+X::>1>22:>>>>3:>2:>>3>>3>>>>>,,,,,,,:,@.*",
"frrqq5,,,>,,,,><33791:1::<,,,,,,>>>>>>:33:>3:>>3,,,,,,;@+O.*",
"frrrr8,,,,,,,,,,:2et6:>><:<:,,,,>>3>3>:>>:>>>>>:,,,,,,;o.o.*",
"frr995,,,,,,,,,,>3903>11:<,<<,,:>3>>:>:>>:>3>>>3,,,,,,;ooo.*",
"drr1,,,,,,,,,,,>>::::::>::,,:,,,>:3>>>:33:>>3>::,,,,,,=ooo *",
"ftr2>,,,,,1,,,,,:<:1<:<:<<:<,,,,>>>>>>3>3>::>>3>,,,,,,;ooo.*",
"drr2,,,,,,,,,,,,1:1:<<:<<:<:,<,,>33>>>:>:>>:>>>>,,<,,,,;;+.*",
"sre2,,,,1,,,,,,,>1<:::<:<<:<,,,,>>>>>3::>>::>>>3,,,,,,,,,@.*",
"frr2,,,,,,,,,1,,:<::<<:<::<:,,,,>:3>>>:::::::>>>,<,,,,,,,@.*",
"srr2,,,,,,,<,>,,><<:<:<:,,,,,,,,3:>3:3::O.ooo>,<>,,,,,,,,@ *",
"frr2:,,,,,,,,>,::,>,:<:<,,,,,<,,>>>>>>>:O.ooO:,><,,,,,,,,@ &",
"frr2,,,,,,,,:@+*<,>,:<<>,,,,,,,,3>>>3>>3::<86<,<><,,,,,,,@.*",
"srr2:,,,,><,:o %,,<:<:<>,,,,,,<,:>3::>>:,:6te1>,,,,,,,,,,@.*",
"srr752,,,,,,>==;><>>>><>,,,,,,,,:22>>3:>,,308<,,,,,,,,,,,@.*",
"srrrr8,,,,,,1wt6:><<<::<,,,,,,,,>>::>>>>,,,,,,,,,,,,,,<,>@.*",
"srrrr8,,,,,,,wr6<>:><:<:,,,,,,,:>2>2>:2:,,,,:,,,><>>>>>,>@ *",
"i22qr8>>,,,,>221:<<>:<:<,%O+OO:,>:>:22>>,,,,,,::>:@o:<:++O.*",
"i,,qt9,,,,,,>,,><<:<<,,,,@....:,2:::::::::::::::,:o.:::.oo.:",
"i,,22,**>,:****;::****=*=+.O.O#*:::::::#:::::::#:$o.@:@.o. $",
"i,>+oooo;,&oo.o%:-OXX.XO...O..O.oo  ooooo.  ooooo.ooo.oooo &",
"i,,+oooo;,%oooo&<:OOOXXXOO..O...oXX oXooX.  oXoooooooooooo.*"
};
