/* XPM */
static char *result[] = {
/* columns rows colors chars-per-pixel */
"59 60 70 1 ",
"  c #0F141F",
". c #10141F",
"X c #0F1420",
"o c #101521",
"O c #141A25",
"+ c #141D29",
"@ c #151E30",
"# c #162029",
"$ c #1A232D",
"% c #172335",
"& c #192533",
"* c #1F2B35",
"= c #18243A",
"- c #1B283F",
"; c #202D36",
": c #212F38",
"> c #23323A",
", c #28353E",
"< c #1E2E46",
"1 c #1E2E49",
"2 c #2E3D44",
"3 c #21334C",
"4 c #303F46",
"5 c #213353",
"6 c #24365A",
"7 c #253A5F",
"8 c #253B61",
"9 c #293E65",
"0 c #2E4047",
"q c #33434B",
"w c #36484F",
"e c #354850",
"r c #394A51",
"t c #3D5056",
"y c #3F5359",
"u c #2B436A",
"i c #2F4971",
"p c #324D72",
"a c #324F78",
"s c #34527B",
"d c #424F53",
"f c #465154",
"g c #41545B",
"h c #43595E",
"j c #465C62",
"k c #4A5E63",
"l c #4A6166",
"z c #4D656A",
"x c #4E686D",
"c c #506A6E",
"v c #526D71",
"b c #567276",
"n c #587277",
"m c #577278",
"M c #5C777B",
"N c #637C7E",
"B c #375782",
"V c #385781",
"C c #375883",
"Z c #395984",
"A c #3C5E8B",
"S c #647E80",
"D c #6B7F80",
"F c #678082",
"G c #698284",
"H c #758C8C",
"J c #7B908F",
"K c #7D9492",
"L c #819795",
"P c #819895",
/* pixels */
"errrrrrrrrrrrrrrrrrrrrrrrrrrw...*wrrrqrrrrrrrrrrrrrrrr,****",
"errrrrerrrrrerrrrrrrrrrrrrrrq...*rrrrrrrrrrrrrrrrrrrrr>**;*",
",,,ezzxNGGFxxzzxzzzzzzzzzzzzl   ,zzzzzzzzzzzzzzzzzkfdd,,,,#",
">;*ebbbHKKKbbbbbbbbbbbbbbbbbv   2bbbnnnnbbbnbbnbbbzfffdqq,+",
":>*ebbbHKKKmbbbbbbbbbbbbbbbbv   ,nnbbbbbbbbbbbbbnncfffq,42+",
"**:ebbbHJJJbbbbbbbbbbbbbbbbbv   2nbbbbbbbbbbbbnvvvkfddqq42+",
">*:ebbbhyyybbbbbbbbbbbbbbbbbv   ,nbbbbbbbbbbbbvwd,,,;;,q02;",
">:*wbbbgrerbbbbbbbbbbbbbbbbbv   4bbbbbbbbbbbbnbw44,*;;,422>",
"*::ebbbyrrtbbbbbbbbbbbbbbbnnv...,nnbbbbbbbbbbbnq44,;;$4440>",
">**ebbbllylbbbbbbbbbbvkjljkhh...,kkkjjlhjkjjjkk044,,,>qgfr>",
":::ebbbbbbbbbbbbbbbbbx4402040...$q44044000444444444444znbx>",
":*:ebbbbbbbbbbbbbbbbbx4400042...$444004400444444444442znbx>",
"::;ebbbbbbbbbbbbbbbbbx000000,   $44044q44q444444444444znbx>",
":;;ebbbbbbbbbbbbbb>:**$$$$$#$   O++OOOOOOOO>444444dczzvbbx>",
":;;ebbbbbbbbbbbbbb&+++O+++#+#   ...........;444444fnnvnbbx>",
":;;ebbbbbbbbbbbbbn$+++#+++O##   ...........;444444fnnnnbbz>",
":;;ebbbbbbbbbbzlll$###%%%%%%%   O+++@+++XX &,,,244rzczvnbx>",
":;:ebbbbbbbbbbw++O++#%8888887   =8888885oX... o2400444zbbx>",
":::ebbbbbbbbbbw+++++O%8787776   =7778885. . ..O,444444zbbx>",
":*:wbbbbbbbbbbw#+#O++%7777776   %7778875.   ...2444444lbbx>",
":;;ebbbbbbc002&ooo<113777issa   <ssau776<<1@XX.@$$;q44znbx>",
":;;ebbbbbbx+++   X6888777sAAZ   1AAAu777878=    ..$400znbx>",
">;;ebbbbbbx+++o   6778877sAAC   3AAAu777787=    ..$,02lnbx>",
":;;ebbbbbbc++++   78888uuaZAs   3ZZZu87u888=    ..$q00zbbx>",
">;*ebbbbbbx#OOoo .CAAAAAZ<.         pAAAAAA3    ..$,q4znbx>",
">;:ebbbbbbc#+#o   CAAAAAA<          pAAAAAA3    ..$444znbx>",
">:*ebbbbbbx#O+o   CAAAAAA<          pAAAAAA3    ..#04qzbbx>",
">*:ebbbbbbx#++X   sAAAAAA<          pAAAAAA<    ..#04,zbbx>",
"::*ebbbbbbc.      CAAAAAA<..        aAAAAAA3    ..$244znbx>",
":::ebbbbbbc       sAAAAAA<..        pAAAAAA3 .  ..$444lnbx>",
">::ebbbbbbx     ..ZAAAAAA<....     opAAAAAA3......$244znbx>",
":::ebbbbbbx    ...uuupAAAsppppppppppZAAZuuu:......$244zbbx>",
">:*ebbbbbbv      .6879AAAAAAAAAAAAAAAAAC878=X X ..$444znbx>",
">::ebbbbbbx       678uAAAAAAAAAAAAAAAAAC878=    ..$444lbbx>",
":::ebbbbbbx&&&#   3558ZBZBZZBBBBBBBZBBCs555%   OOO;ewrzbbx>",
">:*ebbbbbbbbbb0  oXX +888888888888888885  X    2q0rnbbbbbx>",
">*:ebbbbbbbbbb0     X+778777777787777785 X..  X204rnbbbbbx>",
">*:ebbbbbbbbbb0 .o  X+777777777777777885. ..   200tnbbbbbx>",
">-:ebbbbbbbbbby::;oXXO=================@  .$;;;gjjzbbbbbbx>",
">*:ebbbbbbbbbbh044oXXX      X             .;444vbbbbbbbbbx>",
">;:wbbbbbbbbbbh044O...  ........          .;444vbbbbbbbbbx>",
">;:wbbbbbbbbbbh0q0O.o.oo.... ...ooooo.ooooo:44qvbbbbbbbbbx>",
">;:wbbbbbbbbbbbbbvq424240044004424242424242jbbvmbbbbbbbbbx>",
">;:wbbbbbbbbbbbbbbq444440040000044444444444jbnmmbbbbbbbbbx>",
">;>ebbbbbbbbbbbbbbq400000000004044444444444jbbbbbbbbbbbbbx>",
">**ebbbFGFFbbbbbbbhgggfgfghfhffygggggggggggzbbbbbbMGGGMbbx>",
">:*ebbbHKKKbbbbbbnnnnnnnnnnnbbbbnnbnnnmmnnnbbbbbbbNPPPNbbx>",
">*>ebbbJPPKbbbbbbbbbbnbbbbbbbbbbbbbbbbnbmvbbbbbbbbNPPPNbbx>",
":::ebbbHPPKbbbbbbbbbbbbbbbbbbbbbbbbbbbbbbbbbbbbbbbDPPPDnbx>",
">**ebbbljllbbbbbbbbbbbbbbbbbbbbbbbbbbbbbbbbbbbbbbbchlhcbbx>",
">*:ebbbhrrtbbbbbbbbbbbbbbbbbbbbbbbbbbbbbbbbbbbbbbbzrrrcbbx>",
">::ebbbyrwrbbbbbbbbbbbbbbbbbbbbbbbbbbbbbbbbbbbbbbbzrrrxbbx>",
">::ebbbhttybbbbbbbbbbbbbbbbbbbbbbbbbbbbbbbbbbbbbbbxtttxbbx>",
">*:ebbbbbbbbbbbbbbbbbbbbbbbbbbbbbbbbbbbbbbbbbbbbbbbbbbbbbx>",
">*:ebbbbbbbbbbbbbbbbbbbbbbbbbbbbbbbbbbbbbbbbbbbbbbbbbbbbbx>",
">::ebbbbbbbbbbbbbbbbbbbbbbbbbbbbbbbbbbbbbbbbbbbbbbbbbbbbbc>",
"000ejjjjjjjjjjjjjjjjjjjjjjjjjjjjhjjjjjjjjhjjhkhkjjjjhkhkhh0",
"eeeewrrrwrrwrrrrrrrwrrwrrrrwrrrrrrrwrrerrrrrrrrrwrrrrrrrrrr",
"wteerrrwrrrrrrrrrrrrrrrrrrrrrrrrrrrrrrrrrrrrrrrrrrerrrrrrrr",
"weetrrrtrrrrrrrrrrrrrrrrrwrrrrrrrrrrrrrrrrrrrrrrrrrrrrrrrrr"
};
