/* XPM */
static char *result[] = {
/* columns rows colors chars-per-pixel */
"40 40 153 2 ",
"   c #040404",
".  c #0A0303",
"X  c #0A0807",
"o  c #0D0D0D",
"O  c #130403",
"+  c #1C0301",
"@  c #1F0807",
"#  c #100808",
"$  c #131313",
"%  c #1B1B1B",
"&  c #270301",
"*  c #2B0603",
"=  c #2B0805",
"-  c #2F0F0D",
";  c #350905",
":  c #3B0B06",
">  c #350C09",
",  c #3D0C08",
"<  c #2E1816",
"1  c #231B1A",
"2  c #3B201E",
"3  c #1D2020",
"4  c #242424",
"5  c #272A2A",
"6  c #2C2D2D",
"7  c #2B2322",
"8  c #312423",
"9  c #3B2826",
"0  c #353434",
"q  c #3A3433",
"w  c #3B3B3B",
"e  c #400B06",
"r  c #450D08",
"t  c #4A0F0A",
"y  c #520F0A",
"u  c #47100B",
"i  c #4D110C",
"p  c #57110A",
"a  c #5C120B",
"s  c #441612",
"d  c #5F1A14",
"f  c #68150E",
"g  c #75160F",
"h  c #681E18",
"j  c #731911",
"k  c #7D1910",
"l  c #4C221E",
"z  c #63211B",
"x  c #68251F",
"c  c #7F2119",
"v  c #492E2C",
"b  c #5C2D29",
"n  c #413D3D",
"m  c #4B3938",
"M  c #573A38",
"N  c #662620",
"B  c #612A25",
"V  c #6A322D",
"C  c #7E352E",
"Z  c #414141",
"A  c #4D4D4D",
"S  c #4E4443",
"D  c #5D4745",
"F  c #5E4947",
"G  c #534D4D",
"H  c #545454",
"J  c #5C5D5D",
"K  c #595453",
"L  c #614543",
"P  c #6B4F4D",
"I  c #644C4A",
"U  c #5F6060",
"Y  c #636363",
"T  c #6A6261",
"R  c #666868",
"E  c #6B6B6B",
"W  c #7F6765",
"Q  c #747474",
"!  c #7D7C7C",
"~  c #851B11",
"^  c #8C1C13",
"/  c #921D13",
"(  c #9A1F15",
")  c #84241D",
"_  c #942016",
"`  c #9F2015",
"'  c #97241A",
"]  c #A42116",
"[  c #A92217",
"{  c #AB2419",
"}  c #AA291F",
"|  c #B22519",
" . c #B8271A",
".. c #BC291C",
"X. c #952A20",
"o. c #AA2D22",
"O. c #C42A1D",
"+. c #CD2C1E",
"@. c #D32E1F",
"#. c #C12D20",
"$. c #D52E20",
"%. c #D92F20",
"&. c #CB3226",
"*. c #D43022",
"=. c #DC3122",
"-. c #D7372A",
";. c #DA3628",
":. c #C03C32",
">. c #D23E33",
",. c #E63323",
"<. c #EA3424",
"1. c #EA3A2B",
"2. c #D04136",
"3. c #DF4236",
"4. c #E64134",
"5. c #E94235",
"6. c #E9463A",
"7. c #E84A3E",
"8. c #816967",
"9. c #856A68",
"0. c #877674",
"q. c #847D7D",
"w. c #EA5147",
"e. c #E45249",
"r. c #EB544A",
"t. c #EA5D54",
"y. c #E55E58",
"u. c #EA5F58",
"i. c #E25A52",
"p. c #EB635C",
"a. c #EB6A61",
"s. c #ED837F",
"d. c #7F8181",
"f. c #838686",
"g. c #8E8D8D",
"h. c #949595",
"j. c #959899",
"k. c #9A9A9A",
"l. c #A4A4A4",
"z. c #AEAEAE",
"x. c #B7B7B7",
"c. c gray72",
"v. c #EE8C87",
"b. c #EE928E",
"n. c #F2C1BF",
"m. c #C6C6C6",
"M. c #CECDCD",
"N. c #D4D4D4",
"B. c gainsboro",
"V. c #F2C7C6",
"C. c gray96",
"Z. c #FAFAFA",
"A. c None",
/* pixels */
"A.A.A.A.A.A.A.A.A.A.A.A.A.A.A.A.A.A.A.A.A.A.A.A.A.A.A.A.A.A.A.A.A.A.A.A.A.A.A.A.",
"A.A.A.A.A.A.A.A.A.A.A.A.A.A.A.A.A.A.A.A.A.A.A.A.A.A.A.A.A.A.A.A.A.A.A.A.A.A.A.A.",
"A.A.A.A.A.A.A.A.A.A.A.A.A.A.A.A.A.A.A.A.A.A.A.A.A.A.A.A.A.A.A.A.A.A.A.A.A.A.A.A.",
"A.A.A.A.A.A.A.A.A.A.A.A.A.A.A.A.A.A.A.A.A.A.A.A.A.A.A.A.A.A.A.A.A.A.A.A.A.A.A.A.",
"A.A.A.A.A.A.A.A.A.A.A.A.A.A.A.A.A.A.A.A.A.A.A.A.A.A.A.A.A.A.A.A.A.A.A.A.A.A.A.A.",
"A.A.A.A.A.A.A.A.A.A.A.A.A.A.A.A.j.j.j.j.j.j.j.A.A.A.A.A.A.A.A.A.A.A.A.A.A.A.A.A.",
"A.A.A.A.A.A.A.A.A.A.A.A.A.A.A.G q q q q q q 0 n ! A.A.A.A.A.A.A.A.A.A.A.A.A.A.A.",
"A.A.A.A.A.A.A.A.A.A.A.A.A.A.0.l , = * * * * & - D A.A.A.A.A.A.A.A.A.A.A.A.A.A.A.",
"A.A.A.A.A.A.A.A.A.A.H 5 5 6 B }  .( ~ ~ ~ ~ ~ ~ z 9 5 5 6 A.A.A.A.A.A.A.A.A.A.A.",
"A.A.A.A.A.A.A.A.A.8.b t i i ) >.4.&. .| [ ] ] ` k i > : > I A.A.A.A.A.A.A.A.A.A.",
"A.A.A.A.A.A.A.A.H V X.] } { ..i.i.3.*.O.{ [ ] ] / k g g g B m A.A.A.A.A.A.A.A.A.",
"A.A.A.A.A.A.A.U o a ..<.1.6.a.s.v.t.4.;. .| | | { [ ] ] ] a + 3 A.A.A.A.A.A.A.A.",
"A.A.A.A.A.A.A.U o a ..1.r.p.b.V.V.v.p.e.;.@.%.@.O.{ ] ] ] a + 3 A.A.A.A.A.A.A.A.",
"A.A.A.A.A.A.A.P s ~ #.1.w.p.v.n.n.v.p.w.<.,.,.,.+.{ ] ] ] g , 2 A.A.A.A.A.A.A.A.",
"A.A.A.A.A.A.D C ' ..=.<.5.7.a.b.b.a.7.5.<.<.<.<.+.| ] ] ] ^ g h M K A.A.A.A.A.A.",
"A.A.A.A.A.6 * ^ =.<.,.,.<.<.6.u.y.>.O.O.O.O.@.@.O.{ ] ] ] ] ] / ; # A.A.A.A.A.A.",
"A.A.A.A.A.6 * ^ ,.<.,.,.,.,.1.5.>.c r : : p ~  .| [ ` ] ] ] [ / > # A.A.A.A.A.A.",
"A.A.A.A.A.A.+ j | $.=.,.<.,.%.#.o.V q q q v x ^ / ` ] ] ] ( ~ g = # J A.A.A.A.A.",
"A.A.A.A.A.A.. : p _ $.<.<.,. .j z W h.j.j.q.D t f / [ ] ] k y ; . X K A.A.A.A.A.",
"A.A.A.A.A.A.  $ 1 N } +.+.O.k @ 4 l.C.A.A.M.R . : g / / ^ f < $ X X J A.A.A.A.A.",
"A.A.A.A.A.A.% A.A.9.B y p t ; X 4 l.Z.A.A.N.E   O = : : , M T Y 5 o K A.A.A.A.A.",
"A.A.A.A.A.A.A.A.A.g.S 8 8 8 7 4 w k.N.B.B.c.R % % 1 1 1 1 G ! ! 6 o J A.A.A.A.A.",
"A.A.A.A.A.A.A.A.! d.f.f.f.f.f.f.f.! Q Q Q Q R U J J A.A.J J J A % X H A.A.A.A.A.",
"A.A.A.A.A.A.A.A.$ Y m.A.C.Z.Z.C.B.E 4 % 1 w Q z.A.A.A.A.A.E 4   $ % A.A.A.A.A.A.",
"A.A.A.A.A.A.A.A.o H z.A.A.A.A.A.C.x.h.g.g.j.l.A.A.A.A.A.A.E 4 o J A.A.A.A.A.A.A.",
"A.A.A.A.A.A.A.A.4 H h.A.A.A.A.A.A.A.A.A.A.A.A.A.A.A.A.A.A.Y % % A.A.A.A.A.A.A.A.",
"A.A.A.A.A.A.A.A.A.A.U U Q f.z.A.A.A.A.A.A.A.A.A.h.E J J J 0 o % A.A.A.A.A.A.A.A.",
"A.A.A.A.A.A.A.A.A.A.n % % 4 H k.z.A.A.A.A.A.A.l.Q q % % % $ $ 6 A.A.A.A.A.A.A.A.",
"A.A.A.A.A.A.A.A.A.A.A.Q Q Q E Y J U J U U J U J R Q Q Q Q Q Q A.A.A.A.A.A.A.A.A.",
"A.A.A.A.A.A.A.A.A.A.A.A.A.A.j.w 4 4 4 4 4 4 4 6 E A.A.A.A.A.A.A.A.A.A.A.A.A.A.A.",
"A.A.A.A.A.A.A.A.A.A.A.A.A.A.A.Q U J J J J J K R k.A.A.A.A.A.A.A.A.A.A.A.A.A.A.A.",
"A.A.A.A.A.A.A.A.A.A.A.A.A.A.A.A.A.A.A.A.A.A.A.A.A.A.A.A.A.A.A.A.A.A.A.A.A.A.A.A.",
"A.A.A.A.A.A.A.A.A.A.A.A.A.A.A.A.A.A.A.A.A.A.A.A.A.A.A.A.A.A.A.A.A.A.A.A.A.A.A.A.",
"A.A.A.A.A.A.A.A.A.A.A.A.A.A.A.A.A.A.A.A.A.A.A.A.A.A.A.A.A.A.A.A.A.A.A.A.A.A.A.A.",
"A.A.A.A.A.A.A.A.A.A.A.A.A.A.A.A.A.A.A.A.A.A.A.A.A.A.A.A.A.A.A.A.A.A.A.A.A.A.A.A.",
"A.A.A.A.A.A.A.A.A.A.A.A.A.A.A.A.A.A.A.A.A.A.A.A.A.A.A.A.A.A.A.A.A.A.A.A.A.A.A.A.",
"A.A.A.A.A.A.A.A.A.A.A.A.A.A.A.A.A.A.A.A.A.A.A.A.A.A.A.A.A.A.A.A.A.A.A.A.A.A.A.A.",
"A.A.A.A.A.A.A.A.A.A.A.A.A.A.A.A.A.A.A.A.A.A.A.A.A.A.A.A.A.A.A.A.A.A.A.A.A.A.A.A.",
"A.A.A.A.A.A.A.A.A.A.A.A.A.A.A.A.A.A.A.A.A.A.A.A.A.A.A.A.A.A.A.A.A.A.A.A.A.A.A.A.",
"A.A.A.A.A.A.A.A.A.A.A.A.A.A.A.A.A.A.A.A.A.A.A.A.A.A.A.A.A.A.A.A.A.A.A.A.A.A.A.A."
};
