/* XPM */
static char *result[] = {
/* columns rows colors chars-per-pixel */
"30 30 30 1 ",
"  c #235583",
". c #235683",
"X c #255683",
"o c #255783",
"O c #265783",
"+ c #255784",
"@ c #265784",
"# c #265884",
"$ c #275884",
"% c #4593B9",
"& c #4693B9",
"* c #4594B9",
"= c #4694B9",
"- c #4794B9",
"; c #4694BA",
": c #4794BA",
"> c #4695BA",
", c #4795BA",
"< c #4895BA",
"1 c #62D1EC",
"2 c #63D1EC",
"3 c #63D2ED",
"4 c #64D2EC",
"5 c #64D2ED",
"6 c #D2F9FB",
"7 c #D3F9FB",
"8 c #D2F9FC",
"9 c #D3F9FC",
"0 c #D3FAFC",
"q c None",
/* pixels */
"qqqqqqqqqq9099090909qqqqqqqqqq",
"qqqqqqqqqq7888888887qqqqqqqqqq",
"qqqqqq9006@XXXXXXXX$9009qqqqqq",
"qqqqqq7896$oooooooo$0087qqqqqq",
"qqqq96@o-<999999999908@$99qqqq",
"qqqq76o.=,999909090008$$67qqqq",
"qq96@o%=11,,222222250098@$99qq",
"qq08o.=>11>>111133359008$$09qq",
"qq09-=11>>111112990945009909qq",
"qq78,>11=;111135090055900087qq",
"96@+11>=%;1112990900094508@$99",
"08X.11=%%;1112090900002308Xo09",
"08X.11=%%;1112090900002308Xo09",
"08X.11=%%;1112990900092308Xo09",
"08X.11=%%;1111250900421308Xo09",
"08X.11=%%;1111129909211308Xo09",
"08X.11=%%%=>11112222111308Xo09",
"08X.11=%%%%;11111111111208Xo09",
"08X.11=%%%%%=;11111111>,08Xo09",
"96$#11>;%%%%%*11111111>,96$$99",
"qq99,>11=%%%%%=======>11,<99qq",
"qq09-=11>;%%%%%%%%%%;>11&:09qq",
"qq08X.=>11=%%%%%%%%;11>= O09qq",
"qq96$O&=11>;;;;;;;;>11&%O$99qq",
"qqqq98X.=>1111111111>= O69qqqq",
"qqqq96$O-,1111111111,:O$99qqqq",
"qqqqqq9998o........@9999qqqqqq",
"qqqqqq9006$oooooooo$9009qqqqqq",
"qqqqqqqqqq9999999999qqqqqqqqqq",
"qqqqqqqqqq9099090909qqqqqqqqqq"
};
