/* XPM */
static char *result[] = {
/* columns rows colors chars-per-pixel */
"30 30 28 1 ",
"  c #235683",
". c #255683",
"X c #255783",
"o c #265783",
"O c #255784",
"+ c #265784",
"@ c #265884",
"# c #275884",
"$ c #4593B9",
"% c #4693B9",
"& c #4594B9",
"* c #4694B9",
"= c #4794B9",
"- c #4694BA",
"; c #4794BA",
": c #4695BA",
"> c #4795BA",
", c #4895BA",
"< c #62D1EC",
"1 c #63D1EC",
"2 c #63D2ED",
"3 c #64D2ED",
"4 c #D2F9FB",
"5 c #D3F9FB",
"6 c #D2F9FC",
"7 c #D3F9FC",
"8 c #D3FAFC",
"9 c None",
/* pixels */
"999999999978878888879999999999",
"999999999956666666659999999999",
"9999997884#XXXXXXXX#7887999999",
"9999995686#XXXXXXXX#8865999999",
"999974##88666666666686##779999",
"999954##88888788888886##459999",
"9974##478888878888888876+#7799",
"9976##787788878888888886##8799",
"99787731>,88878888888888778799",
"9956771<*>78878888888888886599",
"74#O11:*$-1113888888888886+#77",
"76X <<*$$-<<<1888888888886.X87",
"76X <<*$$-<<<1888888888886.X87",
"76X <<*$$-<<<1788888888886.X87",
"76X <<*$$-<<<<138888888886.X87",
"76X <<*$$-<<<<<27888888886.X87",
"76X <<*$$$*:<<<<1113888886.X87",
"76X <<*$$$$-<<<<<<<2888886.X87",
"76X <<*$$$$$*-<<<<<2888886.X87",
"74#@<<:-$$$$$&<<<<<1778886##77",
"9977>:<<*$$$$$******=,88887799",
"9977;*<<:-$$$$$$$$$$->88668799",
"9976o *:<<*$$$$$$$$-<186+#8799",
"9974#o%*<<:--------:1364##7799",
"999976. *:<<<<<<<<<176+#479999",
"999974#o=><<<<<<<<<186##779999",
"9999997776X        +8877999999",
"9999997884#XXXXXXXX#7887999999",
"999999999977777777779999999999",
"999999999978878888879999999999"
};
