/* XPM */
static char *result[] = {
/* columns rows colors chars-per-pixel */
"30 30 40 1 ",
"  c #225582",
". c #235582",
"X c #235683",
"o c #235783",
"O c #245683",
"+ c #255783",
"@ c #265783",
"# c #265784",
"$ c #275784",
"% c #275884",
"& c #275985",
"* c #295985",
"= c #2A5A85",
"- c #4593B8",
"; c #4593B9",
": c #4693B9",
"> c #4594B9",
", c #4694B9",
"< c #4794B9",
"1 c #4694BA",
"2 c #4695BA",
"3 c #4795BA",
"4 c #4894B9",
"5 c #4894BA",
"6 c #4895BA",
"7 c #62D0EB",
"8 c #61D1EC",
"9 c #62D1EC",
"0 c #63D1EC",
"q c #63D2EC",
"w c #64D2EC",
"e c #64D2ED",
"r c #65D2ED",
"t c #D2F8FB",
"y c #D3F8FB",
"u c #D2F9FB",
"i c #D2F9FC",
"p c #D3F9FC",
"a c #D3FAFC",
"s c None",
/* pixels */
"ssssssssssppppppppppssssssssss",
"ssssssssssppppppppppssssssssss",
"sssssspppt%$$$$$$$$*ppppssssss",
"sssssstuitOX.......+ipipssssss",
"ssssptOX:198;;;;;;;;<<+*ppssss",
"ssssttOX,299211111111,X%uyssss",
"ssppOO:,99,29999999998;-+*ppss",
"ssppXX;>99>19999qqqq98>;.$apss",
"sspp,,99>1999990pppp0998;4apss",
"sstt3298>19999erppppwq98;6ipss",
"ppOo99>;;19990pppppppi98;-+#pp",
"ppXX98>;;19990pppppppi98;- Oap",
"ppXX98>;;19990pppppppi98;- Oap",
"ppXX98>;;19990iippppii98;- Oap",
"ppXX98>;;199999wppppq998;- Oap",
"ppXX98>;;1989990iiii0998;- Oap",
"ppXX98>;;;;1999999999998;- Oap",
"ppXX98>;;;;19899999999892, Oap",
"ppXX98>;;;;;;>99999998,197 Oap",
"pp%&9921;;;;;>988888892297%%pp",
"sspi<199>;;;;;;;;;;;;199,6ppss",
"sspp:,9821;;;;;;;;;;1299;4apss",
"ssppXX;>99;;;;;;;;;>99,;.$apss",
"sspp%%->99211111111299;-$=ppss",
"sssspuX.;19999999999>;.$ipssss",
"sssspt%%66777777777765$=ppssss",
"sssssspppuX        @ipppssssss",
"sssssspppt%$$$$$$$$*ppppssssss",
"ssssssssssppppppppppssssssssss",
"ssssssssssppppppppppssssssssss"
};
