/* XPM */
static char *result[] = {
/* columns rows colors chars-per-pixel */
"30 30 5 1 ",
"  c #225582",
". c #4593B9",
"X c #62D1EC",
"o c #D3FAFC",
"O c None",
/* pixels */
"OOOOOOOOOOooooooooooOOOOOOOOOO",
"OOOOOOOOOOooooooooooOOOOOOOOOO",
"OOOOOOoooo          ooooOOOOOO",
"OOOOOOoooo          ooooOOOOOO",
"OOOOoo  oooooo........  ooOOOO",
"OOOOoo  oooooo........  ooOOOO",
"OOoo  ooooooXXXXXXXXXX..  ooOO",
"OOoo  ooooooXXXXXXXXXX..  ooOO",
"OOooooooooooooXXooooXXXX..ooOO",
"OOooooooooooooXXooooXXXX..ooOO",
"oo  ooooooooooooooooooXX..  oo",
"oo  ooooooooooooooooooXX..  oo",
"oo  ooooooooooooooooooXX..  oo",
"oo  ooooooooooooooooooXX..  oo",
"oo  ooooooooooooooooXXXX..  oo",
"oo  ooooooooooooooooXXXX..  oo",
"oo  oo..ooooooooooooooXXoo  oo",
"oo  oo..ooooooooooooooXXoo  oo",
"oo  XX....oooooooooooooooo  oo",
"oo  XX....oooooooooooooooo  oo",
"OOoo..XX....ooooooooooooooooOO",
"OOoo..XX....ooooooooooooooooOO",
"OOoo  ..XX....oooooooooo  ooOO",
"OOoo  ..XX....oooooooooo  ooOO",
"OOOOoo  ..XXoooooooooo  ooOOOO",
"OOOOoo  ..XXoooooooooo  ooOOOO",
"OOOOOOoooo          ooooOOOOOO",
"OOOOOOoooo          ooooOOOOOO",
"OOOOOOOOOOooooooooooOOOOOOOOOO",
"OOOOOOOOOOooooooooooOOOOOOOOOO"
};
