/* XPM */
static char *result[] = {
/* columns rows colors chars-per-pixel */
"30 30 5 1 ",
"  c #225582",
". c #4593B9",
"X c #62D1EC",
"o c #D3FAFC",
"O c None",
/* pixels */
"OOOOOOOOOOooooooooooOOOOOOOOOO",
"OOOOOOOOOOooooooooooOOOOOOOOOO",
"OOOOOOoooo          ooooOOOOOO",
"OOOOOOoooo          ooooOOOOOO",
"OOOOoo  ..XX..........  ooOOOO",
"OOOOoo  ..XX..........  ooOOOO",
"OOoo  ..XX..XXXXXXXXXX..  ooOO",
"OOoo  ..XX..XXXXXXXXXX..  ooOO",
"OOoo..XX..XXXXXXooooXXXX..ooOO",
"OOoo..XX..XXXXXXooooXXXX..ooOO",
"oo  oo....XXXXooooooooXX..  oo",
"oo  oo....XXXXooooooooXX..  oo",
"oo  oo....XXXXooooooooXX..  oo",
"oo  oo....XXXXooooooooXX..  oo",
"oo  oo....XXXXXXooooXXXX..  oo",
"oo  oo....XXXXXXooooXXXX..  oo",
"oo  oo......XXXXXXXXXXXX..  oo",
"oo  oo......XXXXXXXXXXXX..  oo",
"oo  oo........XXXXXXXX..XX  oo",
"oo  oo........XXXXXXXX..XX  oo",
"OOoooooo..............XX..ooOO",
"OOoooooo..............XX..ooOO",
"OOoo  oooo..........XX..  ooOO",
"OOoo  oooo..........XX..  ooOO",
"OOOOoo  oooooooooooo..  ooOOOO",
"OOOOoo  oooooooooooo..  ooOOOO",
"OOOOOOoooo          ooooOOOOOO",
"OOOOOOoooo          ooooOOOOOO",
"OOOOOOOOOOooooooooooOOOOOOOOOO",
"OOOOOOOOOOooooooooooOOOOOOOOOO"
};
