/* XPM */
static char *result[] = {
/* columns rows colors chars-per-pixel */
"60 60 228 2 ",
"   c #161C26",
".  c #181E27",
"X  c #171E2B",
"o  c #191E2D",
"O  c #181E34",
"+  c #191E35",
"@  c #241E3B",
"#  c #1E252E",
"$  c #192035",
"%  c #1C2339",
"&  c #1F293E",
"*  c #232635",
"=  c #2C2637",
"-  c #232C34",
";  c #24243E",
":  c #2C233D",
">  c #212B3D",
",  c #2B343C",
"<  c #2C363E",
"1  c #1F2942",
"2  c #2D2443",
"3  c #222C42",
"4  c #2A2A44",
"5  c #222D49",
"6  c #322446",
"7  c #35254A",
"8  c #37284C",
"9  c #3B294E",
"0  c #2A3345",
"q  c #2B3646",
"w  c #25324B",
"e  c #333D45",
"r  c #34364B",
"t  c #36394B",
"y  c #343C4D",
"u  c #3E2A51",
"i  c #273654",
"p  c #283654",
"a  c #2B3A52",
"s  c #283758",
"d  c #2A3A5B",
"f  c #343C59",
"g  c #2E3F61",
"h  c #353B60",
"j  c #3B3A62",
"k  c #432C55",
"l  c #4B2D57",
"z  c #4A2E5A",
"x  c #512F5F",
"c  c #4E315C",
"v  c #453958",
"b  c #54335D",
"n  c #59365E",
"m  c #493B68",
"M  c #543261",
"N  c #5B3464",
"B  c #5D3569",
"V  c #533B6B",
"C  c #5C3E72",
"Z  c #63366C",
"A  c #663869",
"S  c #673D76",
"D  c #6C3A74",
"F  c #713B77",
"G  c #783D76",
"H  c #723B79",
"J  c #7C3E7B",
"K  c #364047",
"L  c #36424B",
"P  c #3A464D",
"I  c #3C494E",
"U  c #2E405C",
"Y  c #384557",
"T  c #3E4B52",
"R  c #314363",
"E  c #3D4E65",
"W  c #364A6A",
"Q  c #384A6C",
"!  c #3A516F",
"~  c #374B70",
"^  c #394E73",
"/  c #3B5175",
"(  c #3D547A",
")  c #3D5878",
"_  c #434E54",
"`  c #434C5B",
"'  c #46555B",
"]  c #45555C",
"[  c #4B565B",
"{  c #4B595E",
"}  c #495564",
"|  c #4D5C63",
" . c #535D61",
".. c #575969",
"X. c #544678",
"o. c #42587C",
"O. c #67477C",
"+. c #78447C",
"@. c #6C5778",
"#. c #546164",
"$. c #53646A",
"%. c #57686D",
"&. c #5B6A6D",
"*. c #4C6271",
"=. c #586872",
"-. c #5B6E73",
";. c #5D7176",
":. c #5F7378",
">. c #626773",
",. c #616D72",
"<. c #657375",
"1. c #63757A",
"2. c #66797D",
"3. c #6C7A7E",
"4. c #823F7C",
"5. c #83437D",
"6. c #914B7E",
"7. c #445D85",
"8. c #495983",
"9. c #465F88",
"0. c #585584",
"q. c #625384",
"w. c #7A5C83",
"e. c #456183",
"r. c #46628A",
"t. c #4C658C",
"y. c #4A6A8E",
"u. c #53658C",
"i. c #58728D",
"p. c #4C6C92",
"a. c #4D6E98",
"s. c #566E91",
"d. c #4E7196",
"f. c #5C7293",
"g. c #52759D",
"h. c #57799B",
"j. c #697D82",
"k. c #767A85",
"l. c #667A9A",
"z. c #717D9A",
"x. c #567CA3",
"c. c #607FA0",
"v. c #803F80",
"b. c #884381",
"n. c #8B4383",
"m. c #944788",
"M. c #9B5B91",
"N. c #AC5490",
"B. c #B25892",
"V. c #86738E",
"C. c #5F859C",
"Z. c #6B838A",
"A. c #738285",
"S. c #728289",
"D. c #798688",
"F. c #7B8C8D",
"G. c #6B839D",
"H. c #798A96",
"J. c #5A83A7",
"K. c #5F8CB4",
"L. c #6789A4",
"P. c #7889A2",
"I. c #6891A5",
"U. c #6890AE",
"Y. c #7B96A9",
"T. c #608EB6",
"R. c #618FB8",
"E. c #6190B7",
"W. c #6A96B6",
"Q. c #6493B9",
"!. c #6B9BBD",
"~. c #729DB6",
"^. c #73A1B5",
"/. c #75A3BC",
"(. c #78A7BF",
"). c #6E9FC0",
"_. c #6FA1C0",
"`. c #72A4C2",
"'. c #78AAC5",
"]. c #7AAEC9",
"[. c #7EB2CA",
"{. c #8A8F97",
"}. c #849394",
"|. c #899998",
" X c #8192A7",
".X c #8594A9",
"XX c #8C9AAC",
"oX c #9698A8",
"OX c #A395A6",
"+X c #87A8AD",
"@X c #97A4A3",
"#X c #98A5B3",
"$X c #9AA8B6",
"%X c #A5A3AB",
"&X c #A4ACAC",
"*X c #A6B1AE",
"=X c #ADAFB6",
"-X c #ACB6B3",
";X c #AEB8B4",
":X c #A8B3BB",
">X c #ABB5BC",
",X c #B6BDBB",
"<X c #81B5CB",
"1X c #83B9CE",
"2X c #92BDC6",
"3X c #86BCD1",
"4X c #89BFD1",
"5X c #ABB6C3",
"6X c #B4BDC1",
"7X c #9EC5C8",
"8X c #8DC1D2",
"9X c #96C8D4",
"0X c #BCC4C3",
"qX c #BBC4CA",
"wX c #A8D5D8",
"eX c #B1DBDB",
"rX c #BCDFDD",
"tX c #C2C9C8",
"yX c #C2C9C9",
"uX c #CCD1CD",
"iX c #C4CCD2",
"pX c #CCD3D3",
"aX c #D5DAD8",
"sX c #C4E1DF",
"dX c #DDE0DE",
"fX c #C8E2E0",
"gX c #D7E4E2",
"hX c #E9EBE7",
/* pixels */
"$ $ O O % % O O $ $ $ + $ u l b n b n v k $ $ $ + $ $ $ + $ $ $ $ $ $ $ $ $ $ $ $ $ $ O O $ $ $ O $ $ $ $ O O O O O $ $ ",
"+ $ % $ O O $ $ $ $ $ % % D m.N.B.B.B.m.G * % $ % $ $ $ $ $ O $ $ $ $ O O % $ $ $ $ % $ $ $ $ $ $ $ $ $ $ 1 O O % + $ $ ",
"$ $ $ + $ $ $ $ $ 8 N +.6.A c n N n n b A 6.+.B k $ + $ O O O O $ O $ % O O O $ O O O O O $ $ $ $ $ $ $ O O O $ % O + $ ",
"$ $ $ $ $ $ O $ $ c J b.m.A l l l l l l N 6.n.v.M $ $ $ w U U g 1 $ $ % s U U i $ % % 1 U 5 $ $ $ $ $ $ O O O 1 $ $ $ $ ",
"% O O O 1 O O O O b m.B k B H H D H H H Z u M m.Z O $ $ 7.K.K.K.i O $ 5 J.K.T.y.1 O O ^ K.~ $ $ O O O O O O O O $ $ $ $ ",
"O O % % O O $ O $ c v.J G H F H H H H H H G J v.M % $ O W a.a.y.i $ O 1 r.a.a.) $ O O R a.y.y.i O 1 O O O 1 O O $ $ $ $ ",
"O % O O % O 1 O + u B J n.v.J +.+.b.J J v.n.v.B k $ $ O W y.r.7.w $ $ 1 o.9.9.~ $ $ O g 9.x.T.R O O O O O O O 1 $ $ $ $ ",
"O O % O O O O O + % + x H n.m.N.B.B.B.m.n.J B % $ $ O O 7.K.p.7.1 $ O 1 o.9.9.~ % O $ g 9.x.T.R O O 1 $ $ O O O $ $ $ $ ",
"O % $ $ $ $ $ $ $ 7 c k u k z b b n b c z u u x u % $ O y.[./.W.W 1 $ 5 L.Q.J.r.i 1 % ) W.E.E.R O $ $ O # $ $ $ $ $ $ $ ",
"1 1 1 1 % - % % $ k +.k + ; 3 @ ; ; ; $ $ % 8 H M O % % d.[.[.[.) s 1 w /.[.Q.g.g w O *.1X/.T.R O O O 1 $ > & 3 > 3 3 q ",
"-.-.-.*.I I P 0 $ k D b 9 B D S D D Z u u 8 z H M $ 1 s y.Q.Q.E.~ s 1 1 J.Q.R.g.d 1 o / Q.E.T.U O O O O & *.-.-.-.-.2.F.",
";.;.| $.A.A.A.#.O k H M 9 B H H F F D u u 9 z H z $ 1 g y.T.J.d.~ s 5 i d.g.g.r.g d 5 ~ x.J.T.R $ *.Z.C.Z.T I E ] ' { #.",
"%.%.T #.*X;X;Xk.O u D x 9 B H H F H D k 9 9 z Z m $ 1 d y.K.a.7.R g g g 7.7.7.( d d d ~ 9.g.K.U % +XeXeX7XY K < e < , # ",
"T T I #.*X-X;Xk.$ % % 6 u Z H H H H D u u 9 7 ; + $ 1 d / r.r.7.g s s g 7.9.9.( d d d ~ 9.9.r.p & W.8X8X8X7XY.- $ - - - ",
"| ' I #.*X*X;X3.% 0 Y r 2 u z z z c k 2 4 2 4 Y a + 5 g ^ 7.7.7.R g s g ( 9.9.( g d s ~ 9.9.9.w % J.].1X8X9X8XZ.| % # # ",
";.-.T #.*X-X-XA.& Y =.L % % % % $ % & % % % y -.` + 1 d ^ r.7.7.R d d g 7.9.9.( s d d ~ 7.9.9.i % y.K.[.3X3X8XeX+X& #   ",
";.-.T #.-X&X|.}.A.} > e P } $.T P | #.P T $.E 3 w i s d / r.9.7.R d d U 7.r.r.( d s s ^ 9.9.9.i $ 3 U /.3X3X8XeX+X% X   ",
"-.&._ #.@X@X|.}.|.<.` y e T ] L e E E e L ] T L Y E E E ! / / / ! E E E / / / / E E E ! / / / R L & & ^.3X3X8XwX^.% o   ",
"-.%.T { }.}.}.}.}.}.}.} % % % % % & % % & % L ;.;.1.:.:.! U d U *.:.;.-.R d h E ;.:.<.} U g U *.-.w 3 ^.8X[.3X3XI.% O   ",
"-.-.I ' 1.2.2.2.2.j.2.3.j.j.3.j.3.3.3.3.2.2.Z.F.F.F.F.F.D.k.S.S.F.F.F.F.S.j.Z.S.F.F.F.H.k.Z.Z.:.-.0 3 /.[.).).3XI.% X   ",
";.%.T { D.}.F.A.-.1.j.S.F.F.F.F.F.F.F.F.F.F.F.F.F.F.F.F.F.F.F.F.F.F.F.F.F.F.F.F.F.F.F.F.F.F.F.j.-.0 & ^.3XQ.Q.3XI.% o   ",
"-.-.T $.tXtXuX@X;.A.}.A.;.;.;.;.;.;.;.;.;.;.;.;.-.;.;.;.;.;.;.;.;.;.;.;.;.;.:.,.;.;.;.;.;.-.;.;.-.0 1 ^.[.Q.!.3XI.% o   ",
";.%.T #.-X0XuX@X:.F.&XF.;.I < 0 < < < < < < < < < < < < < < < < < < < < , < < < 0 < < < < | ;.;.-.q 1 ^.1XQ.!.3XI.% o   ",
";.;._ #.*X-X,XoX;.F.-XA.| 0 # $ $ # # $ $ $ $ # # > > > > & & & > & # $ # $ $ $ $ # # $ # L | -.-.q 1 ^.1XQ.Q.3XI.% o   ",
"-.%.T #.-XOX+.@.;.}.-X .. w d s d s s s s s s s W 7.7.7.8.7.o.7.8.o.R s s s d d s s s s i > # ' -.q & ^.[.Q.!.3XI.% #   ",
"] { I #.*XoXb.@.-.}.-X .  w d d s d d d R / / ^ i.#X#X#X#X#X#X#X$XXX7.^ / ~ d d d d d d U % # E ;.0 & ^.3XQ.Q.8XI.$ $ X ",
"T T I #.*XOXM.V.;.}.-X .  w d f h h h g Q s.f.f.Y.,X6X6X6X6X,X0X6X>Xl.f.f.u.R h h h f g d &   T *.L U I.W.J.J.^.C.i 1 O ",
"-.%.T #.*X=X&X{.-.{.-X .  5 d C S S S 8.f.0XqXyX#Xr.t.t.t.t.t.t.u.f.>XyXyX:Xr.o.H S S m d &   $ & y.J.i & & & 1 R J.e.O ",
"-.&._  .*X%XV.k.;.}.;X .  5 g Z H q.q..XXXY. X XY.U.U.U.U.U.U.U.U.U. X X X.XXXP.0.O.H V d &   X % d.K.^ U U R U ^ g.( % ",
"-.%._  .*XOXG O.-.}.;X .  5 g C O.u.l.6X:Xs.t.t.J.1X<X1X1X1X1X1X1X<Xg.t.t.l.6X$Xs.0.O.m d & # X % r.J.p.y.9.9.r.7.o.R O ",
"-.-._  .&XOXm.+.;.}.;X .  5 d ( u.=X:Xf.l.'.[.[.`.Q.Q.Q.Q.Q.Q.Q.Q.Q.'.<X<X~.f.P.6XoX8.~ s & # $ $ 1 i g.K.r.9.r.^ 1 % O ",
"| #.<.}.*X%XOXV.-.}.;X .  s ^ z.XXpXiXu.d.1X<X'.`.`._.`.`._.`.`.`.`.`.'.3X'.9.P.aX6X.Xf.W 3   L | 3 % ~ ( R g R i % $ X ",
"I { *X;X*X&X&X{.;.}.;X .  W t.:XpXdXpXf.g.<X].Q._.3X3X4X8X8X1X8X8X1X!.Q.[.(.y.P.dXaXuXXX7.a   ,.|.y $ & > & & 1 & $ X   ",
"P { ,X,XA.=.t ` ;.}.;X .  W t.>XtXG.l.'.'.W.!.<X1X3X9XwXwXwXwXwX8X1X[.[.!.!.'.~.h.XXuXXX7.p . ,.}.y & J.~.J.J.^.C.$ X   ",
"P  .0X-X} Y @ r ] k.;X .  W t.:XqXs.t.<X<XR.!.3X4X9XwXeXrXsXrXeX9X9X8X[.E.!.1X/.7.P.uXXX7.a   ,.}.L 1 ^.1X!.!.8XI.% O   ",
"P  .0X&X4 @ u 7 + >.;X .  W t.>XyXf.t.<X].R.!.3X9XeXeXeXgXhXsXeXeXeX8X[.Q.!.1X/.7.P.uXXX7.a   ,.}.y & ^.[.Q.Q.1XI.% X   ",
"P  .0X&X* 6 Z l @ >.;X .  W 9.>XqXf.t.<X<XR.!.1X9XrXeXeXgXhXsXeXeXeX8X[.!.!.3X!.e.G.uXXX9.a . ,.}.L 1 ^.1XQ.Q.3XI.% X   ",
"I { 0X&X2 7 H x o >.;X .  R t.>XyXf.p.<X<XR.!.3X8XwXwXeXfXgXrXeXwXwX8X[.Q.Q.3X/.9.P.uXXX7.a   ,.}.y 1 /.[.Q.Q.[.J.% # # ",
"I  .0X&X; 7 H x @ >.-X .  W t.>XyXf.u.<X<XR.!.3X1X4X9XeXeXeXeXwX8X8X[.[.Q.!.[./.r.P.uXXXe.a . ,.}.L 1 ^.3XQ.T.R.d.% $ # ",
"I #.0X&X; 7 H b o >.-X .  W t.>XpXqX5Xc.c.'.].!.`.4X8X9X9X9X9X9X8X1X`.).].`.C.L.$X6XuXXX9.q   ,.}.L & /.[.Q.K.R.y.% # # ",
"I  .0X%X4 7 H x + @.;X .  R 8.XX6XdXaXP.L.~./.Q._.[.[.[.].[.].[.<X].!.!.'.~.L.XXuXyX>XG.o.w   ,.}.L 3 ^.<XQ.T.Q.p.% o   ",
"I  .0X&X; 6 H x + >.;X .  4 U o.u.6XpXhXiXu.x.<X'.R.R.K.Q.E.E.T.R.R.<X<Xu.l.dXaXuX#Xt.^ d 4 . ,.}.y 1 /.1XQ.K.R.p.% o   ",
"P  .0X&X; 6 H N 2 v } 4   w d X.q.z. XpXaX6X2Xc.x.a.a.a.a.a.a.a.a.a.x.L.5X6XaX0XP.f.O.m s ; . ,.}.y 1 ^.3XE.E.R.d.% o . ",
"P | 0X&X2 7 D B 9 2 @     w d S H 0.u.=X6XaX5Xf.f.f.f.f.f.f.f.f.f.f.f.l.iXpX6X#X8.q.G V d > . &.F.y 1 L.W.J.h.x.e.* +   ",
"P  .0X&X; 6 H B k 2 @ o . w d S H H O.9.t.t.G.qXqXyX0XtX0XyXyXyXyXyXyX6Xf.y.t.0.H H H m d & . ] <.v 8 2 4 @ 3 ; 4 9 :   ",
"P  .0X&X: 7 H B 7 2 + o . w d j m m m ~ ^ 9.s.Y. X X X X XY. X X X X XP.r.7.~ Q m m m h d &   ] :.v 9 z z N N z k u 2   ",
"P  .0X&X; 7 F Z k 6 + + . 3 s i i i i i f ( ( / ( ( ( ( ( ( / / ( ( ( ( ( ^ i i i i i i s 3 # | -.v 9 Z F n.4.D B 9 :   ",
"P  .0X&X@ 7 F F D k @ + + O X . X X . . # $ # # $ # # $ # $ # # O # + O # $ X X X # X X # I %.-.-.v 9 k k k k k k k :   ",
"P  .0X,X3.>.l n H N k 6 + f [ [ [ [ [ [ [ [ [ [ { [ [ { [ [ [ [ [ [ [ [ [ { { { { [ [ [ [ <.S.2.-.v u Z Z M M M z u 2 . ",
"K { ,XtXuXoX+ k F F H k : >.}.}.}.}.|.|.}.|.|.}.|.|.}.|.}.}.}.}.}.|.}.}.}.}.}.}.|.}.}.}.{.}.|.j.;.v k 5.n.F F F B u : . ",
"# < |.@X@X3.@ @ k B F J 4.l 0 4 r D.|.|.|.}.}.|.|.}.}.{.,.[ ' [ D.}. . .}.D.[ %.}.V.+.+.+.k.{.j.-.v u k l k k k k u :   ",
"  - F.}.}.k.` v 2 k B G n.Z l l l ..>.&.1.}.|.}.}.|.}.}.3.%.%.&.F.}.,.&.}.F.&.<.|.D.w.w.w.D.|.j.-.t 6 l M N N x l : *   ",
". , D.}.}.}.}.>.; 6 9 N D b.m.m.4.7 @ @ t }.}.}.}.}.F.}.}.}.}.}.}.}.}.}.}.}.}.}.}.}.}.}.}.}.F.2.%., # A F m.n.F M #     ",
", < < < , [ }.}.k.` @ 2 6 l x F 4.J G G D t r 0 t t r r < < , < , < , < , < , , e < , , , < e , - , , = @ = = @ - , -   ",
"_ I - # # < ,.,.<._ o + O : 7 z N F 4.n.G 9 6 @ @ + ; r *   # # # # # # # # # # # # # # # # # # - < e = # - # # - K -   ",
";.%.K K K , # . o . . .   + + $ @ 7 k D F F N k 6 + Y <.e   , e e K e K K e e K e K K e e e e K e e e e e e e e K K , # ",
"-.;.#.#.$.] , < , < , , , # # Y } 2 @ 7 6 6 6 : @ + } }._ . , e e e e < K e e K e K e e e e e e e e e e e e e e e K , # ",
"-.:.2.2.:.$.T T T T T L K # # $.1.` t t t t t t t t } 3.K   , e _ [ _ _ I I I I I T T I I I T I T T I T T I T [ _ T L - ",
";.1.F.F.;.;.-.;.;.;.;.T K # # 2.}.{.{.}.}.}.}.}.}.}.... . . , L 3.}.<.;.;.;.;.;.-.;.;.;.;.;.-.;.-.;.;.-.;.-.1.}.F.;.{ - ",
"-.;.%.;.;.;.;.;.;.;.:.%.| K - I _ _ _ _ _ _ _ _ _ _ K = #   I | #.&.;.;.;.;.;.:.;.;.;.;.;.;.;.;.;.;.;.;.;.;.;.&.%.;.| - "
};
