/* XPM */
static char *result[] = {
/* columns rows colors chars-per-pixel */
"60 60 86 1 ",
"  c #1D0000",
". c #1E0000",
"X c #1F0000",
"o c #1F0001",
"O c #1F0102",
"+ c #200001",
"@ c #200102",
"# c #200203",
"$ c #210203",
"% c #230506",
"& c #230607",
"* c #240708",
"= c #250709",
"- c #24090B",
"; c #2A0D0E",
": c #2A0E10",
"> c #2B1012",
", c #2F1416",
"< c #2E1619",
"1 c #32191C",
"2 c #321E23",
"3 c #3E2729",
"4 c #392F37",
"5 c #432C2E",
"6 c #47363B",
"7 c #4F3B3E",
"8 c #403943",
"9 c #453B44",
"0 c #463F48",
"q c #4D4046",
"w c #50454C",
"e c #584E56",
"r c #615155",
"t c #635D65",
"y c #69626A",
"u c #676671",
"i c #696974",
"p c #736C73",
"a c #716B74",
"s c #7C6D70",
"d c #73737D",
"f c #77767F",
"g c #767883",
"h c #787983",
"j c #898085",
"k c #8B8285",
"l c #888187",
"z c #828089",
"x c #838690",
"c c #8F8F98",
"v c #938C91",
"b c #9599A2",
"n c #989BA4",
"m c #9A9EA8",
"M c #9EA1A9",
"N c #9BA1AD",
"B c #9EA2AC",
"V c #A2A6AF",
"C c #A8A8AF",
"Z c #A1A7B1",
"A c #A3A8B3",
"S c #A8ADB7",
"D c #AFB2B9",
"F c #B0B4BC",
"G c #B0B6BF",
"H c #BEC3CA",
"J c #C1C3C9",
"K c #C0C3CA",
"L c #C3C6CD",
"P c #C2C6CE",
"I c #C9CCD1",
"U c #CFD1D4",
"Y c #CCD0D6",
"T c #CED1D6",
"R c #D6D8DA",
"E c #D5D8DD",
"W c #DBDDE1",
"Q c #DFE0E1",
"! c #E1E2E3",
"~ c #E1E2E4",
"^ c #E3E3E5",
"/ c #E7E7E7",
"( c #E9E9EB",
") c #F0F0F1",
"_ c gray95",
"` c None",
/* pixels */
"````````````````````````````````````````````````````````````",
"````````````````````````````````````````````````````````````",
"````````````````````````````````````````````````````````````",
"````````````````````````````````````````````````````````````",
"````````````````````````````````````````````````````````````",
"````````````````````````````````````````````````````````````",
"````````````````````````````````````````````````````````````",
"````````````````````````````````````````````````````````````",
"````````````````````````````````````````````````````````````",
"````````````````````````````````````````````````````````````",
"````````````````````````````````````````````````````````````",
"````````````````````````````````````````````````````````````",
"````````````````````````````````````````````````````````````",
"````````````````````````````````````````````````````````````",
"````````````````````````````````````````````````````````````",
"````````````````````````````````````````````````````````````",
"````````````````````````````````````````````````````````````",
"````````````````````````````````````````````````````````````",
"````````````````````````````````````````````````````````````",
"````````````````````````````````````````````````````````````",
"````````````````````````````````````````````````````````````",
"````````````````````````````````````````````````````````````",
"````````````````````````````````````````````````````````````",
"````````````````````````````m```````````````````````````````",
"```````````````````````````gy<``````````````````````````````",
"``````````````````````````a6>.2h````````````````````````````",
"``````````````````````````r o@=wd```````````````````````````",
"``````````````````````````5.@@X1z```````````````````````````",
"`````````````````````````c,o@@@*tb``````````````````````````",
"`````````````````````````p$@@@@&8f``````````````````````````",
"`````````````````````````l%@@@@%0u``````````````````````````",
"``````````````````````````:o@@@#ex``````````````````````````",
"``````````````````````````3.@@@.qn)`````````````````````````",
"``````````````````````````v;o@+O9M_`````````````````````````",
"``````````````````````````J7X.-4iD/`````````````````````````",
"``````````````````````````ECksjVST``````````````````````````",
"```````````````````````````IPYLAG!``````````````````````````",
"````````````````````````````RWZNK```````````````````````````",
"`````````````````````````````(BHU```````````````````````````",
"`````````````````````````````QF~````````````````````````````",
"``````````````````````````````^`````````````````````````````",
"````````````````````````````````````````````````````````````",
"````````````````````````````````````````````````````````````",
"````````````````````````````````````````````````````````````",
"````````````````````````````````````````````````````````````",
"````````````````````````````````````````````````````````````",
"````````````````````````````````````````````````````````````",
"````````````````````````````````````````````````````````````",
"````````````````````````````````````````````````````````````",
"````````````````````````````````````````````````````````````",
"````````````````````````````````````````````````````````````",
"````````````````````````````````````````````````````````````",
"````````````````````````````````````````````````````````````",
"````````````````````````````````````````````````````````````",
"````````````````````````````````````````````````````````````",
"````````````````````````````````````````````````````````````",
"````````````````````````````````````````````````````````````",
"````````````````````````````````````````````````````````````",
"````````````````````````````````````````````````````````````",
"````````````````````````````````````````````````````````````"
};
