/* XPM */
static char *result[] = {
/* columns rows colors chars-per-pixel */
"60 60 201 2 ",
"   c #384A51",
".  c #394A51",
"X  c #2E3E47",
"o  c #2E3F47",
"O  c #3D5157",
"+  c #455A60",
"@  c #3D5057",
"#  c #202E37",
"$  c #202D37",
"%  c #435A60",
"&  c #567276",
"*  c #435B60",
"=  c #212E37",
"-  c #1F2E37",
";  c #445A61",
":  c #536E72",
">  c #405359",
",  c #3F5259",
"<  c #3F535A",
"1  c #536E73",
"2  c #557276",
"3  c #526E72",
"4  c #3B4B53",
"5  c #394B52",
"6  c #526D71",
"7  c #577276",
"8  c #526D72",
"9  c #3B4C53",
"0  c #394C52",
"q  c #567377",
"w  c #3C4F55",
"e  c #3F5359",
"r  c #3C4F56",
"t  c #475F64",
"y  c #567175",
"u  c #557175",
"i  c #4B6267",
"p  c #4A6267",
"a  c #485F64",
"s  c #476064",
"d  c #577377",
"f  c #4B6268",
"g  c #485F65",
"h  c #4C6268",
"j  c #394A52",
"k  c #394951",
"l  c #384951",
"z  c #516B70",
"x  c #4A5F66",
"c  c #486165",
"v  c #3A4C53",
"b  c #3A4C54",
"n  c #496066",
"m  c #3D4E55",
"M  c #3C4E55",
"N  c #3B4E55",
"B  c #485E64",
"V  c #3C4F57",
"C  c #3A4B52",
"Z  c #394B53",
"A  c #3A4B53",
"S  c #495E63",
"D  c #3E5057",
"F  c #546F73",
"G  c #567277",
"H  c #546E73",
"J  c #4A6367",
"K  c #3A4A51",
"L  c #4D6268",
"P  c #536F73",
"I  c #3B4E54",
"U  c #3A4D53",
"Y  c #4D666A",
"T  c #3A4A52",
"R  c #4D666B",
"E  c #3B4C54",
"W  c #394C53",
"Q  c #4C646A",
"!  c #4E676C",
"~  c #526C70",
"^  c #4E696D",
"/  c #41555B",
"(  c #40555B",
")  c #3A4D54",
"_  c #41555C",
"`  c #50696E",
"'  c #4C6469",
"]  c #42555C",
"[  c #465A61",
"{  c #445A60",
"}  c #374A51",
"|  c #546F74",
" . c #506A6F",
".. c #547073",
"X. c #42565C",
"o. c #536F72",
"O. c #516A6F",
"+. c #547074",
"@. c #506B6F",
"#. c #42575D",
"$. c #43575E",
"%. c #42575C",
"&. c #43575D",
"*. c #42565D",
"=. c #465C62",
"-. c #465D62",
";. c #4B6368",
":. c #4B6369",
">. c #475C62",
",. c #384A52",
"<. c #567176",
"1. c #526F72",
"2. c #4F696E",
"3. c #40535A",
"4. c #465B62",
"5. c #41575C",
"6. c #455A61",
"7. c #577277",
"8. c #384B51",
"9. c #1E2B34",
"0. c #1D2B34",
"q. c #4F696D",
"w. c #4B6469",
"e. c #36454D",
"r. c #34444C",
"t. c #36484F",
"y. c #37484F",
"u. c #516B6F",
"i. c #3E5258",
"p. c #131C26",
"a. c #28333B",
"s. c #303F46",
"d. c #2E3C44",
"f. c #212A34",
"g. c #212933",
"h. c #222B34",
"j. c #2F3D44",
"k. c #31424A",
"l. c #202933",
"z. c #303E46",
"x. c #313F47",
"c. c #324249",
"v. c #4E666B",
"b. c #3B4D54",
"n. c #263039",
"m. c #2A363F",
"M. c #2A373F",
"N. c #2F3E45",
"B. c #303F47",
"V. c #28333C",
"C. c #27323B",
"Z. c #2B3740",
"A. c #2B363F",
"S. c #35454C",
"D. c #4B6168",
"F. c #28343D",
"G. c #2F3F46",
"H. c #222B36",
"J. c #324149",
"K. c #29343D",
"L. c #2F3D45",
"P. c #222B35",
"I. c #314048",
"U. c #374850",
"Y. c #232B35",
"T. c #232C36",
"R. c #232D37",
"E. c #222D36",
"W. c #2A353E",
"Q. c #28323C",
"!. c #4A6268",
"~. c #26313A",
"^. c #2C3840",
"/. c #2B3840",
"(. c #28323B",
"). c #455B61",
"_. c #4C666A",
"`. c #43595E",
"'. c #1C2932",
"]. c #2A3740",
"[. c #2C3941",
"{. c #2C3940",
"}. c #4E676B",
"|. c #2B3942",
" X c #2F3E46",
".X c #303E45",
"XX c #303D45",
"oX c #2E3E46",
"OX c #304047",
"+X c #304048",
"@X c #557074",
"#X c #425A5F",
"$X c #202F38",
"%X c #212F38",
"&X c #213039",
"*X c #212934",
"=X c #2C373F",
"-X c #202A33",
";X c #202934",
":X c #202932",
">X c #2B373F",
/* pixels */
"                                                                                                                        ",
"      . . . . . . . . . . . . . . . . . . . . . . . . . . . . . . . . . . . . . . . . . . . . . . . . . . . . .         ",
"X X o O + + + + + + + + + + + + + + + + + + + + + + + + + + + + + + + + + + + + + + + + + + + + + + + + + + + + @ X X o ",
"# # $ % & & & & & & & & & & & & & & & & & & & & & & & & & & & & & & & & & & & & & & & & & & & & & & & & & & & & * # = # ",
"# # - ; & & & & & & & & & & & & & & & & & & & & & & & & & & & & & & & & & & & & & & & & & & & & & & & & & & & & * # # # ",
"# # - ; & & & & & & & & & & & & & & & & & & & & & & & & & & & & & & & & & & & & & & & & & & & & & & & & & & & & * # # # ",
"# # - ; & & : > , , , , , , , , , , , , , , , , , , , , , , , , , , , , , , , , , , , , , , , , , , , , < 1 2 & * # # # ",
"# # - ; & & 3 4                                                                                         5 6 7 & * # # # ",
"# # - ; & & 8 9                                                                                         0 3 q & * # # # ",
"# # - ; & & 8 9     w e < < < < e r                                                 r < < < < < e w     0 3 q & * # # # ",
"# # - ; & & 8 9     t & y y y y u i                                                 p y y y y y u a .   0 3 q & * # # # ",
"# # - ; & & 8 9     s d & & & & 2 f .                                               p & & & & & & g .   0 3 q & * # # # ",
"# # - ; & & 8 9     t d & & & & 2 h j j k l                                   . j j f & & & & & & g .   0 3 q & * # # # ",
"# # - ; & & 8 9     s d & & & & & z x x c v                                 b n n x z & & & & & & g .   0 3 q & * # # # ",
"# # - ; & & 8 9     t d & & & & & & & & & m                                 M & & & & & & & & & & g .   0 3 q & * # # # ",
"# # - ; & & 8 9     t d & & & & & & & & & m                                 N & & & & & & & & & & a .   0 3 q & * # # # ",
"# # - ; & & 8 9     B u u u & & & & & & & V C C 5                   l Z A C r & & & & & & & u u u S .   0 3 q & * # # # ",
"# # - ; & & 8 9     4 N M D F & & & & & G H H 1 J K                 . L H 1 H & & & & & & P D M I v     0 3 q & * # # # ",
"# # - ; & & 8 9           U 1 & & & & & & & & & Y T                 . R & & & & & & & & & 1 E           0 3 q & * # # # ",
"# # - ; & & 8 9           U 1 & & & & & & & & & Y T                 . R & & & & & & & & & 1 E           0 3 q & * # # # ",
"# # - ; & & 8 9           W Q ! ! ~ & & & & & & ^ / ( ( )     E / ( _ ` & & & & & & z ! ! ' v           0 3 q & * # # # ",
"# # - ; & & 8 9             T T . + & & & & & & & & & & (     ] & & & 2 & & & & & & + T . .             0 3 q & * # # # ",
"# # - ; & & 8 9                 . [ & & & & & & & & & & (     ] & & & & & & & & & & {   }               0 3 q & * # # # ",
"# # - ; & & 8 9                 . [ & & & & & & & & & & (   . ] & & & & & & & & & & {                   0 3 q & * # # # ",
"# # - ; & & 8 9                   M / / / | & & & & & &  .! !  .& & & & & & ..X./ / M                   0 3 q & * # # # ",
"# # - ; & & 8 9                         . P & & & & & & & & & & & & & & & & o.C .                       0 3 q & * # # # ",
"# # - ; & & 8 9                         . H & & & & & & & & & & & & & & & & 3 T                         0 3 q & * # # - ",
"# # - ; & & 8 9                           O.H F +.G & & & & & & & & & | H F @.T .                       0 3 q & * # # # ",
"# # - ; & & 8 9                           5 5 5 #.& & & & & & & & & & $.C 5 5                           0 3 q & * # # - ",
"# # - ; & & 8 9                                 %.7 & & & & & & & & & &.                                0 3 q & * # # # ",
"# # - ; & & 8 9                           j . . #.& & & & & & & & & & *.. . .                           0 3 q & * # # - ",
"# # - ; & & 8 9                           [ =.-.;.& & & & & & & & & & :.>.-.{ .                         0 3 q & * # # - ",
"# # - ; & & 8 9                         . H & & & & & & & & & & & & & & & & 3 K                         0 3 q & * # - # ",
"# # - ; & & 8 9                         . P & & & & & & & & & & & & & & & & o.C .                       0 3 q & * # # # ",
"# # - ; & & 8 9                   ,.5 5 5 H & & & & & & y y y <.& & & & & & 1.C 5 5                     0 3 q & * # # # ",
"# # - ; & & 8 9                 . *.2.2.2.u & & & & & & =.3.e 4.& & & & & & u ` 2.2.5.                  0 3 q & * # # # ",
"# # - ; & & 8 9                   6.& 7.& & & & & & & & (   8.] & & & & & & & & 7 7.{                   0 3 q & * # # # ",
"# # - ; & & 8 9                 . [ & & & & & & & & & & (   . ] & & & & & & & & & & {                   0 3 q & * # # # ",
"9.9.0.< q.q.w.e.r.r.r.r.r.r.t.y.y.] q.q.q.q.q.q.2.u.u.@.e   . 3.u.u.u.+.& & & & & & a i.i.O j           0 3 q & * # # # ",
"p.p.p.a.s.s.d.f.g.g.g.g.g.h.j.s.s.s.s.s.s.s.s.s.k.j                 . R & & & & & & & & & P E           0 3 q & * # # # ",
"p.p.p.a.s.s.d.f.g.g.g.g.g.h.j.s.s.s.s.s.s.s.s.s.k.j                 . R & & & & & & & & & 1 E           0 3 q & * # # # ",
"p.p.p.a.s.s.d.f.g.g.l.g.g.f.j.s.s.s.s.s.s.z.z.x.c.j j j               v.& & 2 & & & & & & H b.j . . l   0 3 q & * # # # ",
"p.p.p.a.s.s.d.f.g.g.n.m.m.M.N.s.s.s.s.s.B.V.C.C.V.Z.A.A.S.            _ + + >.& & & & & 2 u :.D.p #..   0 3 q & * # # # ",
"p.p.p.a.s.s.d.f.g.g.F.s.s.s.s.s.s.s.s.s.G.H.g.g.g.g.g.g.J.                  N & & & & & & & & & 2 g .   0 3 q & * # # # ",
"p.p.p.a.s.s.d.f.g.g.K.s.s.s.s.s.s.s.s.s.G.H.g.g.g.g.g.g.J.                  M & & & & & & & & & & g .   0 3 q & * # # # ",
"p.p.p.a.s.s.d.f.g.g.K.s.s.s.s.s.s.z.N.N.L.P.g.g.g.g.g.g.I.t.y.U.            N | | F u & & & & & & g .   0 3 q & * # # # ",
"p.p.p.a.s.s.d.f.g.g.K.s.s.s.s.s.z.Z.Y.P.P.f.g.g.g.g.g.g.T.R.E.W.            T M M m ' & & & & & & g .   0 3 q & * # # # ",
"p.p.p.a.s.s.d.f.g.g.K.s.s.s.s.s.s.m.g.g.g.g.g.g.g.g.g.g.g.g.l.Q.                    p & & & & & & g .   0 3 q & * # # # ",
"p.p.p.a.s.s.d.f.g.g.K.s.s.s.s.s.s.M.g.g.g.g.g.g.g.g.g.g.g.g.l.Q.                    !.& & & & & & g .   0 3 q & * # # # ",
"p.p.p.a.s.s.d.f.g.g.~.^./././././.(.g.g.g.g.g.g.g.g.g.g.g.g.l.Q.                    ).R R R R R _.`..   0 3 q & * # # # ",
"p.p.p.a.s.s.d.f.g.g.g.g.g.g.g.g.l.g.g.g.g.g.g.g.g.g.g.g.g.g.l.Q.                    . T T T T T T .     0 3 q & * # # # ",
"p.p.p.a.s.s.d.f.g.g.g.g.g.g.g.g.g.g.g.g.g.g.g.g.g.g.g.g.g.g.l.Q.                                        0 3 q & * # # # ",
"p.p.p.a.s.s.d.f.g.g.g.g.g.g.g.g.g.g.g.g.g.g.g.g.g.g.g.g.g.g.l.Q.                                        0 3 q & * # # # ",
"'.'.'.].s.s.N.[.{.{.{.{.{.{.{.{.{.{.{.{.{.{.{.{.{.{.{.[.e =.=.g R v.v.v.v.v.v.v.v.v.v.v.v.v.v.v.v.v.v.v.}.u & & * # # # ",
"# # # |.s.s.s.s.s.s.s.s.s.s.s.s.s.s.s.s.s.s.s.s.s.s.s.s.' & & & & & & & & & & & & & & & & & & & & & & & & & & & * # # # ",
"# # # |.s.s.s.s.s.s.s.s.s.s.s.s.s.s.x.x.x.x.x.x.x.x.x.x.' 7 7 7 7 7 7 7 7 7 7 7 7 7 7 7 7 7 7 7 7 7 7 7 7 7 7 7 { # - # ",
"# # # ]. Xz.z.z.z.z.z.z.z.z.z..XXXoXOX+X+X+X+X+X+X+X+XI.!.@X@X@X@X@X@X@X@X@X@X@X@X@X@X@X@X@X@X@X@X@X@X@X@X@X@X@X#X$X%X&X",
"g.g.g.*X*Xf.f.f.f.f.f.f.f.f.f.g.l.Z.                      5 5 5 5 5 5 5 5 5 5 5 5 5 5 5 5 5 5 5 5 5 5 5 5 5 5 5         ",
"g.g.g.g.g.g.g.g.g.g.g.g.g.g.g.g.l.=X                                                                                    ",
"g.g.-Xg.g.g.g.g.;X;Xg.g.g.g.g.g.:X>X                                                                ,.,.  .             "
};
