/* XPM */
static char *result[] = {
/* columns rows colors chars-per-pixel */
"60 60 141 2 ",
"   c #3C494F",
".  c #3D4950",
"X  c #3D4B51",
"o  c #3E4B51",
"O  c #3D4A50",
"+  c #3C4950",
"@  c #3D4A51",
"#  c #3D494F",
"$  c #313D44",
"%  c #323E45",
"&  c #435258",
"*  c #4C5C61",
"=  c #4B5B60",
"-  c #4F5F64",
";  c #5C6B6E",
":  c #5E6C6F",
">  c #5D6C6F",
",  c #526267",
"<  c #4B5B61",
"1  c #56666A",
"2  c #5A696C",
"3  c #4D5D62",
"4  c #313C44",
"5  c #232E36",
"6  c #242E37",
"7  c #4A5B61",
"8  c #5D7276",
"9  c #5C7175",
"0  c #667A7D",
"q  c #849594",
"w  c #879795",
"e  c #869795",
"r  c #6D8083",
"t  c #5C7176",
"y  c #5D7176",
"u  c #76888A",
"i  c #879796",
"p  c #7F9090",
"a  c #607479",
"s  c #3D4D53",
"d  c #222D35",
"f  c #232D36",
"g  c #242F37",
"h  c #66797C",
"j  c #869695",
"k  c #6D8082",
"l  c #5C7075",
"z  c #768889",
"x  c #65787B",
"c  c #7F8F8F",
"v  c #819191",
"b  c #819190",
"n  c #6B7E80",
"m  c #738586",
"M  c #819291",
"N  c #7B8B8C",
"B  c #607478",
"V  c #5C7276",
"C  c #5D7175",
"Z  c #596B70",
"A  c #4C5A5F",
"S  c #4B595D",
"D  c #4C595D",
"F  c #55676C",
"G  c #4B585D",
"H  c #4E5D62",
"J  c #5B6F74",
"K  c #55686C",
"L  c #4F6167",
"P  c #49585E",
"I  c #3C484F",
"U  c #425056",
"Y  c #5A6E73",
"T  c #3F4B51",
"R  c #4F6166",
"E  c #49595E",
"W  c #596E72",
"Q  c #576B6F",
"!  c #48575D",
"~  c #54676B",
"^  c #506166",
"/  c #48575C",
"(  c #4B5C61",
")  c #5A6F73",
"_  c #243038",
"`  c #253039",
"'  c #253139",
"]  c #25313A",
"[  c #222E36",
"{  c #253038",
"}  c #63777A",
"|  c #788A8A",
" . c #798B8B",
".. c #687B7E",
"X. c #6E8183",
"o. c #7A8B8B",
"O. c #748687",
"+. c #5F7377",
"@. c #879896",
"#. c #667A7C",
"$. c #859595",
"%. c #879897",
"&. c #627678",
"*. c #748485",
"=. c #758585",
"-. c #758485",
";. c #6C7D7F",
":. c #768586",
">. c #718182",
",. c #56696D",
"<. c #424F56",
"1. c #414D53",
"2. c #516368",
"3. c #404D53",
"4. c #465459",
"5. c #3F4C52",
"6. c #506167",
"7. c #425157",
"8. c #4F6266",
"9. c #425156",
"0. c #5A6E72",
"q. c #596D72",
"w. c #506267",
"e. c #526469",
"r. c #5B7074",
"t. c #5C7275",
"y. c #5E7276",
"u. c #27323A",
"i. c #28333B",
"p. c #48595E",
"a. c #586C70",
"s. c #586B70",
"d. c #3D4C52",
"f. c #263139",
"g. c #28343B",
"h. c #3A474D",
"j. c #3B474E",
"k. c #3E4C52",
"l. c #404E54",
"z. c #3B484E",
"x. c white",
/* pixels */
"    . X o o o o o o o o o o o o o o o o o o o o o o o o o o o o o o o o o o o o o o o o o o o o o o o o o o o o O   + . ",
"O O O O O O O O O O O O O O O O O O O O O O O O O O O O O O O O O O O O O O O O O O O O O O O O O O O O O O O O O O O O ",
"O O @ O # #           # # # # # # # # # # # # # # # # # # # # # # # # # # # # # # # # # # # # #           . # # O O O @ ",
"$ $ % & * = - ; : > , < = = = = = = = = = = = = = = = = = = = = = = = = = = = = = = = = = = = = < 1 : : 2 3 = * X 4 $ % ",
"5 5 6 7 8 9 0 q w e r t 9 9 9 9 9 9 9 9 9 9 9 9 9 9 9 9 9 9 9 9 9 9 9 9 9 9 9 9 9 9 9 9 9 9 9 9 y u i i p a 9 8 s d f g ",
"5 5 g 7 8 9 h q e j k l 9 9 9 9 9 9 9 9 9 9 9 9 9 9 9 9 9 9 9 9 9 9 9 9 9 9 9 9 9 9 9 9 9 9 9 9 9 z i i p a 9 8 s d 5 g ",
"5 5 g 7 8 9 x c v b n 9 9 9 9 9 9 9 9 9 9 9 9 9 9 9 9 9 9 9 9 9 9 9 9 9 9 9 9 9 9 9 9 9 9 9 9 9 9 m M v N B 9 V s d 5 g ",
"5 5 g 7 8 C Z A S D F y 9 9 9 9 9 9 9 9 9 9 9 9 9 9 9 9 9 9 9 9 9 9 9 9 9 9 9 9 9 9 9 9 9 9 9 9 9 , G G H J 9 V s d 5 g ",
"5 5 g 7 8 C K o     L 8 9 9 9 9 9 9 9 9 9 9 9 9 9 9 9 9 9 9 9 9 9 9 9 9 9 9 9 9 9 9 9 9 9 9 9 9 9 P I   U Y 9 8 s d 5 g ",
"5 5 g 7 8 9 K T     R 8 9 9 9 9 9 9 9 9 9 9 9 9 9 9 9 9 9 9 9 9 9 9 9 9 9 9 9 9 9 9 9 9 9 9 9 9 9 E     U W 9 V s d 5 g ",
"5 5 g 7 8 9 Q E ! ! ~ C 9 9 9 9 9 9 9 9 9 9 9 9 9 9 9 9 9 9 9 9 9 9 9 9 9 9 9 9 9 9 9 9 9 9 9 9 9 ^ / ! ( ) 9 8 s d 5 g ",
"5 5 g 7 8 9 9 9 9 9 9 9 9 9 9 9 9 9 9 9 9 9 9 9 9 9 9 9 9 9 9 9 9 9 9 9 9 9 9 9 9 9 9 9 9 9 9 9 9 9 9 9 9 9 9 8 s d 5 g ",
"5 5 g 7 8 9 9 9 9 9 9 9 9 9 9 9 9 9 9 9 9 9 9 9 9 9 9 9 9 9 9 9 9 9 9 9 9 9 9 9 9 9 9 9 9 9 9 9 9 9 9 9 9 9 9 8 s d 5 g ",
"5 5 g 7 8 9 9 9 9 9 9 9 9 9 9 9 9 9 9 9 9 9 9 9 9 9 9 9 9 9 9 9 9 9 9 9 9 9 9 9 9 9 9 9 9 9 9 9 9 9 9 9 9 9 9 8 s d 5 g ",
"5 5 g 7 8 9 9 9 9 9 9 9 9 9 9 9 9 9 9 9 9 9 9 9 9 9 9 9 9 9 9 9 9 9 9 9 9 9 9 9 9 9 9 9 9 9 9 9 9 9 9 9 9 9 9 8 s d 5 g ",
"5 5 g 7 8 9 9 9 9 9 9 9 9 9 9 9 9 9 9 9 9 9 9 9 9 9 9 9 9 9 9 9 9 9 9 9 9 9 9 9 9 9 9 9 9 9 9 9 9 9 9 9 9 9 9 8 s d 5 g ",
"5 5 g 7 8 9 9 9 9 9 9 9 9 9 9 9 9 9 9 9 9 9 9 9 9 9 9 9 9 9 9 9 9 9 9 9 9 9 9 9 9 9 9 9 9 9 9 9 9 9 9 9 9 9 9 8 s d 5 g ",
"5 5 g 7 8 9 9 9 9 9 9 9 9 9 9 9 9 9 9 9 9 9 9 9 9 9 9 9 9 9 9 9 9 9 9 9 9 9 9 9 9 9 9 9 9 9 9 9 9 9 9 9 9 9 9 8 s d 5 g ",
"5 5 g 7 8 9 9 9 9 9 9 9 9 9 9 9 9 9 9 9 9 9 9 9 9 9 9 9 9 9 9 9 9 9 9 9 9 9 9 9 9 9 9 9 9 9 9 9 9 9 9 9 9 9 9 8 s d 5 g ",
"5 5 g 7 8 9 9 9 9 9 9 9 9 9 9 9 9 9 9 9 9 9 9 9 9 9 9 9 9 9 9 9 9 9 9 9 9 9 9 9 9 9 9 9 9 9 9 9 9 9 9 9 9 9 9 8 s d 5 g ",
"5 5 g 7 8 9 9 9 9 9 9 9 9 9 9 9 9 9 9 9 9 9 9 9 9 9 9 9 9 9 9 9 9 9 9 9 9 9 9 9 9 9 9 9 9 9 9 9 9 9 9 9 9 9 9 8 s d 5 g ",
"5 5 g 7 8 9 9 9 9 9 9 9 9 9 9 9 9 9 9 9 9 9 9 9 9 9 9 9 9 9 9 9 9 9 9 9 9 9 9 9 9 9 9 9 9 9 9 9 9 9 9 9 9 9 9 8 s d 5 _ ",
"5 5 g 7 8 9 9 9 9 9 9 9 9 9 9 9 9 9 9 9 9 9 9 9 9 9 9 9 9 9 9 9 9 9 9 9 9 9 9 9 9 9 9 9 9 9 9 9 9 9 9 9 9 9 9 8 s d 5 ` ",
"5 5 g 7 8 9 9 9 9 9 9 9 9 9 9 9 9 9 9 9 9 9 9 9 9 9 9 9 9 9 9 9 9 9 9 9 9 9 9 9 9 9 9 9 9 9 9 9 9 9 9 9 9 9 9 8 s d 5 ` ",
"5 5 g 7 8 9 9 9 9 9 9 9 9 9 9 9 9 9 9 9 9 9 9 9 9 9 9 9 9 9 9 9 9 9 9 9 9 9 9 9 9 9 9 9 9 9 9 9 9 9 9 9 9 9 9 8 s d 5 ` ",
"5 5 g 7 8 9 9 9 9 9 9 9 9 9 9 9 9 9 9 9 9 9 9 9 9 9 9 9 9 9 9 9 9 9 9 9 9 9 9 9 9 9 9 9 9 9 9 9 9 9 9 9 9 9 9 8 s d 5 ' ",
"5 5 g 7 8 9 9 9 9 9 9 9 9 9 9 9 9 9 9 9 9 9 9 9 9 9 9 9 9 9 9 9 9 9 9 9 9 9 9 9 9 9 9 9 9 9 9 9 9 9 9 9 9 9 9 8 s d 5 ' ",
"5 5 g 7 8 9 9 9 9 9 9 9 9 9 9 9 9 9 9 9 9 9 9 9 9 9 9 9 9 9 9 9 9 9 9 9 9 9 9 9 9 9 9 9 9 9 9 9 9 9 9 9 9 9 9 8 s d 5 ' ",
"5 5 g 7 8 9 9 9 9 9 9 9 9 9 9 9 9 9 9 9 9 9 9 9 9 9 9 9 9 9 9 9 9 9 9 9 9 9 9 9 9 9 9 9 9 9 9 9 9 9 9 9 9 9 9 8 s d 5 ' ",
"5 5 g 7 8 9 9 9 9 9 9 9 9 9 9 9 9 9 9 9 9 9 9 9 9 9 9 9 9 9 9 9 9 9 9 9 9 9 9 9 9 9 9 9 9 9 9 9 9 9 9 9 9 9 9 8 s d 5 ' ",
"5 5 g 7 8 9 9 9 9 9 9 9 9 9 9 9 9 9 9 9 9 9 9 9 9 9 9 9 9 9 9 9 9 9 9 9 9 9 9 9 9 9 9 9 9 9 9 9 9 9 9 9 9 9 9 8 s d 5 ] ",
"5 5 g 7 8 9 9 9 9 9 9 9 9 9 9 9 9 9 9 9 9 9 9 9 9 9 9 9 9 9 9 9 9 9 9 9 9 9 9 9 9 9 9 9 9 9 9 9 9 9 9 9 9 9 9 8 s d [ ' ",
"5 5 g 7 8 9 9 9 9 9 9 9 9 9 9 9 9 9 9 9 9 9 9 9 9 9 9 9 9 9 9 9 9 9 9 9 9 9 9 9 9 9 9 9 9 9 9 9 9 9 9 9 9 9 9 8 s d 5 { ",
"5 5 g 7 8 9 9 9 9 9 9 9 9 9 9 9 9 9 9 9 9 9 9 9 9 9 9 9 9 9 9 9 9 9 9 9 9 9 9 9 9 9 9 9 9 9 9 9 9 9 9 9 9 9 9 8 s d 5 ` ",
"5 5 g 7 8 9 9 9 9 9 9 9 9 9 9 9 9 9 9 9 9 9 9 9 9 9 9 9 9 9 9 9 9 9 9 9 9 9 9 9 9 9 9 9 9 9 9 9 9 9 9 9 9 9 9 8 s d 5 ` ",
"5 5 g 7 8 9 9 9 9 9 9 9 9 9 9 9 9 9 9 9 9 9 9 9 9 9 9 9 9 9 9 9 9 9 9 9 9 9 9 9 9 9 9 9 9 9 9 9 9 9 9 9 9 9 9 8 s d 5 ` ",
"5 5 g 7 8 9 9 9 9 9 9 9 9 9 9 9 9 9 9 9 9 9 9 9 9 9 9 9 9 9 9 9 9 9 9 9 9 9 9 9 9 9 9 9 9 9 9 9 9 9 9 9 9 9 9 8 s d 5 _ ",
"5 5 g 7 8 9 9 9 9 9 9 9 9 9 9 9 9 9 9 9 9 9 9 9 9 9 9 9 9 9 9 9 9 9 9 9 9 9 9 9 9 9 9 9 9 9 9 9 9 9 9 9 9 9 9 8 s d 5 g ",
"5 5 g 7 8 9 9 9 9 9 9 9 9 9 9 9 9 9 9 9 9 9 9 9 9 9 9 9 9 9 9 9 9 9 9 9 9 9 9 9 9 9 9 9 9 9 9 9 9 9 9 9 9 9 9 8 s d 5 g ",
"5 5 g 7 8 9 9 9 9 9 9 9 9 9 9 9 9 9 9 9 9 9 9 9 9 9 9 9 9 9 9 9 9 9 9 9 9 9 9 9 9 9 9 9 9 9 9 9 9 9 9 9 9 9 9 8 s d 5 g ",
"5 5 g 7 8 9 9 9 9 9 9 9 9 9 9 9 9 9 9 9 9 9 9 9 9 9 9 9 9 9 9 9 9 9 9 9 9 9 9 9 9 9 9 9 9 9 9 9 9 9 9 9 9 9 9 8 s d 5 g ",
"5 5 g 7 8 9 9 9 9 9 9 9 9 9 9 9 9 9 9 9 9 9 9 9 9 9 9 9 9 9 9 9 9 9 9 9 9 9 9 9 9 9 9 9 9 9 9 9 9 9 9 9 9 9 9 8 s d 5 g ",
"5 5 g 7 8 9 9 9 9 9 9 9 9 9 9 9 9 9 9 9 9 9 9 9 9 9 9 9 9 9 9 9 9 9 9 9 9 9 9 9 9 9 9 9 9 9 9 9 9 9 9 9 9 9 9 8 s d 5 g ",
"5 5 g 7 8 9 9 9 9 9 9 9 9 9 9 9 9 9 9 9 9 9 9 9 9 9 9 9 9 9 9 9 9 9 9 9 9 9 9 9 9 9 9 9 9 9 9 9 9 9 9 9 9 9 9 8 s d 5 g ",
"5 5 g 7 8 9 9 9 9 9 9 9 9 9 9 9 9 9 9 9 9 9 9 9 9 9 9 9 9 9 9 9 9 9 9 9 9 9 9 9 9 9 9 9 9 9 9 9 9 9 9 9 9 9 9 8 s d 5 g ",
"5 5 g 7 8 9 C y y y C 9 9 9 9 9 9 9 9 9 9 9 9 9 9 9 9 9 9 9 9 9 9 9 9 9 9 9 9 9 9 9 9 9 9 9 9 9 9 y y y y C 9 8 s d 5 g ",
"5 5 g 7 8 9 } |  . ...9 9 9 9 9 9 9 9 9 9 9 9 9 9 9 9 9 9 9 9 9 9 9 9 9 9 9 9 9 9 9 9 9 9 9 9 9 C X.o. .O.+.9 V s d 5 g ",
"5 5 g 7 8 l h q w w k l 9 9 9 9 9 9 9 9 9 9 9 9 9 9 9 9 9 9 9 9 9 9 9 9 9 9 9 9 9 9 9 9 9 9 9 9 9 z @.i p B 9 8 s d 5 g ",
"5 5 g 7 8 l #.$.i i r l 9 9 9 9 9 9 9 9 9 9 9 9 9 9 9 9 9 9 9 9 9 9 9 9 9 9 9 9 9 9 9 9 9 9 9 9 9 z %.i p a 9 8 s d 5 g ",
"5 5 g 7 8 9 &.*.=.-.h 9 9 9 9 9 9 9 9 9 9 9 9 9 9 9 9 9 9 9 9 9 9 9 9 9 9 9 9 9 9 9 9 9 9 9 9 9 C ;.:.:.>.+.9 V s d 5 g ",
"5 5 g 7 8 C ,.<.1.1.2.8 9 9 9 9 9 9 9 9 9 9 9 9 9 9 9 9 9 9 9 9 9 9 9 9 9 9 9 9 9 9 9 9 9 9 9 9 9 < 3.3.4.Y t V s d 5 g ",
"5 5 g 7 8 9 K 5.O O 6.8 9 9 9 9 9 9 9 9 9 9 9 9 9 9 9 9 9 9 9 9 9 9 9 9 9 9 9 9 9 9 9 9 9 9 9 9 9 E #   7.Y 9 8 s d 5 g ",
"5 5 g 7 8 9 K 5.O O 8.8 9 9 9 9 9 9 9 9 9 9 9 9 9 9 9 9 9 9 9 9 9 9 9 9 9 9 9 9 9 9 9 9 9 9 9 9 9 E # . 9.0.9 V s d 5 g ",
"5 5 g 7 8 9 q.w.R R Q 9 9 9 9 9 9 9 9 9 9 9 9 9 9 9 9 9 9 9 9 9 9 9 9 9 9 9 9 9 9 9 9 9 9 9 9 9 9 F R R e.r.9 8 s d 5 g ",
"5 5 g 7 8 9 9 8 8 8 9 9 9 9 9 9 9 9 9 9 9 9 9 9 9 9 9 9 9 9 9 9 9 9 9 9 9 9 9 9 9 9 9 9 9 9 9 9 9 9 8 8 t.9 9 8 s d 5 g ",
"5 5 6 7 y.C C C C C C C C C C C C C C C C C C C C C C C C C C C C C C C C C C C C C C C C C C C C C C C C C C 8 s d f g ",
"u.u.i.p.a.Q Q Q Q Q Q Q Q Q Q Q Q Q Q Q Q Q Q Q Q Q Q Q Q Q Q Q Q Q Q Q Q Q Q Q Q Q Q Q Q Q Q Q Q Q Q Q Q Q Q s.d.f.u.g.",
"h.h.j.k.l.l.l.l.l.l.l.l.l.l.l.l.l.l.l.l.l.l.l.l.l.l.l.l.l.l.l.l.l.l.l.l.l.l.l.l.l.l.l.l.l.l.l.l.l.l.l.l.l.l.l.l.O h.h.z.",
"O O O O O O O O O O O O O O O O O O O O O O O O O O O O O O O O O O O O O O O O O O O O O O O O O O O O O O O O O O O O ",
"O O O O O O O O O O O O O O O O O O O O O O O O O O O O O O O O O O O O O O O O O O O O O O O O O O O O O O O O O O O O "
};
