/* XPM */
static char *ef2f95d91bb248a2b49536d5ed69df9fqwUTdxj6EWeGVKh8[] = {
/* columns rows colors chars-per-pixel */
"60 60 125 2 ",
"   c None",
".  c #020101",
"X  c #0C0505",
"o  c gray6",
"O  c #1C0101",
"+  c #130B0B",
"@  c #171010",
"#  c #1E1717",
"$  c #1C1919",
"%  c #240202",
"&  c #2D0303",
"*  c #340404",
"=  c #221B1B",
"-  c #252424",
";  c #2B2525",
":  c #2E2828",
">  c #3B2626",
",  c #322C2C",
"<  c #363131",
"1  c #383333",
"2  c #3E3A3A",
"3  c #420303",
"4  c #4A0505",
"5  c #4A0A0A",
"6  c #550303",
"7  c #5B0303",
"8  c #4C1818",
"9  c #640303",
"0  c #6A0202",
"q  c #760303",
"w  c #790303",
"e  c #621818",
"r  c #6F1C1C",
"t  c #412323",
"y  c #433D3D",
"u  c #652F2F",
"i  c #464242",
"p  c #4A4545",
"a  c #4C4949",
"s  c #564646",
"d  c #524D4D",
"f  c #555151",
"g  c #5A5555",
"h  c #5E5B5B",
"j  c #635E5E",
"k  c #685F5F",
"l  c #656262",
"z  c #6F6767",
"x  c #6C6B6B",
"c  c #716D6D",
"v  c #737070",
"b  c #870101",
"n  c #880101",
"m  c #880E0E",
"M  c #930101",
"N  c #9D0101",
"B  c #A20101",
"V  c #AE0000",
"C  c #B50000",
"Z  c #B80000",
"A  c #823E3E",
"S  c #CE0101",
"D  c #D60000",
"F  c #DB0101",
"G  c #F00000",
"H  c #FF0000",
"J  c #FF2C2C",
"K  c #FE3D3D",
"L  c #817F7F",
"P  c #FF4E4E",
"I  c #828181",
"U  c #8B8B8B",
"Y  c #8A8A8A",
"T  c #898989",
"R  c #8D8989",
"E  c #8C8A8A",
"W  c gray55",
"Q  c #8D8D8D",
"!  c #8E8C8C",
"~  c #8E8E8E",
"^  c #8E8F8F",
"/  c gray56",
"(  c #8E8C8C",
")  c #909191",
"_  c #979696",
"`  c #979797",
"'  c #959595",
"]  c #989898",
"[  c #A2A2A2",
"{  c gray64",
"}  c #A4A4A4",
"|  c gray65",
" . c #A7A7A7",
".. c #A7A6A6",
"X. c #A7A8A8",
"o. c #A9A9A9",
"O. c #ACABAB",
"+. c #ADADAD",
"@. c gray71",
"#. c #B7B7B7",
"$. c #B4B4B4",
"%. c #B7B8B8",
"&. c gray72",
"*. c #B9B9B9",
"=. c #C5C5C5",
"-. c #CFCECE",
";. c #D1D0D0",
":. c #D5D4D4",
">. c #D6D5D5",
",. c #D3D3D3",
"<. c #D9D8D8",
"1. c #DAD9D9",
"2. c #E6E6E6",
"3. c #F6F6F6",
"4. c gray97",
"5. c #FFF6F6",
"6. c #F4F9F9",
"7. c #F8F8F8",
"8. c #FFF9F9",
"9. c gray99",
"0. c #FCFDFD",
"q. c #FDFDFD",
"w. c #FEFEFE",
"e. c white",
"r. c #FCFCFC",
/* pixels */
"                                                                                                                        ",
"                                                                                                                        ",
"                                                                                                                        ",
"                                                                                                                        ",
"                                                                                                                        ",
"                                                                                                                        ",
"                                                                                                                        ",
"                                              X X X X X X X X X X X X X X X                                             ",
"                                            X X X + X X X X X X X X X X X X                                             ",
"                                              X X X X X X X X + X X X X X X                                             ",
"                              X X X + X X X                 6 0 0 0 0 0 9 0 * X X X X + X X                             ",
"                              X X X X X X X X               Z Z Z Z C Z Z C 5 X X X X X X X                             ",
"                              X X X X X . X                 C C C C C C C C * X X X X X X X                             ",
"                              , y y y y i 1 5               C C C C C C C C 7 * * * * * * *                             ",
"                      X X X d 3.3.3.3.3.3.6.K H H H D C C C C C C C C C C C V V C V V V V V * X X X                     ",
"                      X X X z w.w.w.w.w.w.w.P H H H D C C C C C C C C C C C C C C C C C C V * X + X                     ",
"                      X X X z r.5.5.5.5.5.5.J H H H D V V V V V V V C C C C C C C C C C C V * X X X                     ",
"                      X X . r K K K K K P J H H H H M & * * * * * * b C C C C C C C C C C V * X X X                     ",
"                      X X X q H H H H H H H H H H H q X X X X X X X w Z C C C C C C C C C V * X X X                     ",
"                      X X . 0 H H H H H H H H H H H w . X . X X X X w Z Z Z Z Z Z Z C C C V & X X X                     ",
"                    5 w w q V H H H S M M M M M M M A v c v j @ X # e 0 0 0 0 0 0 0 B C C C 0 7 7 6 %                   ",
"              X X X 9 H H H H H H H n X X X X X X . Y w.7.7.w.      - X X X X X X X n Z C C C C Z C & X X +             ",
"              X X X 9 H H H H H H H M X X X X X X X R r.4.4.w.w.    a X X X X X X X n Z C Z C C C V & X X X             ",
"              X X X 9 H H H G D D F m = - = = = = # L >.;.;.>.1.1.1.j $ $ $ = = = = w B N N C C C V & X X X             ",
"              X X . 9 H H H B @ % O s ] _ _ ! I L I a = = # = = = = j I I I I I I L t % % & M C C V & o X X             ",
"              X X X 9 H H H N X X X d } } } ] ! ! / i . X X X X X X h ! ! ! ! ! ! R > O O % M Z C V & X X X             ",
"              X X X 9 H H H N X X X d { [ [ ] R R ! i X X X X X X X j / Y Y U U Y Y t O O % M C C V & X X X             ",
"              X . . % 7 7 7 u v v v g 2 2 2 1 , < < = X X X X X X X = 1 < < < < < < f k k j 8 3 3 3                     ",
"              . . . . X X X i X.} O.h . X X X X X X X + X X X X X + X X X X X X X X x ) ! U ; . X X                     ",
"              . . . . X . . p X.} O.j X X X X X X X X X X X X X X X X X X X X X X X x ) ) Y - X X X                     ",
"              X . . $ i i i f x x x y X + X X X X X X X X X X X X X X X X X X X X X i j h h a i i 2                     ",
"              X X X i #.#.&.x . . . . X X X X X X X X X X + X X X X X X X X X X + X X X X + ! %.#.O.: X X X             ",
"              X X X p #.#.&.z . . . . X X X X X X X X X X X X X X X X X X X X X X X X X X + ( *.#.O.; X X X             ",
"              X X X y &.$.&.l . . . . X X X X X X X + X X X X X X + X X X X X X + X X X X + ( *.&.O.; X X X             ",
"              X X X +         X X X X X X X X . . . X X X X X X X X X X X + X X X X X + X + ( &.$.O.- X X X             ",
"              X X X X         X X + X X + X . . . . . X X X X X X X + X X X X X X X X X X + ( &.&.O.: X X X             ",
"              X X X X         X X X X X X X . . . . X X X X X X X X X X X X X X X X X X X X / *.&.+.; X X +             ",
"                      + X X X             z a . . . . X X X X X X X X X X X X       f z c z g d f p =                   ",
"                      X X X X               x . . . . X X X X X + X X X X X         &.&.&.$., X X X                     ",
"                      X X X X               l . . . . X X X X X X X X X X X         $.#.$.+., X X X                     ",
"                      X X X -   2.2.        _ i i i i p p p y 1 1 < 1 1 1 1         $.#.$.+.< X X X                     ",
"                      X X X d *.#.#.-.      7.7.6.7.7.7.4.4.-.+.+.$.+.+.$.+.$.$.#.#.$.$.$.+., X X X                     ",
"                      X X X d &.#.$.=.      w.w.w.w.w.w.w.w.;.&.#.#.$.$.$.$.#.#.#.#.$.#.&.+., X X X                     ",
"                      X X X i +.+.+.          w.r.w.r.r.r.w.;.$.$.$.$.#.$.$.+.O.O.O.O.O.+.{ - X X X                     ",
"                              - - - o . . . a *.=.=.=.=.=.=.*.$.$.$.$.$.$.$.g ; , , , , , =                             ",
"                              . . . . . . . h &.$.$.$.$.$.$.&.$.#.$.$.#.$.$.y X X X X X X X                             ",
"                              . . . . . . . h &.&.&.#.#.&.&.&.&.&.&.&.&.&.&.2 X X X X X X X                             ",
"                              . . . . . . . 2 l l l l l l l l l l l l l l j = X X X X X X X                             ",
"                                              X X X X X X X X X X X X X X X                                             ",
"                                            X X X X X X X X X X X X X X X X                                             ",
"                                              X X X X X X X X X X X X X X X                                             ",
"                                                                                                                        ",
"                                                                                                                        ",
"                                                                                                                        ",
"                                                                                                                        ",
"                                                                                                                        ",
"                                                                                                                        ",
"                                                                                                                        ",
"                                                                                                                        ",
"                                                                                                                        "
};
