/* XPM */
static char *result[] = {
/* columns rows colors chars-per-pixel */
"60 60 224 2 ",
"   c #010101",
".  c #0B0B0C",
"X  c #050709",
"o  c #130504",
"O  c #050D11",
"+  c #090E14",
"@  c #061214",
"#  c #0A141C",
"$  c #08141A",
"%  c #131313",
"&  c #1D1C1C",
"*  c #1F1312",
"=  c #270B08",
"-  c #320E08",
";  c #291918",
":  c #311511",
">  c #0C1E24",
",  c #0B1E2A",
"<  c #091B25",
"1  c #141E25",
"2  c #0C232A",
"3  c #0C2026",
"4  c #0F2935",
"5  c #122D34",
"6  c #162C37",
"7  c #14353E",
"8  c #1A333B",
"9  c #1A2A2C",
"0  c gray15",
"q  c #2C2C2C",
"w  c #25282A",
"e  c #282E33",
"r  c #372F36",
"t  c #2A3033",
"y  c #21323A",
"u  c #223136",
"i  c #333333",
"p  c #3A3434",
"a  c #3D3D3D",
"s  c #373737",
"d  c #332D2D",
"f  c #201F21",
"g  c #782415",
"h  c #4D2E2E",
"j  c #5D2926",
"k  c #532D2D",
"l  c #5D2B2A",
"z  c #5B2726",
"x  c #442F31",
"c  c #4A2E31",
"v  c #58342E",
"b  c #6B2D26",
"n  c #612C2A",
"m  c #642B27",
"M  c #762D23",
"N  c #66322A",
"B  c #6B3D3B",
"V  c #633736",
"C  c #76362B",
"Z  c #6D403F",
"A  c #72413D",
"S  c #0D2247",
"D  c #143640",
"F  c #163448",
"G  c #11295A",
"H  c #183955",
"J  c #1A2D40",
"K  c #263842",
"L  c #363B47",
"P  c #2B3D55",
"I  c #13386A",
"U  c #163D73",
"Y  c #2C3F64",
"T  c #433F54",
"R  c #3A4347",
"E  c #334352",
"W  c #294151",
"Q  c #2A5679",
"!  c #325A7B",
"~  c #29507C",
"^  c #424242",
"/  c #494949",
"(  c #4B4B58",
")  c #585859",
"_  c #4E495E",
"`  c #6E4141",
"'  c #6A4A49",
"]  c #754B4A",
"[  c #754846",
"{  c #7B5454",
"}  c #766557",
"|  c #484C67",
" . c #586571",
".. c #646463",
"X. c #66686B",
"o. c #646673",
"O. c #787779",
"+. c #6F7072",
"@. c #8C2C1B",
"#. c #832D1F",
"$. c #952E1B",
"%. c #9B321E",
"&. c #95311F",
"*. c #8C301F",
"=. c #A6321D",
"-. c #A8321D",
";. c #852F22",
":. c #8A2F20",
">. c #8C3122",
",. c #8B3829",
"<. c #953120",
"1. c #973828",
"2. c #873D37",
"3. c #AD3723",
"4. c #B13B28",
"5. c #B03B27",
"6. c #904339",
"7. c #8A4233",
"8. c #B7412E",
"9. c #B9422F",
"0. c #A74437",
"q. c #BE4634",
"w. c #945E54",
"e. c #8E584F",
"r. c #B0544C",
"t. c #AA4E46",
"y. c #86645B",
"u. c #956457",
"i. c #9A7C7C",
"p. c #916F69",
"a. c #A37670",
"s. c #D35B4C",
"d. c #D85C4F",
"f. c #D45B4C",
"g. c #E56A5E",
"h. c #E16659",
"j. c #EA6E63",
"k. c #E56E64",
"l. c #EC7066",
"z. c #EE7168",
"x. c #DB6152",
"c. c #AF8376",
"v. c #CC9275",
"b. c #CF9278",
"n. c #C38B79",
"m. c #2B5E87",
"M. c #214A9A",
"N. c #386383",
"B. c #2D649C",
"V. c #1E4EAB",
"C. c #1D4BA5",
"Z. c #1F51AC",
"A. c #214EA6",
"S. c #2252AA",
"D. c #3578B8",
"F. c #3776A9",
"G. c #1E4899",
"H. c #557286",
"J. c #4C7593",
"K. c #767887",
"L. c #487CA2",
"P. c #3878C4",
"I. c #907987",
"U. c #3B83BA",
"Y. c #3C80B7",
"T. c #4484B3",
"R. c #4A88BA",
"E. c #5C92BE",
"W. c #778ABC",
"Q. c #6D94B3",
"!. c #7D848A",
"~. c #3E8BC6",
"^. c #3E8CC9",
"/. c #3980C4",
"(. c #408ECB",
"). c #498EC4",
"_. c #5A9BCC",
"`. c #4080D2",
"'. c #569BD4",
"]. c #4596D5",
"[. c #788DC2",
"{. c #7299C4",
"}. c #6AA5D4",
"|. c #5CAAEC",
" X c #63B5FA",
".X c #62B3F6",
"XX c #61ADEF",
"oX c #59A4DF",
"OX c #858484",
"+X c #9F8380",
"@X c #8A859A",
"#X c #A68884",
"$X c #AC9796",
"%X c #B29B9C",
"&X c #979CA9",
"*X c #8C94A9",
"=X c #9EA2B0",
"-X c #A5A4AF",
";X c #A5A6B0",
":X c #DDA986",
">X c #CAB5B5",
",X c #EABE96",
"<X c #EEC198",
"1X c #F3C59A",
"2X c #E4C6B9",
"3X c #8897C6",
"4X c #8BA5CC",
"5X c #89ADD3",
"6X c #AAACCA",
"7X c #AFB0CE",
"8X c #B2B2CE",
"9X c #B2B3D1",
"0X c #B8B8D2",
"qX c #AFAFD0",
"wX c #C7C8DB",
"eX c #CFD1DD",
"rX c #D5D7E7",
"tX c #CDD1E4",
"yX c #E2E5F5",
"uX c #EDECFB",
"iX c #FBFBFA",
"pX c #FAF7F8",
"aX c #E6F3F6",
"sX c None",
/* pixels */
"sXsXsXsXsXsXsXsXsXsXsXsXsXsXsXsXsXsXsXsXsXsXsXsXsXsXsXsXsXsXsXsXsXsXsXsXsXsXsXsXsXsXsXsXsXsXsXsXsXsXsXsXsXsXsXsXsXsXsXsX",
"sXsXsXsXsXsXsXsXsXsXsXsXsXsXsXsXsXsXsXsXsXsXsXsXsXsXsXsXsXsXsXsXsXsXsXsXsXsXsXsXsXsXsXsXsXsXsXsXsXsXsXsXsXsXsXsXsXsXsXsX",
"sXsXsXsXsXsXsXsXsXsXsXsXsXsXsXsX` l n n n l n n n l n l n n n V n n n n n n n n n l V sXsXsXsXsXsXsXsXsXsXsXsXsXsXsXsXsX",
"sXsXsXsXsXsXsXsXsXsXsXsXsXsXsXsXB l n l n n l n n n n n n l n l n l n n n l n l n n V sXsXsXsXsXsXsXsXsXsXsXsXsXsXsXsXsX",
"sXsXsXsXsXsXsXsXsXsXsXsXsXsXsX#X,.>.;.0.r.r.r.r.r.r.r.r.r.r.r.r.r.r.r.r.r.r.r.t.>.:.;.a.$XsXsXsXsXsXsXsXsXsXsXsXsXsXsXsX",
"sXsXsXsXsXsXsXsXsXsXsXsXsXl l M =.=.%.s.z.z.z.z.z.z.z.z.z.z.z.z.z.z.z.z.z.z.z.h.3.=.=.M l z +XsXsXsXsXsXsXsXsXsXsXsXsXsX",
"sXsXsXsXsXsXsXsXsXsXsXsXsXl n M 3.3.3.s.l.l.z.l.l.l.l.l.l.z.j.j.l.l.l.l.z.j.z.h.3.-.3.M l l +XsXsXsXsXsXsXsXsXsXsXsXsXsX",
"sXsXsXsXsXsXsXsXsXsXsXsXsXn n C s.s.s.h.z.j.j.z.z.l.l.l.l.j.z.z.l.l.l.l.l.z.j.j.x.d.s.2.l z c.sXsXsXsXsXsXsXsXsXsXsXsXsX",
"sXsXsXsXsXsXsXsXsXsXsXsXsXl l 2.k.l.l.l.l.l.l.l.j.z.l.l.l.j.l.l.l.l.l.l.l.l.l.l.z.l.z.6.l j #XsXsXsXsXsXsXsXsXsXsXsXsXsX",
"sXsXsXsXsXsXsXsXsXsXsXsXsXl n 2.k.l.l.l.l.l.l.l.l.l.l.l.l.l.l.l.l.l.l.l.l.l.l.l.l.l.j.6.n z #XsXsXsXsXsXsXsXsXsXsXsXsXsX",
"sXsXsXsXsXsXsXsXsXsXi.i.w.&.@.0.k.l.l.l.l.l.l.l.l.l.l.l.l.l.l.l.l.l.l.l.l.l.l.l.l.l.l.0.@.*.e.i.I.#XsXsXsXsXsXsXsXsXsXsX",
"sXsXsXsXsXsXsXsXsX[ z z #.-.=.8.j.l.l.l.l.l.l.l.l.l.l.l.l.l.l.l.l.l.l.l.l.l.l.l.l.z.l.q.=.-.@.n n V sXsXsXsXsXsXsXsXsXsX",
"sXsXsXsXsXsXsXsXsX] j n ;.-.=.8.g.j.g.l.l.l.l.l.l.l.l.l.l.l.l.l.l.l.l.l.l.l.l.j.j.j.j.q.=.=.*.n n B sXsXsXsXsXsXsXsXsXsX",
"sXsXsXsXsXsXsXsXsX] l n ;.=.=.3.8.8.8.d.l.l.l.l.l.l.l.l.l.l.l.l.l.l.l.l.l.l.l.g.q.4.8.3.=.-.*.N l B sXsXsXsXsXsXsXsXsXsX",
"sXsXsXsXsXsXsXsXsX] n l :.=.=.=.=.=.-.s.l.l.l.l.l.l.l.l.l.l.l.l.l.l.l.l.l.l.j.h.3.=.=.-.=.-.>.N l B sXsXsXsXsXsXsXsXsXsX",
"sXsXsXsXsXsXsXsXsX' k l ;.=.=.=.=.=.=.s.k.g.g.g.g.g.g.g.g.g.g.g.g.g.g.g.g.g.g.x.3.-.=.=.=.=.>.l z V sXsXsXsXsXsXsXsXsXsX",
"sXsXsXsXsXsX0 0 q u 8 8 n 3.-.=.=.=.=.-.4.4.4.4.4.4.4.4.4.4.4.4.5.5.4.4.4.4.5.5.-.=.-.=.=.-.M y y 8 t 0 0 sXsXsXsXsXsXsX",
"sXsXsXsXsXsX    X 5 7 7 n -.=.=.=.=.=.=.=.=.=.=.=.=.=.=.=.=.=.=.=.=.=.=.=.=.=.=.-.=.-.=.-.-.b 7 7 7 O     sXsXsXsXsXsXsX",
"sXsXsXsXsXsXX   X 5 7 7 l =.=.=.=.-.=.=.=.-.=.=.=.=.=.=.=.=.=.=.=.=.=.=.=.=.=.=.=.-.=.%.=.%.b 7 7 7 $ X   sXsXsXsXsXsXsX",
"sXsX) w d 9 5 5 5 7 7 7 x b b M =.-.=.=.=.-.=.=.=.=.=.=.=.=.=.=.=.=.=.-.-.=.=.-.-.-.=.;.b b h 8 7 7 5 5 5 u q q / sXsXsX",
"sXsXa     $ D D 7 7 7 7 p n n M =.=.=.=.=.-.=.-.=.-.-.-.-.-.-.-.=.=.=.=.=.-.=.-.=.-.=.M n m x 7 7 7 7 D D 3     & sXsXsX",
"sXsX) 0 0 9 5 5 5 7 7 7 r k h m &.$.%.=.=.=.=.-.=.-.$.@.@.@.@.@.$.%.=.=.=.=.-.=.%.$.<.b k k p 7 7 7 5 5 5 u q 0 ^ sXsXsX",
"sXsXsXsXsXO.X X O 5 7 7 7 8 8 t n N b >.-.-.=.=.-.$.- o o o o o = $.-.=.-.=.-.%.M m m r J 7 7 7 7 7 $ X X O.sXsXsXsXsXsX",
"sXsXsXsXsXsX    X 5 D 7 7 D D u l l n @.-.-.-.-.-.$.o           o $.=.-.-.-.-.<.b n n t D D 7 D 7 7 O     sXsXsXsXsXsXsX",
"sXsXsXsXsX+.    X 5 7 7 7 7 7 8 x h h M <.<.<.<.<.:.= @ O O O O * g %.<.<.<.<.>.h h h y D D 7 7 7 7 @     O.sXsXsXsXsXsX",
"sXsX/ % & .     X 5 7 7 7 7 7 7 7 7 8 c N m m n m l 8 7 7 7 5 7 8 k N m m m m k y 8 7 7 D 7 D 7 7 7 @     . & % s sXsXsX",
"sXsXs             5 7 7 7 7 7 7 7 D 7 p n n N l n k y D 7 D 7 7 8 v l N n n n k 7 7 7 7 7 7 7 D 7 7 X           & sXsXsX",
"sXsX+.^ a a a ^ R 9 5 4 7 7 7 7 7 7 D i h h h h h x y D 7 7 7 7 8 x h h h h h p 8 7 D 7 7 D 5 5 4 5 R ^ ^ ^ a a ) sXsXsX",
"sXsXsXsXsXsXsXsXsXq   X 3 7 7 7 7 7 7 7 8 8 7 8 7 7 7 D 7 7 D 7 D 8 7 8 7 8 8 8 D 7 7 D 7 7 2   X % sXsXsXsXsXsXsXsXsXsX",
"sXsXsXsXsXsXsXsXsX0     3 D D 8 D D D 7 7 7 7 7 7 7 7 7 D 7 D 7 7 7 7 7 7 D 7 7 7 D D D 7 7 2 X   % sXsXsXsXsXsXsXsXsXsX",
"sXsXsXsXsXsXsXsXsXe @ @ # 5 2 2 2 2 2 2 2 2 4 7 7 7 D 7 7 7 7 7 7 7 7 7 5 5 2 2 2 2 2 2 2 4 > @ @ 1 sXsXsXsXsXsXsXsXsXsX",
"sXsXsXsXsXsXX . . 5 7 7 #       X X         @ 7 D 7 7 7 D D 7 D 7 7 7 7 $       X X   X     @ 5 7 7 # . X sXsXsXsXsXsXsX",
"sXsXsXsXsXsX      5 D 7 $                   O 7 D D D D D D D D D D D D $                   @ 7 7 7 O     sXsXsXsXsXsXsX",
"sXsXsXsXsXsXsXOXO.u > > K ( ( E S S S F H H F > 3 > > > > , > > > > 3 3 F H H H S S S E ( ( L 3 3 9 +.!.OXsXsXsXsXsXsXsX",
"sXsXsXsXsXsXsXsXsXq     o.9X0X3XZ.Z.V.D.(.(.m.X                         Q ^.^./.S.V.C.[.9X9XK.    % sXsXsXsXsXsXsXsXsXsX",
"sXsXsXsXsXsXsXsXsX0     o.8X8X3XV.C.V.P.(.(.m.X               X         Q (.^.P.Z.C.C.[.9X9XK.    % sXsXsXsXsXsXsXsXsXsX",
"sXsXsXsXsXsX$X%X%XOXOXOX&XqX8X6X4X4X4X_.^.^.F.G G G G G G G G G G G G G B.(.~.).5X4X4X6X8X8X&Xy.} y.$X%X%XsXsXsXsXsXsXsX",
"sXsXsXsXsXsXB Z { sXsXsXrXqXqXwXiXiXiX5X~.^.D.Z.V.V.V.S.S.V.Z.V.V.S.Z.Z.P.(.^._.aXiXiXwXqXqX>X1X1X<Xu.Z B sXsXsXsXsXsXsX",
"sXsXsXsXsXsXZ ` { sXsXsXtXqXqXwXpXiXiX5X^.^.P.Z.V.V.V.V.V.V.V.V.V.V.V.V.P.(.^._.aXiXiXtX9X9X>X<X<X,Xu.` ` sXsXsXsXsXsXsX",
"sXsXsXsXsXsXZ ` ] >X2X2X%XI.I.I.4X4X4XL.! N.Q I I U D.`.P.`.`.`.P.U I I ~ ! ! J.{.4X4X@XI.I.#X:X:X:Xu.` ` sXsXsXsXsXsXsX",
"sXsXsXsXsXsX` ` [ n.b.v.u.B A _ C.V.C.Y i s e > , 4 '. X X.X X XoXF , 3 u s i L M.V.A._ ` ` w.n.v.v.e.` ` sXsXsXsXsXsXsX",
"sXsXsXsXsXsX` ` A n.b.b.u.[ B _ C.C.V.Y s s u , 2 7 '. X.X.X.X.XoXD 2 2 u s s E M.V.A._ A ` w.b.v.v.e.Z ` sXsXsXsXsXsXsX",
"sXsXsXsXsXsXsXsXsXa.e.u.v ; : T W.W.[.=X;X-X-X&X*X*X! Q Q Q Q Q ! Q.&X&X&X-X;X=X[.[.W.T ; ; k w.u.p.sXsXsXsXsXsXsXsXsXsX",
"sXsXsXsXsXsXsXsXsXy.B ` ;     r 6X9X9XrXuXuXuXuXaXrXW < , < , < y eXuXuXuXuXuXyX0X9X8XL     ; ` ` { sXsXsXsXsXsXsXsXsXsX",
"sXsXsXsXsXsXsXsXsXp.] ] x o   r 6X6X6XtXyXyXyXyXuXrXE < , , 2 2 y wXyXyXyXyXyXrX6X6X6X^     ; ] ] { sXsXsXsXsXsXsXsXsXsX",
"sXsXsXsXsXsXsXsXsXsXsXsX#Xg g C O.O.O.Q.}.}.}.}.}._.D 3 2 , , , 8 E.}.}.}.}.}.{.K.K.i.A g g a.sXsXsXsXsXsXsXsXsXsXsXsXsX",
"sXsXsXsXsXsXsXsXsXsXsXsXsX-.-.1.......L.^.^.~.^./.U.F 2 , 2 2 , 7 F.^.^.^.^.^.U. .....1.-.=.n.sXsXsXsXsXsXsXsXsXsXsXsXsX",
"sXsXsXsXsXsXsXsXsXsXsXsXsX=.=.7.......F.~.~.~.^.^.U.F 2 2 , , 2 4 Y.(.^.(.U.(.T. .....7.%.=.n.sXsXsXsXsXsXsXsXsXsXsXsXsX",
"sXsXsXsXsXsXsXsXsXsXsXsXsX- - : & & f E H.H.T.T.^.U.W u t t t t K U.(.(.L.H.H. .w & ; : - - p.sXsXsXsXsXsXsXsXsXsXsXsXsX",
"sXsXsXsXsXsXsXsXsXsXsXsXsX          X x +...H.).^.R.E a s s s s R U.(.(.H.....( .           X.sXsXsXsXsXsXsXsXsXsXsXsXsX",
"sXsXsXsXsXsXsXsXsXsXsXsXsX      + . + ^ X.X.H.Y.U.F.E i i i i i K F.U./.J.X.X.) % + + .     X.sXsXsXsXsXsXsXsXsXsXsXsXsX",
"sXsXsXsXsXsXsXsXsXsXsXsXsX    6 R.).).R.Y.T.m.2 , , . . . . . . + > 2 1 ! T.T.T.).).R.F     +.sXsXsXsXsXsXsXsXsXsXsXsXsX",
"sXsXsXsXsXsXsXsXsXsXsXsXsX    8 .X X X].^.^.m.X                         Q ^.^.]. X X XH     +.sXsXsXsXsXsXsXsXsXsXsXsXsX",
"sXsXsXsXsXsXsXsXsXsXsXsXsXq i | _.oX'.R.F.Y.N.s i d q i i i i i i i q i ! Y.D.U.'.'._.| d i sXsXsXsXsXsXsXsXsXsXsXsXsXsX",
"sXsXsXsXsXsXsXsXsXsXsXsXsXsXsXsXe < < # $ $ o.sXsXsXsXsXsXsXsXsXsXsXsXsX!.$ @ # < # 1 sXsXsXsXsXsXsXsXsXsXsXsXsXsXsXsXsX",
"sXsXsXsXsXsXsXsXsXsXsXsXsXsXsXsX%           X.sXsXsXsXsXsXsXsXsXsXsXsXsXsX          X sXsXsXsXsXsXsXsXsXsXsXsXsXsXsXsXsX",
"sXsXsXsXsXsXsXsXsXsXsXsXsXsXsXsXa d t d q q sXsXsXsXsXsXsXsXsXsXsXsXsXsXsXq q q q q i sXsXsXsXsXsXsXsXsXsXsXsXsXsXsXsXsX",
"sXsXsXsXsXsXsXsXsXsXsXsXsXsXsXsXsXsXsXsXsXsXsXsXsXsXsXsXsXsXsXsXsXsXsXsXsXsXsXsXsXsXsXsXsXsXsXsXsXsXsXsXsXsXsXsXsXsXsXsX",
"sXsXsXsXsXsXsXsXsXsXsXsXsXsXsXsXsXsXsXsXsXsXsXsXsXsXsXsXsXsXsXsXsXsXsXsXsXsXsXsXsXsXsXsXsXsXsXsXsXsXsXsXsXsXsXsXsXsXsXsX",
"sXsXsXsXsXsXsXsXsXsXsXsXsXsXsXsXsXsXsXsXsXsXsXsXsXsXsXsXsXsXsXsXsXsXsXsXsXsXsXsXsXsXsXsXsXsXsXsXsXsXsXsXsXsXsXsXsXsXsXsX"
};
