/* XPM */
static char *result[] = {
/* columns rows colors chars-per-pixel */
"60 60 220 2 ",
"   c #010101",
".  c #050609",
"X  c #040A0C",
"o  c #0C0C0C",
"O  c #0B0606",
"+  c #140B0B",
"@  c #1B0D0B",
"#  c #040D12",
"$  c #0C0E12",
"%  c #040B1B",
"&  c #08151A",
"*  c #131314",
"=  c #1A1A1A",
"-  c #181010",
";  c #261716",
":  c #321C1E",
">  c #290B06",
",  c #35201F",
"<  c #081D27",
"1  c #191A23",
"2  c #091736",
"3  c #0D2026",
"4  c #0C242B",
"5  c #12242D",
"6  c #15272D",
"7  c #0F2A36",
"8  c #122C34",
"9  c #122434",
"0  c #13343E",
"q  c #1D333A",
"w  c #193036",
"e  c #0F323D",
"r  c #242424",
"t  c #2C2C2C",
"y  c #24282B",
"u  c #362122",
"i  c #32282B",
"p  c #293439",
"a  c #373636",
"s  c #38393A",
"d  c #352E34",
"f  c #4D241E",
"g  c #762719",
"h  c #462825",
"j  c #5D2926",
"k  c #542D2D",
"l  c #5E2B29",
"z  c #592725",
"x  c #583B39",
"c  c #463737",
"v  c #6C2C26",
"b  c #612C29",
"n  c #672C27",
"m  c #732D25",
"M  c #7E2E23",
"N  c #7B332A",
"B  c #663533",
"V  c #6C3E3E",
"C  c #663C3B",
"Z  c #743F36",
"A  c #783F38",
"S  c #6C443F",
"D  c #75433E",
"F  c #143640",
"G  c #173845",
"H  c #11295A",
"J  c #182F4F",
"K  c #3A3E46",
"L  c #212640",
"P  c #443D52",
"I  c #364748",
"U  c #2A5477",
"Y  c #3C416A",
"T  c #46494A",
"R  c #5D5E5D",
"E  c #565656",
"W  c #4D5050",
"Q  c #6D4242",
"!  c #6B4548",
"~  c #724443",
"^  c #754C4A",
"/  c #774B48",
"(  c #7E5B4C",
")  c #775249",
"_  c #795256",
"`  c #72665B",
"'  c #4E5074",
"]  c #5A6B75",
"[  c #676869",
"{  c #7A7979",
"}  c #676F77",
"|  c #9F321F",
" . c #902E1E",
".. c #A62F1A",
"X. c #A6321D",
"o. c #A8321D",
"O. c #8B2F20",
"+. c #832F22",
"@. c #923120",
"#. c #9A3525",
"$. c #90392D",
"%. c #A53623",
"&. c #A63927",
"*. c #B03B29",
"=. c #8C403C",
"-. c #BD4635",
";. c #BD4B3B",
":. c #A74638",
">. c #C64D3C",
",. c #C7503E",
"<. c #86534B",
"1. c #8A5850",
"2. c #96584F",
"3. c #B65549",
"4. c #A84F45",
"5. c #8C6453",
"6. c #966859",
"7. c #9F755F",
"8. c #B9665B",
"9. c #A6655F",
"0. c #846568",
"q. c #9A7C7A",
"w. c #937763",
"e. c #A97764",
"r. c #B67868",
"t. c #AD6C6B",
"y. c #D15848",
"u. c #C2564B",
"i. c #C47C76",
"p. c #EB6F65",
"a. c #E76B62",
"s. c #EC7066",
"d. c #EC736A",
"f. c #E77168",
"g. c #E87B74",
"h. c #E2695E",
"j. c #BC866E",
"k. c #BC8C77",
"l. c #A9817B",
"z. c #C48B71",
"x. c #C88D73",
"c. c #CD9376",
"v. c #C89579",
"b. c #D19577",
"n. c #D19578",
"m. c #D49C7C",
"M. c #C68B6F",
"N. c #D7A17E",
"B. c #1A4393",
"V. c #344D90",
"C. c #2E6693",
"Z. c #366C94",
"A. c #38719C",
"S. c #1D4DAB",
"D. c #1D4CA5",
"F. c #1F50AE",
"G. c #365CA9",
"H. c #3374A5",
"J. c #506C92",
"K. c #717C87",
"L. c #4879A6",
"P. c #5D73A8",
"I. c #647EBB",
"U. c #41548F",
"Y. c #AD7C82",
"T. c #3C84BB",
"R. c #7C8895",
"E. c #6C8085",
"W. c #6A86B2",
"Q. c #5886B3",
"!. c #3E8CC9",
"~. c #3E89C3",
"^. c #408ECB",
"/. c #4C96D2",
"(. c #6895C4",
"). c #5AA6E5",
"_. c #62B4FC",
"`. c #7FA9CF",
"'. c #8D828B",
"]. c #A58B8A",
"[. c #A98788",
"{. c #A98B96",
"}. c #AB909A",
"|. c #9293A9",
" X c #AE92A1",
".X c #B19CB1",
"XX c #A8A5BB",
"oX c #B9B0B8",
"OX c #BCA19E",
"+X c #CC9E81",
"@X c #C19E99",
"#X c #CEA484",
"$X c #DAA482",
"%X c #DAAD8B",
"&X c #D0AB96",
"*X c #E5B58F",
"=X c #EDBE95",
"-X c #E8A19F",
";X c #E9A9AB",
":X c #D5A6A5",
">X c #EFC196",
",X c #F1C398",
"<X c #91BADF",
"1X c #95A9CD",
"2X c #AAA9C6",
"3X c #B1B2CE",
"4X c #BCBCC5",
"5X c #B1B4D1",
"6X c #BEBED6",
"7X c #B0AFCB",
"8X c #93BDE2",
"9X c #C0C0CD",
"0X c #CEC1C2",
"qX c #D4CED4",
"wX c #EBD3DC",
"eX c #E8E2EE",
"rX c #EBEBFA",
"tX c #E7E5F3",
"yX c #E5D9E7",
"uX c None",
/* pixels */
"uXuXuXuXuXuXuXuXuXuXuXuXuXuXuXuXuXuXuXuXuXuXuXuXuXuXuXuXuXuXuXuXuXuXuXuXuXuXuXuXuXuXuXuXuXuXuXuXuXuXuXuXuXuXuXuXuXuXuXuX",
"uXuXuXuXuXuXuXuXuXuXuXuXuXuXuXuXuXuXuXuXuXuXuXuXuXuXuXuXuXuXuXuXuXuXuXuXuXuXuXuXuXuXuXuXuXuXuXuXuXuXuXuXuXuXuXuXuXuXuXuX",
"uXuXuXuXuXuXuXuXuXuXuXuXuXuXuXuXuXuXuXuXuXuXuXuXuXuXuXuXuXuXuXuXuXuXuXuXuXuXuXuXuXuXuXuXuXuXuXuXuXuXuXuXuXuXuXuXuXuXuXuX",
"uXuXuXuXuXuXuXuXuXuXuXuXuXuXuXuXuXuXB B B B B B B B B B B B B B B B B B B B B B B B Q uXuXuXuXuXuXuXuXuXuXuXuXuXuXuXuXuX",
"uXuXuXuXuXuXuXuXuXuXuXuXuXuXuXuXuXuXj l l l j j l j j j l l l l l z l l l j l k l l B uXuXuXuXuXuXuXuXuXuXuXuXuXuXuXuXuX",
"uXuXuXuXuXuXuXuXuXuXuXuXuXuXuXuXuXl.m m N =.=.=.=.=.=.=.=.=.=.=.=.=.=.=.=.<.$.$.N m N OXuXuXuXuXuXuXuXuXuXuXuXuXuXuXuXuX",
"uXuXuXuXuXuXuXuXuXuXuXuXuXuXuXB B O.X.X.-.a.p.p.f.p.p.p.p.s.f.s.s.f.p.p.a.p.p.a.*.X.#.N B C uXuXuXuXuXuXuXuXuXuXuXuXuXuX",
"uXuXuXuXuXuXuXuXuXuXuXuXuXuXq.j b O.X.X.-.a.s.s.s.f.s.s.s.s.s.f.s.s.s.s.s.s.s.a.*.....m l l uXuXuXuXuXuXuXuXuXuXuXuXuXuX",
"uXuXuXuXuXuXuXuXuXuXuXuXuXuXq.l b &.>.>.y.p.s.s.s.s.s.s.s.s.s.s.s.s.s.s.s.s.s.d.i.i.i.$.+.+.q.oXuXuXuXuXuXuXuXuXuXuXuXuX",
"uXuXuXuXuXuXuXuXuXuXuXuXuXuXq.j b 3.s.s.s.s.s.s.s.s.s.s.s.s.s.s.s.s.s.s.s.s.s.g.wXrXeX8...%.+.b l q.uXuXuXuXuXuXuXuXuXuX",
"uXuXuXuXuXuXuXuXuXuXuXuXuXuXq.j b 3.d.s.s.s.s.s.s.s.s.p.s.s.s.s.s.s.s.s.s.s.s.g.wXrXeX8...X.M l j q.uXuXuXuXuXuXuXuXuXuX",
"uXuXuXuXuXuXuXuXuXuXuXuX].[.2.O.+.u.s.p.s.s.s.s.s.s.s.s.s.s.s.s.s.s.s.s.s.s.s.d.-X;X-X3...%.M l j _ ].].uXuXuXuXuXuXuXuX",
"uXuXuXuXuXuXuXuXuXuXuX^ z b @.o.&.y.s.s.p.s.s.s.s.s.s.s.s.s.s.s.s.s.s.s.s.s.s.s.a.s.a.*.X.X.M l b j j j ^ uXuXuXuXuXuXuX",
"uXuXuXuXuXuXuXuXuXuXuX^ b b  .X.%.y.s.s.p.p.s.s.s.s.s.s.s.s.s.s.s.s.s.s.s.s.s.s.p.p.a.>.X.X.M l b b l l _ uXuXuXuXuXuXuX",
"uXuXuXuXuXuXuXuXuXuXuX^ j n  .X...-.y.>.y.p.s.s.s.s.s.s.s.s.s.s.s.s.s.s.s.s.s.d.;X;X;X3.X.X.+.l l / {.}.].{ { l.uXuXuXuX",
"uXuXuXuXuXuXuXuXuXuXuX^ b b  .o.X.......-.p.s.s.s.s.s.s.s.s.s.s.s.s.s.s.s.s.d.g.wXrXeX8...X.M l j 0.tXrX9X*   $ uXuXuXuX",
"uXuXuXuXuXuXuXuXuXuXuX) b b @.o.X.X.o...-.a.p.p.p.p.p.p.p.p.p.p.p.p.p.p.p.p.p.g.wXrXeX8.o.%.+.b j 0.tXrX9X*   * uXuXuXuX",
"uXuXuXuXuXuXuXuXuXuXuX/ b b @.o.X.X.o.%.*.-.-.-.-.>.-.-.>.-.-.-.-.-.>.-.-.-.-.;.8.r.8.Y.{.Y.2. . .9.eXrX9X*   * uXuXuXuX",
"uXuXuXuXuXuXuXuXuXuXuX) l b  .o.o.....o.o.X...X.....X.X.X.X.X.....X.X...X...X.X.o...%.}.5X5Xt.....8.eXrX9X*   * uXuXuXuX",
"uXuXuXuXuXuXuXuXuXuXuX! j j @.X.X.o.%.o.X.X.o.X.X.X.X.X.X.X.X.o.o.X.o.X.X.X.X.o.o.o.*.[.7X2X9.%.&.8.eXrX9X*   = uXuXuXuX",
"uXuXuXuXuXuXuXuXR E W ; @ @ f v m O.X.X.X.X.X.X.o.X.X.X.o.X.X.o.X.X.o.X.X.o.X.X.o...X.:.4.4.t..X XoXrXrX9X*   * uXuXuXuX",
"uXuXuXuXuXuXuXuX            f b b O.X.X.X.o.X.X.o.X.o.o.X.o.X.X.o.X.X.o.X.X.o.o.o.o.X.X.o.X.Y.5X5X6XtXrX9X*   * uXuXuXuX",
"uXuXuXuXuXuXuXuX.       . . h k l +.%.X.X.%.X.X.X.o.o.X.X.o.o.X.o.X.X.o.o.X.X.X.%.&.&.%.%.%.Y.5X7X6XyXtX4X1 O r uXuXuXuX",
"uXuXuXuXuXE E I 8 8 4 8 4 6 w p p k v m m v v M X.o.X.X.o.X.X.o.o.o.%.X.o.X.%.&.Y. X X X X XXX5X3X|.K p [ uXuXuXuXuXuXuX",
"uXuXuXuXuX    X 0 F F 0 0 F 0 F 0 a b b b n b m | X.o.o.o.X.X.X.o.o.o.o.o.o.%.&..X5X5X5X3X7X5X5X5XK.    T uXuXuXuXuXuXuX",
"uXuXuXuXuXr r 6 8 8 0 0 F 0 F F 0 a k k k k k n @.| | | | X.X.#.| | | | #.| %.#. XXXXX2X2X1X2X2X1XY.y 1 R uXuXuXuXuXuXuX",
"uXuXuXuXuXuXuXuXX X # 8 F 0 F 0 0 q q q q q q t n v v v v v v v v v v v v v v v C V ! V.G.G.' <._ Y.uXuXuXuXuXuXuXuXuXuX",
"uXuXuXuXuXuXuXuX. . X 8 F F 0 F 0 0 F 0 F 0 0 w k b l b l b j j j b j j b b b b l l l B.S.S.' ~ ! ].uXuXuXuXuXuXuXuXuXuX",
"uXuXuXuXuXuXuXuX# X # w 0 F F 0 0 F 0 0 G I I I S D D x k k x A Z Z Z D B z h z B A Q U.G.Z.' ~ ~ ].uXuXuXuXuXuXuXuXuXuX",
"uXuXuXuXuX= ; 6 8 0 0 0 F 0 F F 0 F F 0 T j.k.v.*X>X#XI 0 q ` z.M.M.z.z.5.O   @ t.z.M.z.k.k.2.~ Q ].uXuXuXuXuXuXuXuXuXuX",
"uXuXuXuXuX    X 0 0 0 F F F 0 F 0 0 0 F T c.c.m.>X>X&XI F F 5.n.c.c.c.b.5.    + e.n.c.b.b.b.6.V V [.uXuXuXuXuXuXuXuXuXuX",
"uXuXuXuXuXR R [ E.E.] q 4 4 e F F 8 6 6 T v.c.m.>X>X*XR T T w.c.c.m.N.N.7.; = u j.N.m.j.r.r.l.].[.oXuXuXuXuXuXuXuXuXuXuX",
"uXuXuXuXuXuXuXuXuXuXuXt     8 0 0 &     h v.c.m.>X>X=Xv.x.x.c.c.c.%X=X,X+X! Q / %X>X>X6.~ / 0XuXuXuXuXuXuXuXuXuXuXuXuXuX",
"uXuXuXuXuXuXuXuXuXuXuXr     8 F 0 &     u v.c.m.>X>X=Xm.c.c.c.c.c.$X,X,Xv.~ Q / %X,X,X6.V ~ 0XuXuXuXuXuXuXuXuXuXuXuXuXuX",
"uXuXuXuXuXuXuXuXuXuXuXy # # < 4 8 & # # a j.e.j.v.m.m.c.c.c.c.b.c.$X*X*Xv.1.1.2.v.#Xv.[.].].uXuXuXuXuXuXuXuXuXuXuXuXuXuX",
"uXuXuXuXuXuXuXuX* X $ 8 0 0 $     3 0 0 a S D / / / ) j.b.c.c.c.c.c.n.n.c.v.x.z.<./ ) qXuXuXuXuXuXuXuXuXuXuXuXuXuXuXuXuX",
"uXuXuXuXuXuXuXuX      8 0 0 #     3 0 F s ! ~ / Q Q / z.b.b.b.n.n.c.c.n.c.b.c.z.<.~ ) qXuXuXuXuXuXuXuXuXuXuXuXuXuXuXuXuX",
"uXuXuXuXuXuXuXuXR R R w 3 3 & # # < 7 7 q x x x S ~ Q ( ( ( ( ( 1.5.e.e.e.e.e.7.x h x qXuXuXuXuXuXuXuXuXuXuXuXuXuXuXuXuX",
"uXuXuXuXuXuXuXuXuXuXuXy     & 3 < 4 4 4 6 a a c Q S C +           : ~ ~ Q ~ ~ C O   o uXuXuXuXuXuXuXuXuXuXuXuXuXuXuXuXuX",
"uXuXuXuXuXuXuXuXuXuXuXr     & 3 < < < 4 4 a a c Q / C +           : ~ ! Q Q ~ C +   o uXuXuXuXuXuXuXuXuXuXuXuXuXuXuXuXuX",
"uXuXuXuXuXuXuXuXuXuXuXr   O ] R.R.R.R.R.} s s a u : u L H H H H H L u : d Y V.Y $   o uXuXuXuXuXuXuXuXuXuXuXuXuXuXuXuXuX",
"uXuXuXuXuXuXuXuXuXuXuXr   . XXrXrXrXtXrX4Xs s t     % B.F.F.D.F.F.H     2 D.S.B.%   o uXuXuXuXuXuXuXuXuXuXuXuXuXuXuXuXuX",
"uXuXuXuXuXuXuXuXuXuXuXr   . oXrXrXrXrXrXoXs s t .   % B.D.S.S.S.F.H O   2 S.S.B.%   X uXuXuXuXuXuXuXuXuXuXuXuXuXuXuXuXuX",
"uXuXuXuXuXuXuXuXuXuXuXt   . R.<X<X<X<X8XW.s s t .   $ J.I.I.I.I.(.' u u P I.I.P.1   o uXuXuXuXuXuXuXuXuXuXuXuXuXuXuXuXuX",
"uXuXuXuXuXuXuXuXuXuXuXr   . C.!.!.!.~.!.A.s s t     * |.5X3X5X5X5XY.! ! 0.5X5XXX1   o uXuXuXuXuXuXuXuXuXuXuXuXuXuXuXuXuX",
"uXuXuXuXuXuXuXuXuXuXuXt   X C.!.!.!.!.!.A.s s t .   * |.3X7X3X3X3XY.! ! 0.7X5XXXr   o uXuXuXuXuXuXuXuXuXuXuXuXuXuXuXuXuX",
"uXuXuXuXuXuXuXuXuXuXuXuXuXuX] J G C.^.^.T.Z.Z.U .   $ [.@X@X@X@X@X` ; ; i T T K X   o uXuXuXuXuXuXuXuXuXuXuXuXuXuXuXuXuX",
"uXuXuXuXuXuXuXuXuXuXuXuXuXuX[     U ^.^.^.^.^.H.#   + e.b.c.b.c.n.)   .             o uXuXuXuXuXuXuXuXuXuXuXuXuXuXuXuXuX",
"uXuXuXuXuXuXuXuXuXuXuXuXuXuX} + o U ~.~.T.~.~.A.o   @ e.b.c.x.c.n.) O .         o * = uXuXuXuXuXuXuXuXuXuXuXuXuXuXuXuXuX",
"uXuXuXuXuXuXuXuXuXuXuXuXuXuXuXuXuXK.7 8 9 9 9 y g g g <.1.1.1.1.1.5.6.6.S .   * uXuXuXuXuXuXuXuXuXuXuXuXuXuXuXuXuXuXuXuX",
"uXuXuXuXuXuXuXuXuXuXuXuXuXuXuXuXuX{           @ | o.X.D S ~ Q ~ Q 9.n.n.6.    = uXuXuXuXuXuXuXuXuXuXuXuXuXuXuXuXuXuXuXuX",
"uXuXuXuXuXuXuXuXuXuXuXuXuXuXuXuXuX'.o o $ o + ;  .X.| D ! ! ! ! Q 6.+Xv.5.    = uXuXuXuXuXuXuXuXuXuXuXuXuXuXuXuXuXuXuXuX",
"uXuXuXuXuXuXuXuXuXuXuXuXuXuXuXuXuXuXuXuXuXuXuXuXh > : U.L.L.Q.(.(.(.`.1XJ.O   = uXuXuXuXuXuXuXuXuXuXuXuXuXuXuXuXuXuXuXuX",
"uXuXuXuXuXuXuXuXuXuXuXuXuXuXuXuXuXuXuXuXuXuXuXuX=   # H.^.!.)._._._._._.T.O   = uXuXuXuXuXuXuXuXuXuXuXuXuXuXuXuXuXuXuXuX",
"uXuXuXuXuXuXuXuXuXuXuXuXuXuXuXuXuXuXuXuXuXuXuXuXK r y H.T.H./.).).).).).L.y r s uXuXuXuXuXuXuXuXuXuXuXuXuXuXuXuXuXuXuXuX",
"uXuXuXuXuXuXuXuXuXuXuXuXuXuXuXuXuXuXuXuXuXuXuXuXuXuXuXK < 9 < 5 9 4 9 9 R uXuXuXuXuXuXuXuXuXuXuXuXuXuXuXuXuXuXuXuXuXuXuX",
"uXuXuXuXuXuXuXuXuXuXuXuXuXuXuXuXuXuXuXuXuXuXuXuXuXuXuXt                 W uXuXuXuXuXuXuXuXuXuXuXuXuXuXuXuXuXuXuXuXuXuXuX",
"uXuXuXuXuXuXuXuXuXuXuXuXuXuXuXuXuXuXuXuXuXuXuXuXuXuXuXW r r r r r r r r [ uXuXuXuXuXuXuXuXuXuXuXuXuXuXuXuXuXuXuXuXuXuXuX",
"uXuXuXuXuXuXuXuXuXuXuXuXuXuXuXuXuXuXuXuXuXuXuXuXuXuXuXuXuXuXuXuXuXuXuXuXuXuXuXuXuXuXuXuXuXuXuXuXuXuXuXuXuXuXuXuXuXuXuXuX",
"uXuXuXuXuXuXuXuXuXuXuXuXuXuXuXuXuXuXuXuXuXuXuXuXuXuXuXuXuXuXuXuXuXuXuXuXuXuXuXuXuXuXuXuXuXuXuXuXuXuXuXuXuXuXuXuXuXuXuXuX"
};
