/* XPM */
static char *result[] = {
/* columns rows colors chars-per-pixel */
"60 60 224 2 ",
"   c #010101",
".  c #030709",
"X  c #04090B",
"o  c #0D0C0C",
"O  c #0A0606",
"+  c #0E0F11",
"@  c #050B12",
"#  c #08151A",
"$  c #121213",
"%  c #1A1818",
"&  c #120C0C",
"*  c #261616",
"=  c #321B19",
"-  c #220A06",
";  c #33221E",
":  c #0B1C23",
">  c #071D26",
",  c #0B1938",
"<  c #141F22",
"1  c #0B222A",
"2  c #15272D",
"3  c #122C34",
"4  c #132F38",
"5  c #14353E",
"6  c #1A363C",
"7  c #0F2E37",
"8  c #2C2C2C",
"9  c #252425",
"0  c #382825",
"q  c #262933",
"w  c #2D3136",
"e  c #263339",
"r  c #343434",
"t  c #393738",
"y  c #5B1D13",
"u  c #4C170E",
"i  c #7C2D1F",
"p  c #482B2A",
"a  c #5D2926",
"s  c #5E2C2A",
"d  c #582A29",
"f  c #5B3735",
"g  c #473738",
"h  c #652C26",
"j  c #6B2C25",
"k  c #622C2A",
"l  c #692C29",
"z  c #7A2E24",
"x  c #722D23",
"c  c #65312D",
"v  c #6E312F",
"b  c #673836",
"n  c #7C342B",
"m  c #6E403F",
"M  c #74413D",
"N  c #172E43",
"B  c #143640",
"V  c #1C3945",
"C  c #1B3B56",
"Z  c #273A46",
"A  c #213B52",
"S  c #3F3F43",
"D  c #13316B",
"F  c #2F3C6B",
"G  c #473C4B",
"H  c #6D3F40",
"J  c #3B4345",
"K  c #28445B",
"L  c #3D575E",
"P  c #2B484F",
"I  c #255273",
"U  c #355372",
"Y  c #414144",
"T  c #464549",
"R  c #524650",
"E  c #6E4242",
"W  c #644141",
"Q  c #724343",
"!  c #794B48",
"~  c #795449",
"^  c #7B5455",
"/  c #6A4B49",
"(  c #6A6258",
")  c #4F5F6B",
"_  c #565965",
"`  c #524767",
"'  c #7C5A63",
"]  c #6B6B6B",
"[  c #686975",
"{  c #757679",
"}  c #737170",
"|  c #50606C",
" . c #9B311E",
".. c #97301C",
"X. c #9E2F1B",
"o. c #A6321D",
"O. c #A8321E",
"+. c #A42F18",
"@. c #822E23",
"#. c #983221",
"$. c #933221",
"%. c #883B31",
"&. c #803428",
"*. c #A73724",
"=. c #B33D2A",
"-. c #91463E",
";. c #A44436",
":. c #BB4431",
">. c #C24B3A",
",. c #84564C",
"<. c #815A59",
"1. c #855B54",
"2. c #8C524A",
"3. c #B55244",
"4. c #A65650",
"5. c #916959",
"6. c #855F61",
"7. c #8A6767",
"8. c #907072",
"9. c #AA6A6A",
"0. c #A57562",
"q. c #AA7B67",
"w. c #B57C65",
"e. c #AB7479",
"r. c #AA7476",
"t. c #BA756E",
"y. c #D05748",
"u. c #D25949",
"i. c #D95F51",
"p. c #C6584A",
"a. c #D6655D",
"s. c #CE645A",
"d. c #E46A5D",
"f. c #EC6F65",
"g. c #E46B61",
"h. c #EC7066",
"j. c #EB726A",
"k. c #E77E77",
"l. c #C2726B",
"z. c #A78F5B",
"x. c #A7846C",
"c. c #B8836C",
"v. c #BB8771",
"b. c #AB8072",
"n. c #9D8E7D",
"m. c #C2896F",
"M. c #C48C73",
"N. c #C1827C",
"B. c #CD9376",
"V. c #CD987B",
"C. c #D09476",
"Z. c #D29A7A",
"A. c #D19579",
"S. c #E7827F",
"D. c #D8A27E",
"F. c #183D86",
"G. c #324F93",
"H. c #34719F",
"J. c #336B93",
"K. c #1C4CAC",
"L. c #1E4DA6",
"P. c #234FA8",
"I. c #3471A2",
"U. c #506B8C",
"Y. c #5F6591",
"T. c #70798A",
"R. c #4A6CB5",
"E. c #516FB2",
"W. c #536A98",
"Q. c #AC7C84",
"!. c #6E86A9",
"~. c #3F8CC9",
"^. c #3F8AC6",
"/. c #418DCA",
"(. c #4290CB",
"). c #5CAAEC",
"_. c #61B3F7",
"`. c #61AFF3",
"'. c #878888",
"]. c #949393",
"[. c #938C95",
"{. c #A48988",
"}. c #AA8F91",
"|. c #9796AC",
" X c #8B9DB4",
".X c #B19CAD",
"XX c #91A4BC",
"oX c #B3A3B9",
"OX c #B3A8A8",
"+X c #E98B87",
"@X c #CDA080",
"#X c #D9A584",
"$X c #DFB18D",
"%X c #E3B58F",
"&X c #EBBC94",
"*X c #E4B691",
"=X c #CAA6A7",
"-X c #D09896",
";X c #EEC297",
":X c #EFC298",
">X c #F1C398",
",X c #FDE685",
"<X c #F5E59B",
"1X c #D0C7B1",
"2X c #ADAECC",
"3X c #AEB1CE",
"4X c #B1B1CE",
"5X c #BBBBC5",
"6X c #AEB2D1",
"7X c #B2B4D1",
"8X c #B1AFCC",
"9X c #D6BDC6",
"0X c #B1CDE9",
"qX c #C5C7D8",
"wX c #E9C8D0",
"eX c #E7E5DD",
"rX c #E7DAE5",
"tX c #E5E3EA",
"yX c #E4E5F3",
"uX c #EAEAF7",
"iX c #EBEAFA",
"pX c #E9E5F4",
"aX c #DEDBE8",
"sX c None",
/* pixels */
"sXsXsXsXsXsXsXsXsXsXsXsXsXsXsXsXsXsXsXsXsXsXsXsXsXsXsXsXsXsXsXsXsXsXsXsXsXsXsXsXsXsXsXsXsXsXsXsXsXsXsXsXsXsXsXsXsXsXsXsX",
"sXsXsXsXsXsXsXsXsXsXsXsXsXsXsXsXsXsXsXsXsXsXsXsXsXsXsXsXsXsXsXsXsXsXsXsXsXsXsXsXsXsXsXsXsXsXsXsXsXsXsXsXsXsXsXsXsXsXsXsX",
"sXsXsXsXsXsXsXsXsXsXsXsXsXsXsXsXsXsXsXsXsXsXsXsXsXsXsXsXsXsXsXsXsXsXsXsXsXsXsXsXsXsXsXsXsXsXsXsXsXsXsXsXsXsXsXsXsXsXsXsX",
"sXsXsXsXsXsXsXsXsXsXsXsXsXsXsXsX<.<.<.<.<.<.<.<.<.<.<.<.<.<.<.<.<.<.<.<.<.<.<.<.<.<.<.7.sXsXsXsXsXsXsXsXsXsXsXsXsXsXsXsX",
"sXsXsXsXsXsXsXsXsXsXsXsXsXsXsXsXs a a a a a h a a a a h a a a a s s s a a s s s a a a c sXsXsXsXsXsXsXsXsXsXsXsXsXsXsXsX",
"sXsXsXsXsXsXsXsXsXsXsXsXsXsXsXsXh l l v v v v v v v v v v v v v v v v v v v v v v h h v sXsXsXsXsXsXsXsXsXsXsXsXsXsXsXsX",
"sXsXsXsXsXsXsXsXsXsXsXsXsX^ 1.-.#. .*.p.a.a.a.a.a.a.a.a.a.a.a.a.a.a.a.a.i.a.a.a.p. . .#.2.<.^ 8.sXsXsXsXsXsXsXsXsXsXsXsX",
"sXsXsXsXsXsXsXsXsXsXsXsX~ a a i +.o.*.d.j.h.h.h.h.h.h.h.h.h.h.h.h.h.h.h.h.j.f.j.y.+.o.o.i a a ~ sXsXsXsXsXsXsXsXsXsXsXsX",
"sXsXsXsXsXsXsXsXsXsXsXsX,.j j -.3.3.3.g.j.h.f.h.h.h.h.h.h.h.f.j.h.j.f.h.f.j.f.h.u.=.=.=.z k a ^ sXsXsXsXsXsXsXsXsXsXsXsX",
"sXsXsXsXsXsXsXsXsXE Q M #. .X.t.rXrXwXk.f.h.h.h.f.j.f.h.h.h.h.f.h.h.f.h.h.f.f.j.f.g.g.g.2.s d ~ sXsXsXsXsXsXsXsXsXsXsXsX",
"sXsXsXsXsXsXsXsXsXa s j  .o.o.N.iXiXrX+Xf.f.j.f.f.h.f.h.f.f.h.f.h.h.h.h.h.h.j.h.f.j.f.j.%.l a ~ sXsXsXsXsXsXsXsXsXsXsXsX",
"sXsXsXsXsXsXsXsX7.a s h  .o.o.l.wXwX9Xk.f.h.f.h.h.h.j.f.h.j.h.h.h.h.f.f.f.h.f.f.f.f.f.g.3.z x 2.sXsXsXsXsXsXsXsXsXsXsXsX",
"sXsXsXsXsXE c c c k k h  .O.o.>.j.j.j.j.f.h.h.h.f.j.h.f.h.h.h.h.h.h.h.j.h.h.h.h.f.f.f.f.>.o.o.$.b b c sXsXsXsXsXsXsXsXsX",
"sXsXsXsXsXb a s k s k l  .O.o.>.f.f.f.f.h.f.h.h.h.f.h.j.h.h.j.f.h.h.h.f.h.h.h.f.f.j.j.j.>.o.o.$.h k s sXsXsXsXsXsXsXsXsX",
"sXsXsXsXsX7.7.' b k s j  .o.o.p.+X+X+Xj.f.j.h.h.h.f.h.f.h.h.f.h.f.h.f.h.h.h.f.f.g.i.i.i.:.o.o...h k s sXsXsXsXsXsXsXsXsX",
"sX] O . T rXyXrX7.s s h  .O.o.N.pXyXrX+Xf.f.h.h.h.h.h.h.h.h.f.h.h.f.j.h.h.h.f.f.u.*.O.O.o.o.o...h k s sXsXsXsXsXsXsXsXsX",
"sX]     J yXpXyX7.d s k X.+.O.l.iXiXpX+Xf.f.f.f.f.h.h.h.h.f.f.f.h.h.h.h.h.h.h.h.u.o.o.o.o.O.O. .l s s sXsXsXsXsXsXsXsXsX",
"sX]     S rXiXpX9.z n n 4.9.9.Q.=X-X-Xa.y.y.u.y.u.u.y.u.y.y.y.y.u.u.y.y.y.u.y.u.>.o.o.o.o.o.O. .h s s sXsXsXsXsXsXsXsXsX",
"sX]     S tXiXyX9.O.O.=..X7X6Xe.+.o.o.o.o.o.o.o.o.o.o.o.o.o.O.O.o.o.o.o.o.o.o.o.o.o.o.o.o.o.o...l s s sXsXsXsXsXsXsXsXsX",
"sX]     S tXiXpXt.+.#.=..X7X2XQ.o.o.o.o.o.o.o.o.o.o.o.o.o.o.o.O.o.o.o.o.o.o.o.o.o.O.o.o.o.o.o...l s s sXsXsXsXsXsXsXsXsX",
"sX]     S tXuXyX-Xe.Q.r.e.9.9.4.o.o.o.O.o.o.o.o.O.o.o.o.o.o.O.o.o.o.o.o.o.o.o.o.o.O.o.o...i @.x = = = R } { sXsXsXsXsXsX",
"sX]     S tXuXyXqX2X2XoX=.o.#.O.O.o.O.*.O.o.o.o.o.o.O.O.O.o.O.o.o.o.o.o.o.o.o.o.o.o.o.o.i s h p             & sXsXsXsXsX",
"sX]     Y yXiXiXqX2X2XoX*.O.O.O.o.+.o.*.o.o.o.o.+.O.o.o.O.o.o.o.o.o.o.o.o.o.o.o.o.O.O.o.n s s p O           % sXsXsXsXsX",
"sXsX'.'.'.T.} [ |.8X2X2XQ.e.e.e.r.e.9.*.o.O.o.o.o.O.O.o.o.o.o.O.o.o.o.o.o.$.&.i @.@.@.&.d r r w : : # : : # 2 { sXsXsXsX",
"sXsXsXsXsX+     T.8X8X7X7X8X6X7X6X6X2X=.o.o.o.o.O.o.o.o.o.o.o.o.o.o.o.o. .j s s s s k s w 5 5 5 5 5 5 B 5 B 5 X     ] sX",
"sXsXsXsXsX% . O T.6X8X8X6X8X6X8X8X2X.X4.o.o.o.o.o.o.*.o.o.o.o.o.o.*.o.o.*.j s s s s s s w B 5 B 5 5 B B 5 B 5 +   . ] sX",
"sXsXsXsXsXsXOXOXQ.{ [ Q.E.R.R.Y.' ' ^ n z z z z i i z i z z z z i i i x x r r e w w w w 6 5 B 5 5 6 B 1 # # % sXsXsXsXsX",
"sXsXsXsXsXsXsXsX{.H b R G.K.K.F s a a s k s a h s s s s s s s s d c d a d 6 5 5 B B 5 5 5 5 5 B 5 B 5 #     $ sXsXsXsXsX",
"sXsXsXsXsXsXsXsX}.Q m / G.P.P.U k c c s a a a c c c c c c c s s d c c f f e 6 6 V 5 5 5 5 5 5 5 5 5 B #     $ sXsXsXsXsX",
"sXsXsXsXsXsXsXsX}.M Q ! r.{.Q.b.w.w.0.= & & p 0.w.w.w.w.w.5.e V e ( D.D.V.x.x.x.( 5 5 B 5 5 B 5 5 5 5 7 3 2 3 J T Y sXsX",
"sXsXsXsXsXsXsXsX{.b m ! c.C.A.B.B.B.v.*     ; M.B.B.B.B.V.0.e B 5 ] ;X;X;XD.B.V.7.5 5 B 5 5 5 5 5 5 B 5 5 5 5       ] sX",
"sXsXsXsXsXsXsXsXOX6.7.7.v.m.v.B.Z.Z.M.; o o 0 B.Z.V.V.B.B.x.J P Z } ;X;X;XZ.B.V.5.4 4 4 5 5 5 5 5 7 7 P L L L t 8 8 sXsX",
"sXsXsXsXsXsXsXsXsXsXsXsX8.~ ! w.&X&X*X~ b f ,.%X&X&X#XC.B.B.c.c.x.@X>X>X&XZ.B.A.1.X . X 1 5 5 3 X X . '.sXsXsXsXsXsXsXsX",
"sXsXsXsXsXsXsXsXsXsXsXsX7.b E q.>X&X*X1.E H 5.&X&X&X#XC.C.B.B.B.C.#X>X>X&XZ.B.V.~     . 1 6 5 3 .     ].sXsXsXsXsXsXsXsX",
"sXsXsXsXsXsXsXsXsXsXsXsX8.1.^ r.*X$X$X1.! ! 5.&X&X&XZ.C.B.B.B.B.B.Z.%X%X%XB.M.M.~ O . . 1 4 4 2 X X . '.sXsXsXsXsXsXsXsX",
"sXsXsXsXsXsXsXsXsXsXsXsXsXsXtXOX,.,.,.c.m.m.M.A.Z.A.C.C.C.B.B.B.C.q.,.,.,.~ ! ~ R 3 3 3 # X X @ 2 4 3 2 9 8 t sXsXsXsXsX",
"sXsXsXsXsXsXsXsXsXsXsXsXsXsXsX=XE E ! v.C.A.B.B.B.B.C.C.C.C.B.C.A.0.H Q Q E E E Y B B 5 # .   X 5 5 5 #     o sXsXsXsXsX",
"sXsXsXsXsXsXsXsXsXsXsXsXsXsXsXOXf f b q.c.c.v.v.c.c.q.0.0.0.0.0.0.5.Q Q E H m W g 5 7 7 # . . @ 1 3 3 q r r t sXsXsXsXsX",
"sXsXsXsXsXsXsXsXsXsXsXsXsXsXsX].O O & f ! ! ! Q ! ! = o & o & o O 0 H Q W g t t e 1 1 1 1 > 1 # . .   ].sXsXsXsXsXsXsXsX",
"sXsXsXsXsXsXsXsXsXsXsXsXsXsXsX].    O b ! b Q Q Q Q *             = Q Q E g t t q > > > > > 1 #       ].sXsXsXsXsXsXsXsX",
"sXsXsXsXsXsXsXsXsXsXsXsXsXsXsX].    O G ` ` ` d g p q , , , , , , 9 p p p t t t J | | | ) ) | T .     ].sXsXsXsXsXsXsXsX",
"sXsXsXsXsXsXsXsXsXsXsXsXsXsXsXsX    @ F.K.K.D .     D L.L.L.L.L.L.D .   O 8 t r { yXyXyXyXyXiX5X+     ].sXsXsXsXsXsXsXsX",
"sXsXsXsXsXsXsXsXsXsXsXsXsXsXsXsX    @ F.K.K.F..     D K.K.K.L.K.K.D     . 8 t r T.uXiXuXuXuXiXqX$     ].sXsXsXsXsXsXsXsX",
"sXsXsXsXsXsXsXsXsXsXsXsXsXsXsXsX    @ G.R.R.G.= * * U R.R.R.R.R.R.F . . O 8 t r { 0X0X0X0X0X0XXX+     sXsXsXsXsXsXsXsXsX",
"sXsXsXsXsXsXsXsXsXsXsXsXsXsXsXsX    + |.6X6X|.E H E [.6X2X2X2X2X2X[     . 8 t r U ~.~.~.~.(.(.H.@     sXsXsXsXsXsXsXsXsX",
"sXsXsXsXsXsXsXsXsXsXsXsXsXsXsXsX    + |.7X7X.XQ Q Q [.7X4X8X3X3X4X[     O 8 t r U ~.~.~.~.~.(.I.X     sXsXsXsXsXsXsXsXsX",
"sXsXsXsXsXsXsXsXsXsXsXsXsXsXsXsX    X _ [ [ _ p p 0 {.1X1X1XqXqXqX}     . K U U J./.~.~.J.I I U { { { sXsXsXsXsXsXsXsXsX",
"sXsXsXsXsXsXsXsXsXsXsXsXsXsXsXsX                  . z.,X,X<XeXtXtX'.    # H.(.~.~./.^.^.V   . w sXsXsXsXsXsXsXsXsXsXsXsX",
"sXsXsXsXsXsXsXsXsXsXsXsXsXsXsXsX. .                 z.,X,X<XeXtXpX'..   X I.~.~./././.~.V     r sXsXsXsXsXsXsXsXsXsXsXsX",
"sXsXsXsXsXsXsXsXsXsXsXsXsXsXsXsXsXsXsX%     * / ~ ~ 5.z.x.z.{.{.{.1.y y y Z C C C C C K [.sXsXsXsXsXsXsXsXsXsXsXsXsXsXsX",
"sXsXsXsXsXsXsXsXsXsXsXsXsXsXsXsXsXsXsX8     ; B.C.A.5.m M E m m m %.o.O.#.- .         o sXsXsXsXsXsXsXsXsXsXsXsXsXsXsXsX",
"sXsXsXsXsXsXsXsXsXsXsXsXsXsXsXsXsXsXsX8   . ; M.C.C.1.m Q Q m Q m %.o.o...-         . $ sXsXsXsXsXsXsXsXsXsXsXsXsXsXsXsX",
"sXsXsXsXsXsXsXsXsXsXsXsXsXsXsXsXsXsXsX8     q  XXXXX!.!.!.W.U.U.U.R u u a ].sXsXsXsXsXsXsXsXsXsXsXsXsXsXsXsXsXsXsXsXsXsX",
"sXsXsXsXsXsXsXsXsXsXsXsXsXsXsXsXsXsXsX8     N )._._._._._.)././.~.I     9 sXsXsXsXsXsXsXsXsXsXsXsXsXsXsXsXsXsXsXsXsXsXsX",
"sXsXsXsXsXsXsXsXsXsXsXsXsXsXsXsXsXsXsXt o & Z ).`.`.`.`._.)././.~.I + o 8 sXsXsXsXsXsXsXsXsXsXsXsXsXsXsXsXsXsXsXsXsXsXsX",
"sXsXsXsXsXsXsXsXsXsXsXsXsXsXsXsXsXsXsXsXsXsXsXA A A A A A C N N N T.sXsXsXsXsXsXsXsXsXsXsXsXsXsXsXsXsXsXsXsXsXsXsXsXsXsX",
"sXsXsXsXsXsXsXsXsXsXsXsXsXsXsXsXsXsXsXsXsXsXsXO                   { sXsXsXsXsXsXsXsXsXsXsXsXsXsXsXsXsXsXsXsXsXsXsXsXsXsX",
"sXsXsXsXsXsXsXsXsXsXsXsXsXsXsXsXsXsXsXsXsXsXsX% o $ + o + o + + o sXsXsXsXsXsXsXsXsXsXsXsXsXsXsXsXsXsXsXsXsXsXsXsXsXsXsX",
"sXsXsXsXsXsXsXsXsXsXsXsXsXsXsXsXsXsXsXsXsXsXsXsXsXsXsXsXsXsXsXsXsXsXsXsXsXsXsXsXsXsXsXsXsXsXsXsXsXsXsXsXsXsXsXsXsXsXsXsX",
"sXsXsXsXsXsXsXsXsXsXsXsXsXsXsXsXsXsXsXsXsXsXsXsXsXsXsXsXsXsXsXsXsXsXsXsXsXsXsXsXsXsXsXsXsXsXsXsXsXsXsXsXsXsXsXsXsXsXsXsX"
};
