/* XPM */
static char *b654f4556a1c4da197e5390f9370ba661yOtZVIwHxfRIByF[] = {
/* columns rows colors chars-per-pixel */
"60 60 228 2 ",
"   c None",
".  c #010101",
"X  c #0C0604",
"o  c #0C0C0C",
"O  c #05080A",
"+  c #130908",
"@  c #050C14",
"#  c #0C1418",
"$  c #131313",
"%  c #171719",
"&  c #1B1B1C",
"*  c #191917",
"=  c #18110D",
"-  c #36110B",
";  c #231715",
":  c #2D1412",
">  c #2B231A",
",  c #34261F",
"<  c #161D23",
"1  c #0D1A2B",
"2  c #0D252B",
"3  c #13343D",
"4  c #1F373C",
"5  c #142632",
"6  c #2C2C2C",
"7  c #242524",
"8  c #372929",
"9  c #353535",
"0  c #36393D",
"q  c #243438",
"w  c #201E21",
"e  c #552A16",
"r  c #673417",
"t  c #743C1B",
"y  c #492D2D",
"u  c #5C2926",
"i  c #5F2C2A",
"p  c #592624",
"a  c #46322B",
"s  c #493C39",
"d  c #563534",
"f  c #632C27",
"g  c #762C22",
"h  c #67312E",
"j  c #72342E",
"k  c #6B3C3D",
"l  c #623734",
"z  c #703932",
"x  c #441711",
"c  c #514437",
"v  c #6C443E",
"b  c #735937",
"n  c #163641",
"m  c #193755",
"M  c #253D44",
"N  c #383B43",
"B  c #243E54",
"V  c #142E61",
"C  c #183164",
"Z  c #27424B",
"A  c #2E4A5A",
"S  c #2A4964",
"D  c #355876",
"F  c #2A4271",
"G  c #444445",
"H  c #484B4A",
"J  c #5D5D5D",
"K  c #545454",
"L  c #534D48",
"P  c #6F4241",
"I  c #6A4941",
"U  c #724443",
"Y  c #744A49",
"T  c #7B4C47",
"R  c #6D5045",
"E  c #6F5349",
"W  c #7D5352",
"Q  c #70564F",
"!  c #726752",
"~  c #4F5C69",
"^  c #556A7A",
"/  c #686767",
"(  c #7B7A7B",
")  c #757576",
"_  c #6E6B73",
"`  c #615D62",
"'  c #97311E",
"]  c #862A1B",
"[  c #A42F1A",
"{  c #A22E17",
"}  c #A5321D",
"|  c #A9331E",
" . c #963323",
".. c #893529",
"X. c #A93621",
"o. c #A63926",
"O. c #B23C29",
"+. c #91443E",
"@. c #974336",
"#. c #8B5737",
"$. c #854B32",
"%. c #A74435",
"&. c #AC4938",
"*. c #8C603F",
"=. c #C14B3B",
"-. c #87564B",
";. c #845958",
":. c #A65147",
">. c #AB5245",
",. c #B45343",
"<. c #B65F52",
"1. c #AA534A",
"2. c #8A6755",
"3. c #946C5A",
"4. c #956F4A",
"5. c #A97454",
"6. c #866466",
"7. c #9B7B7A",
"8. c #8F7172",
"9. c #A87664",
"0. c #B47D67",
"q. c #A97472",
"w. c #CB5344",
"e. c #D45C4E",
"r. c #DD6559",
"t. c #E1685C",
"y. c #D86860",
"u. c #EB6F65",
"i. c #E56C61",
"p. c #EB7066",
"a. c #EB746C",
"s. c #E87972",
"d. c #B7875F",
"f. c #988B77",
"g. c #B58569",
"h. c #BA8972",
"j. c #AF8C74",
"k. c #C48C72",
"l. c #C3837F",
"z. c #C98E74",
"x. c #CD9376",
"c. c #CC9479",
"v. c #D19577",
"b. c #D19679",
"n. c #C1896E",
"m. c #E8847E",
"M. c #C6A27E",
"N. c #D4A47D",
"B. c #C0A068",
"V. c #E2B87C",
"C. c #1D4491",
"Z. c #264582",
"A. c #326B97",
"S. c #1D4CAA",
"D. c #1D4BA7",
"F. c #214DA6",
"G. c #224FAC",
"H. c #2652AB",
"J. c #496C8A",
"K. c #596C90",
"L. c #70738A",
"P. c #5774B0",
"I. c #6C7AA8",
"U. c #8D7B87",
"Y. c #917887",
"T. c #6B83BD",
"R. c #78898C",
"E. c #418DC8",
"W. c #589ED8",
"Q. c #4D99D8",
"!. c #6181C2",
"~. c #6B84C0",
"^. c #65B4F9",
"/. c #64B3F7",
"(. c #77B8EF",
"). c #939096",
"_. c #8C858F",
"`. c #AE9290",
"'. c #B2A19E",
"]. c #9E9DB6",
"[. c #AD98AA",
"{. c #A6A9AA",
"}. c #BAA6A6",
"|. c #A7A4BB",
" X c #B3B4B3",
".X c #9FA1B9",
"XX c #C28985",
"oX c #E98581",
"OX c #E98C88",
"+X c #E99D9D",
"@X c #DBA884",
"#X c #CBA084",
"$X c #E4B58D",
"%X c #ECBD95",
"&X c #E0AE89",
"*X c #D6B4B8",
"=X c #C9B6B2",
"-X c #E9B5BA",
";X c #E7A9A7",
":X c #EEC197",
">X c #EEC298",
",X c #F2C499",
"<X c #F1C396",
"1X c #FDE785",
"2X c #DAC1A6",
"3X c #F2DDAE",
"4X c #8B9AC8",
"5X c #859BD1",
"6X c #97ADD6",
"7X c #B2ADC7",
"8X c #B1B2CE",
"9X c #B3B4D2",
"0X c #ACAFCD",
"qX c #8BB3E4",
"wX c #C9BDCD",
"eX c #B5C3E5",
"rX c #C5C6D1",
"tX c #C3C2DB",
"yX c #E9D3DC",
"uX c #CACBE1",
"iX c #D4D4E1",
"pX c #E9DBE6",
"aX c #E9E1EE",
"sX c #E5E7F6",
"dX c #EAE9F7",
"fX c #EBEBFA",
"gX c #E8E6F6",
"hX c #F3F8F8",
/* pixels */
"                                                                                                                        ",
"                                                                                                                        ",
"                                6.Y Y Y Y Y Y Y Y Y Y Y Y Y Y Y Y Y Y U Y Y Y Y Y Y 8.                                  ",
"                                U u i i u u u f i u u i u u u u p f p p i u u u i u ;.                                  ",
"                                $.g g ..+.+.+.+.-.+.+.+.+.+.+.+.+.+.+.-.+.+.+...g g -.                                  ",
"                          l l h  .} [ e.a.a.a.u.i.u.u.p.u.u.u.u.u.u.u.u.u.u.u.w.} X.[ h h l                             ",
"                          h f f ' | | e.u.u.u.u.u.u.u.u.u.i.u.u.u.u.u.u.u.u.u.w.} X.' f i i                             ",
"                          i i h ,.w.w.t.u.u.u.u.u.p.;X;X-X-X-X-X;Xa.a.u.u.u.u.r.w.w.,.j i i                             ",
"                          l i j i.p.p.p.p.u.p.u.u.a.yXfXdXfXfXdXyXs.u.u.u.u.u.u.p.p.y.j f i =X                          ",
"                          i f j y.p.p.u.p.p.p.u.p.s.yXgXgXgXdXsXyXs.u.u.u.u.u.u.u.a.y.j i f =X                          ",
"                    7.`.9.] .. .t.u.u.p.u.u.m.-X-X-X;X+X+X+X+X+X;X-X-X-Xm.u.u.a.u.p.t. .....3._.7.                      ",
"                  6.p p g } [ O.t.u.u.u.u.u.OXdXfXaXoXu.u.u.u.u.oXaXfXgXOXu.u.u.p.p.t.O.[ [ g u f Y.                    ",
"                  8.p p g ' } o.r.u.i.u.u.u.OXpXpXyXoXu.u.u.u.u.m.yXpXpXOXu.p.u.i.u.r.O.} } g i p f.                    ",
"                  ` + + x } [ X.O.O.O.e.u.u.a.m.OXoXa.u.u.u.u.u.a.m.OXoXa.p.p.w.O.O.O.| } } - = X (                     ",
"                  J . . - } } } } [ | e.u.u.u.u.u.u.u.u.u.u.p.u.a.u.u.u.p.p.p.w.[ } [ | | } - . . )                     ",
"                  K . . - } } } } [ | w.r.r.u.oXoXm.t.r.r.r.r.r.i.s.oXoXi.r.r.=.} [ [ | | ' - . . /                     ",
"            ~ Z Z # . . - } } } | | } X.X.| <.pXaXyX,.[ | X.X.X.1.yXaXpX<.| o.X.} } } } } } - . . 2 Z Z A               ",
"            A 3 3 @ . . - } | } [ [ [ } | [ <.gXfXpX,.{ [ [ | [ :.pXfXaX<.[ } } [ } [ | | ' - . . # n 3 A               ",
"            Z 2 2 > > > e ]  . .:.1.1.o.} [ >.*X*X*X9.:.:.:.:.:.<.*X*X*X>.[ [ O.:.:.:. .'  .e > > > 5 2 q               ",
"      * o o O . O b 5.4.-.i f k ].8X7X1.[ } [ o.o.o.[.7X7X7X7X7X[.o.o.o.| | [ q.7X7X[.k u i *.4.4.c . . X + o $         ",
"      O . . . . X b 4.4.*.h f k |.8X8X1.} } [ [ [ o.[.8X7X0X0X8X[.o.{ [ [ | | q.9X9X|.k i f #.5.d.c . . . . . .         ",
"        ( ) $ . X 2.d.d.-., : 8 I.I.~.`.l.l.l.l.l.XXwXuXuXuXuXuXwXXXl.l.l.l.l.U.~.~.I.8 : : 4.g.d.b . . $ / ( (         ",
"            6 . X 3.N.v.2.. . @ C.G.S.6XfXfXgXfXfXsXgXgXfXgXfXfXgXfXfXfXfXgXfX5XS.S.C.@ O . 3.c.v.W . . &               ",
"            6 . X 4.v.v.2.O . @ C.G.G.6XfXsXsXsXsXsXsXsXsXsXsXsXsXsXsXsXsXsXfX5XS.G.C.@ O O 2.c.v.E . . w               ",
"      ( ) _ 4 2 2 8 a a a a y d 8.Y.U.I.!.!.!.T.!.!.!.!.!.!.!.!.!.!.!.!.!.!.!.I.Y.Y.U.d y y a a a 6 2 2 5 / ( )         ",
"      O . . 3 3 3 @ . . ; I U T h.v.#XJ.S.D.D.F.S.S.F.F.S.S.S.S.S.G.S.S.S.S.S.L.x.v.h.T U U ; . . # n 3 3 . . .         ",
"      * o # 4 Z 4 # . . ; U U T h.c.c.K.D.H.F.F.F.S.G.G.G.G.G.G.F.F.F.F.F.F.F.L.c.x.k.T U U : X . 2 4 M 4 % o $         ",
"                  ~ 2 2 G 0.0.g.z.c.b.`.'.'._.5 1 5 _.}.'.'.'.'._.5 1 5 U.'.'.#Xv.x.z.g.0.0.Z 2 2 _                     ",
"                  ) n n K c.v.c.c.x.v.&X<X<Xh.o . $ M.,X%X,X,X,XM.+ . X h.,X,X@Xx.x.x.v.v.c.H n 3 R.                    ",
"                  ^ 3 3 H h.n.k.v.c.x.&X%X<Xj.; X ; M.:X%X%X%X,XM.; X = h.%X%X@Xx.c.z.k.k.h.H n 3 R.                    ",
"            K 6 6 4 n 3 N Y T -.k.x.x.v.v.v.0.r e r @X:X,X%X,X,XN.r e r g.b.v.v.x.c.k.-.T T Z 3 3 q 6 6 H               ",
"            7 . . 2 n n 0 P k T k.v.v.v.v.v.0.r r t @X<X<X,X,X%XN.t r r d.b.x.v.v.v.k.T k I 0 n n # . . *               ",
"            _./ / 0 2 2 N / 6.6.3.3.3.9.0.g.9.$.$.#.N.$X$X$X$X$XN.#.$.$.9.0.0.9.3.3.3.6._ 6.N 1 2 9 G G J               ",
"                  J . . N 7X7X].< O X y U U -.k.x.z.x.v.v.x.x.x.x.x.x.z.-.U U 8 X X % ].7X7XN . . )                     ",
"                  J . . N 8X8X].% . . a U k -.c.v.v.v.v.c.v.v.x.v.v.v.x.-.k U , . . % ].9X0XN . . )                     ",
"            }.}.}.f.Q ! 8.=X*X}.^ D D L.Y.Y.8.Q R R R R R R R R R R R R 8.Y.Y.^ D D J.rXiXiXf.2.! f.=X'.}.              ",
"            W P U #X,X,X,X>X<X2X(././.6X9X9X).X . . . . . . . . . . . O _.9X8XqX^.^.(.fXhXhX3X1X1XB.v v W               ",
"            ;.P T #X,X<X>X>X:X2X(././.6X0X9X_.O . . . . . . . . . . . O _.9X7X(.^.^.(.hXhXhX3X1X1Xh.v v W               ",
"            ;.P U k.@X@X@X@X@X#XK.J.J.P.!.!.P.V V V V V V V V V V V V C P.P.!.P.J.J.K.=X2X2X<XV.V.g.U P W               ",
"            ;.P U 0.x.x.x.x.x.h.s 9 6 C.S.S.S.H.G.G.G.S.G.G.G.G.H.S.H.G.S.S.S.F 9 0 s n.v.v.v.B.z.9.P P W               ",
"            6.Y T 0.x.z.z.n.z.g.s 9 9 F H.H.H.H.H.H.H.H.H.H.H.H.H.H.H.H.H.H.G.F 0 9 c j.k.k.z.z.z.9.Y Y ;.              ",
"                  f.-.-.I 8 , > $ o $ K.4X4X4XeXeXeXeXeXeXeXeXeXeXeXeXeX6X4X5X~ o o o , , , I -.-.`.                    ",
"                  7.k k y . . . . . X L.9X9XtXsXhXfXfXfXfXhXfXfXfXfXfXfXtX8X9X` . . . . . . y P k `.                    ",
"                  `.6.6.Q 9 9 6 : = ; ( |.|.7XrXrXrXrXrXrXrXrXrXrXrXrXwX|.].|.` = = ; 8 9 9 Q 6.;.}.                    ",
"                                %. . .c Z G 0 * & & % % % % % % & % & % N G G k  . .%.                                  ",
"                                &.[ | i 9 9 6 . . . . . . . . . . . . . 7 9 9 j | } &.                                  ",
"                                @.] ] l I L 0 % * $ X . . . . . X % % * s c c z ] ] ..                                  ",
"                          6 7 & + + + 2.z.n.g./ ` K $ . . . . . $ K J / j.z.c.v X + + & 7 7                             ",
"                          O . . . . . 2.x.v.h./ / J # . . . . . o ` / / h.v.v.v . . . . . O                             ",
"                          o . O B S A L.).).( G s H ) ( ( ) ( ( ( H N G ( ).).^ S A B O . .                             ",
"                          o . # W././.Q.E.E.A.O . &               7 . O A.E.E.W.^.^.W.< . X                             ",
"                          $ O < W././.Q.E.E.A.@ . 7               6 O o A.E.E.W.^.^.W.2 . o                             ",
"                             X{.~ S S S m m ~ {.{.                 X{. X^ m m S S S D {.                                ",
"                                7 . . . . . G                           K . . . . . >                                   ",
"                                0 o o o o O K                           J o o o o o 9                                   ",
"                                                                                                                        ",
"                                                                                                                        ",
"                                                                                                                        ",
"                                                                                                                        ",
"                                                                                                                        "
};
