/* XPM */
static char *result[] = {
/* columns rows colors chars-per-pixel */
"60 60 97 2 ",
"   c #0F141F",
".  c #131C27",
"X  c #141D28",
"o  c #172431",
"O  c #1F2E37",
"+  c #202D37",
"@  c #232F38",
"#  c #24333D",
"$  c #29373F",
"%  c #263845",
"&  c #2B3941",
"*  c #303F46",
"=  c #34454C",
"-  c #374950",
";  c #384A51",
":  c #3D5157",
">  c #3D5359",
",  c #3F5A63",
"<  c #404D51",
"1  c #455255",
"2  c #40555C",
"3  c #48565B",
"4  c #445B60",
"5  c #435E68",
"6  c #46626C",
"7  c #4D666B",
"8  c #4F696D",
"9  c #516A6F",
"0  c #456570",
"q  c #536D72",
"w  c #567276",
"e  c #5B7175",
"r  c #577479",
"t  c #59767C",
"y  c #59797E",
"u  c #667C7D",
"i  c #697F7F",
"p  c #3C5E8B",
"a  c #3F628D",
"s  c #3F6693",
"d  c #44688C",
"f  c #4A6E8D",
"g  c #4C718D",
"h  c #5A7D84",
"j  c #50778E",
"k  c #567D8E",
"l  c #436C93",
"z  c #436F9D",
"x  c #45729D",
"c  c #4B779E",
"v  c #477AA5",
"b  c #4D7DA4",
"n  c #5C8087",
"m  c #5D848C",
"M  c #5E888F",
"N  c #5F8790",
"B  c #5E8892",
"V  c #5A8A9D",
"C  c #6F8687",
"Z  c #758C8C",
"A  c #798F8E",
"S  c #7A918F",
"D  c #608790",
"F  c #7D9492",
"G  c #4C84AE",
"H  c #598AA1",
"J  c #558CAB",
"K  c #4C86B0",
"L  c #4F8CB6",
"P  c #4F8FBA",
"I  c #518FB6",
"U  c #508FBA",
"Y  c #4F90B9",
"T  c #5D98B6",
"R  c #5291BB",
"E  c #5D9DBE",
"W  c #5A9BC0",
"Q  c #64A5C0",
"!  c #67AAC4",
"~  c #69ACC6",
"^  c #67ADCA",
"/  c #6DB4CC",
"(  c #72BED3",
")  c #76C0D4",
"_  c #7AC2D4",
"`  c #819795",
"'  c #819895",
"]  c #8ACCD7",
"[  c #99D5DA",
"{  c #9DD8DA",
"}  c #A5DDDC",
"|  c #ACDDDE",
" . c #BDE3E0",
".. c #CCE1E3",
"X. c #EAEDE7",
"o. c #E6ECE8",
"O. c #EBEDE8",
/* pixels */
"; ; - ; ; ; ; - ; ; ; ; - ; ; ; ; ; ; - ; ; ; ; ; ; ; - ; ; ; ; ; ; ; ; - ; ; ; ; ; ; - ; ; ; ; ; ; ; ; ; ; ; ; ; ; ; ; ",
"- ; ; ; ; - ; ; ; ; - ; - ; ; ; ; - ; ; ; ; ; - ; ; ; ; ; ; ; - ; ; ; ; - ; ; ; ; - ; ; ; ; ; ; ; - ; ; ; ; ; ; ; ; ; = ",
"; - - ; ; - ; - ; ; ; ; ; ; ; ; ; ; ; ; ; - - - - ; ; - ; - ; ; ; ; ; ; ; ; ; ; ; ; ; ; ; ; ; ; ; - ; ; ; ; = ; ; ; ; ; ",
"# # # : q q q Z A A Z q q q q q q q q q q q q q q q q q q q q q q q q q q q q q q q q q q q q q q q q q Z A A C q q q > ",
"O O + 2 w w w A ` ` S w w w w w w w w w w w w w w w w w w w w w w w w w w w w w q w w w w w w w w w w w F ` ` A r w w > ",
"O # O 2 w w w A ` ` F w w w w w w w w w w w w w w w w w w w w w w w w w w w w w w w w w w w w w w w w w F ` ` A r w w > ",
"O + O 2 w w w u C i i w w w w w w w w w w w w w w w w w w w w w w w w w w w w w w w w w w w w w w w w w i i i u w w w > ",
"+ + + 2 w w w > ; ; ; w w w w w w w w w w w w w w w w w w w w w w w w w w w w w w w w w w w w w w w r w ; ; ; > w w w > ",
"+ + O 2 w w w 2 ; ; : w w w w w w w w w w w w w w w w w w w w w w w w w w w w w w w w w w w w r w w w w 2 ; ; 2 q w w > ",
"+ + # > w w w > - ; : w w w w w w w w w w w w r w w w r w w w w w w w w w w w r w w w w w w w q w w w w ; ; ; 2 w w w > ",
"+ + O > w w w 8 7 7 7 w w w w w w w w w w w h m h n n n n h n n m h h h k n n n h r w w w w w w w w w w 7 7 7 9 w w w > ",
"+ + O 2 w w w w w w w w w w w w w w w r r q h M D D D D D D B D D D D D D D D D D w w w w w w w w w w w w w w w w w w > ",
"# O O 2 w w w w w w w w w w w w w w w w w w m B D B D D D B D B m D D B B D D B h r w w w w w w w w w w w w w w w w w > ",
"O O O 2 w w w w w w w w w w w t t t t t t t m B M D B m B D B D D M B D D D m D n t t t t t t t w w w w w w w w w w w > ",
"O + O 2 w w w w w w w w w w y M B B D D m D B D D m B D M D D M B D D m B D D M D M D D B M M D t w w w w w w w w w w > ",
"+ + O 2 w w w w w w w w w w y M M D D D D M D B D D D M D B D D D D B D D M M D B D B D B D m D y w w w w w w w w w w > ",
"+ + O 2 w w w w w w w r r r h m D M D m B D B D M D N N N D M D B M D B D m D D B D M D M B D M h r r r w w w w w w w > ",
"# + O 2 w w w w w w w h h h h D M B H J J J J J J J J J J J J J J J J J J J J J J J J J V D m B h h h h r w w w w w w > ",
"O O O 2 w w w w w w r D D D D M D D J U U U U U U U U U U U R Y U U U U U U U U U U U U J D D D D D N k r w w w w w w > ",
"O O O 2 w w w w w w r B D D B D D M J U U U U U U U U U U U U U U U U U U U U U U U U U J D B M D D B N r w w w w w w > ",
"+ + O 2 w w w w w w t B D D B B B B J L P L U R U U R R R U R R P U R U R U R Y R L P L J B B B B D B M r r w w w w w > ",
"+ + O 2 w w w w w w r M m D V I I I x a s a ! ( ( ( ( ( ( ( / ( ( ( ( ( ( ( ( ( Q s a a x I I U V D M m r w w w w w w > ",
"+ O O 2 w w w w w w r D D M V U P U z p p p ! ( ( ( ( ( ( ( ( ( ( ( ( ( ( ( ( ( ! p p p x P U U V B D M r w w w w w w > ",
"O O # > w w w w w w w D D B V U U P z p p p ~ ( ( ( ) ( ( ( ( ( ( ( ( ( ( ( ( ( ! p p p x P U P V D m M r w w w w w w > ",
"+ + O > w w w y h h h B D m V U P P I J J J / ( ( ( ] ] ] ] ] ] ] ] ] ] ] ( ( ( ^ J J J G v v v B N N m h h h t w w w > ",
"+ + # 2 w w w m N N m D D D V U P P ! ( ( ( ) ( ( _ } } } } } } | } } } } _ ) ( ( ( ( ( T p p p k N N N B D B n r w w > ",
"+ # O > w w w m N N N N B D V U U R ^ ( ( ( ( ( ( _ | } } } } } } } } } } _ ( ( ( ( ( ( T p p p k N N N D B D n e w w > ",
"+ + O > w w w n D N N D D B V U P P ^ ( ( ( ( ( ( _ } } } } } } } } } } } ) ( ( ( ( ( ( T p p p k N N N M D B n w w w > ",
"+ + + 2 w w w m D B D M D B V U U R ^ ( ( ( [ } } } } } }  .o.o.o.o.o.o.o.| } } [ ( ( ( T p p p k D N N D B D n r w w > ",
"+ + O > w w w m D m B D M B V U U U ^ ( ( ( { } } } } } } ..o.o.X.X.X.X.X.| } } [ ( ( ( T p p p k N N N M D B n w w w > ",
"+ + O 2 w w w m M D D M D B V P U P ^ ( ) ( { } } } } } }  .X.X.O.O.X.X.X.| } } { ( ( ( T p p p k N N N D N D n w w w > ",
"# + O 2 w w w m D B D D M D V U U R W Q Q Q ] [ [ [ [ [ [ | ..............{ [ { ] Q Q Q J p p a k N N N N N N n w w w > ",
"O + O 2 w w w m m M N N N D V R U Y z p p p ~ ) ( ( ( ( ( ( ) ( ( ) ( ( ( ( ( ( ! p p p p p p p k D B D M D N n w w w > ",
"O O O 2 w w w m M D N N N N V Y U U z p p p ~ ( ( ( ( ( ( ( ( ( ( ( ( ( ( ( ) ( ! a p p p p p p k D D B m D D n r w w > ",
"O O O 2 w w w m D D M N D M V P U U z p p p ~ ) ) ( ( ) ) ( ( ( ) ( ) ) ) ( ) ( ! p p p p p p p k m N N D D B n r w w > ",
"+ # + > w w w m M D D N B B V U U U z p p p x c c v W E W W W W W W W W W W W W L p p p p p p a k D B N B D D h r w w > ",
"O + O > r w w m m D M D D D V U U U z p p p p p p s U U U U U U P P P P P P U U K p p p p p p p k D N N D M B m e w w > ",
"+ + O 2 w w w m D B D B M D V U U U z p p p p p p s U P R U U U P P P P P P U U K p p p p p p p k N N N B D B h w w w > ",
"+ + O 2 w w w n n m m D D M V U U U z p p p p p p s Y P P U U U P P P P U U U U K p p p p p p p k D B D n m m h w w w : ",
"+ + O 2 w w w w w w w D M B V U U U z p p p p p p s Y P P U U U P P P P U U U U G p p p p p p p k M D M r w w w w w w ; ",
"+ + + 2 w w w w w w r D M M V U U R z p p p p p p s W v P P P P U U U U U U U U G p p p p p p p k D B M w w w w e q e < ",
"+ + O 2 w w w w w w r M D D V U U U z p p p p p p p W W P P P P U U U U U U U U G p p p p p p p j N D M r w w w w e e < ",
"+ + + 2 w w w w w w t D N N B H H H l p p p p p p s W K P P P P U U U U U U U U b p p p d j g j m N B m r w w q 2 2 1 $ ",
"+ + + 2 w w w w w w r B N N N N D D d p p p p p p s U U U U P P U U U U U U U U K p p p g N N D M B B N r w w 7 * & * @ ",
"+ + O 4 w w w w w r r N N B D N N N d p p p p p p s W W U U U W U U U U P P P U K p p p f N N N N N N m e w e 7 * * * @ ",
"+ + O > w w w r t r t N N m N N N N f d d p d p p s W v U L b K K L I I P K K K v d p a g N N N N N N m w q q 7 * * * @ ",
"+ + O 2 w w r Z ` F S w w w h m N M N N k B k B N N c V B 5 . . . 0 B B N O o o % N M m B N N N r r w w 3 1 1 < * * * @ ",
"+ + O , w w w A ` ` F r w w t N N N N D D D N N N N B k N 4       6 D B N O X X # N D B M N N M h w w w 3 1 1 < * * * @ ",
"+ + O > w w w F ' ' F r w w t D D B D D D B D M D M D N N 5       6 D M M O . . % m B B m D D D t w w w 3 1 1 < * * * @ ",
"+ + # > w w w w e e e w w w t h h h h h h h M D B D M D N 5 .     6 M D M , : : 4 h h h h h h h r w w w 2 ; < ; * * * @ ",
"+ + O 2 w w w 2 - ; ; w w w w w w w w w r w n B M D B D M 5       6 D M N N B B m r w w w r w w w w w w < ; ; = * * * @ ",
"+ + O 2 w w q 2 - - > w w w w w w w w w w w n M D M D M D 5       6 M D N N N N n e w w w w q r w w w q ; ; ; ; * * * @ ",
"# + + 2 w w w 2 ; ; : w w w w w w w w w w w n D D D D M B 5     . 6 B D N B B N n r w w w w w w w w w w 2 ; ; = * * * @ ",
"O + + 2 w w w q q w w w w w w w w w w w w w r r w t w t w >       2 r w w r w w r w w w w w w w w w w w q w q 7 * * * $ ",
"O + + 2 w w w w w w w w w w w w w w w w w w w w w w w w w :       2 w w w w w w w w w w w w w w w w w w w w w 7 * * * & ",
"+ O + 2 w w w w w w w w w w w w w w w w w w w w w w w w t ;       : w w w w w w w w w w w w w w w w w w w w w 7 * * * @ ",
"$ & $ > 7 8 7 7 8 7 7 8 7 7 7 7 7 7 7 7 7 7 7 7 7 7 7 7 7 -       ; 7 7 7 7 7 7 7 7 7 7 7 7 7 7 7 7 7 7 7 7 7 4 & $ $ @ ",
"- - - - ; ; - - - - - - ; ; ; ; ; - ; ; ; ; ; ; ; ; - ; ; $       & ; ; ; ; ; ; ; ; ; ; ; ; ; ; ; ; ; ; = ; ; = + + + + ",
"- ; - - - ; ; ; - ; - ; ; ; ; ; ; ; - ; ; ; ; ; ; ; ; ; ; $     . & ; ; ; ; ; ; = ; ; ; ; ; ; ; ; ; ; ; ; ; ; = o @ + o ",
"; ; - ; ; ; ; ; ; ; ; ; ; ; ; ; ; ; ; ; ; ; ; ; ; ; ; ; ; &       & ; ; ; ; ; = ; ; ; ; ; ; ; ; ; ; ; ; ; ; ; * @ o + @ "
};
